<svg width="29" height="21" viewBox="0 0 29 21" fill="none" xmlns="http://www.w3.org/2000/svg">
<path d="M7.25 21C5.25076 21 3.54283 20.3109 2.12623 18.9328C0.709621 17.5547 0.000878788 15.8703 0 13.8797C0 12.1734 0.516288 10.6531 1.54886 9.31875C2.58144 7.98438 3.93258 7.13125 5.60227 6.75937C6.15152 4.74687 7.25 3.11719 8.89773 1.87031C10.5455 0.623438 12.4129 0 14.5 0C17.0705 0 19.2512 0.891625 21.0421 2.67488C22.8331 4.45813 23.7282 6.629 23.7273 9.1875C25.2432 9.3625 26.5012 10.0135 27.5012 11.1405C28.5013 12.2675 29.0009 13.5852 29 15.0938C29 16.7344 28.4235 18.1291 27.2705 19.278C26.1176 20.4269 24.7168 21.0009 23.0682 21H7.25ZM7.25 18.375H23.0682C23.9909 18.375 24.7708 18.0578 25.408 17.4234C26.0451 16.7891 26.3636 16.0125 26.3636 15.0938C26.3636 14.175 26.0451 13.3984 25.408 12.7641C24.7708 12.1297 23.9909 11.8125 23.0682 11.8125H21.0909V9.1875C21.0909 7.37187 20.4481 5.824 19.1624 4.54387C17.8767 3.26375 16.3226 2.62413 14.5 2.625C12.6774 2.62587 11.1233 3.26594 9.83759 4.54519C8.55192 5.82444 7.90909 7.37187 7.90909 9.1875H7.25C5.97576 9.1875 4.88826 9.63594 3.9875 10.5328C3.08674 11.4297 2.63636 12.5125 2.63636 13.7812C2.63636 15.05 3.08674 16.1328 3.9875 17.0297C4.88826 17.9266 5.97576 18.375 7.25 18.375Z" fill="#5CC6C1"/>
</svg>
