<svg width="29" height="21" viewBox="0 0 29 21" fill="none" xmlns="http://www.w3.org/2000/svg">
<path d="M7.25 21C5.25076 21 3.54283 20.3109 2.12623 18.9328C0.709621 17.5547 0.000878788 15.8703 0 13.8797C0 12.1734 0.516288 10.6531 1.54886 9.31875C2.58144 7.98437 3.93258 7.13125 5.60227 6.75937C6.15152 4.74687 7.25 3.11719 8.89773 1.87031C10.5455 0.623438 12.4129 0 14.5 0C17.0705 0 19.2512 0.891625 21.0421 2.67488C22.8331 4.45812 23.7282 6.629 23.7273 9.1875C25.2432 9.3625 26.5012 10.0135 27.5012 11.1405C28.5013 12.2675 29.0009 13.5852 29 15.0937C29 16.7344 28.4235 18.1291 27.2705 19.278C26.1176 20.4269 24.7168 21.0009 23.0682 21H7.25Z" fill="#5CC6C1"/>
</svg>
