<svg width="22" height="25" viewBox="0 0 22 25" fill="none" xmlns="http://www.w3.org/2000/svg">
<path d="M0 22.1429V9.28571C0 8.83333 0.0936408 8.40476 0.280921 8C0.468202 7.59524 0.726263 7.2619 1.0551 7L8.96836 0.571429C9.42997 0.190476 9.95752 0 10.551 0C11.1445 0 11.6721 0.190476 12.1337 0.571429L20.0469 7C20.3767 7.2619 20.6352 7.59524 20.8224 8C21.0097 8.40476 21.1029 8.83333 21.102 9.28571V22.1429C21.102 22.9286 20.8435 23.6014 20.3265 24.1614C19.8095 24.7214 19.1888 25.0009 18.4643 25H13.1888C12.8151 25 12.5021 24.8629 12.2497 24.5886C11.9974 24.3143 11.8708 23.9752 11.8699 23.5714V16.4286H9.23214V23.5714C9.23214 23.9762 9.10553 24.3157 8.8523 24.59C8.59908 24.8643 8.28607 25.0009 7.91326 25H2.63776C1.91237 25 1.29162 24.7205 0.7755 24.1614C0.25938 23.6024 0.00087925 22.9295 0 22.1429Z" fill="#5CC6C1"/>
</svg>
