<svg width="23" height="23" viewBox="0 0 23 23" fill="none" xmlns="http://www.w3.org/2000/svg">
<path d="M22.7629 18.9691C22.7629 19.9753 22.3629 20.9399 21.6514 21.6514C20.9399 22.3629 19.9753 22.7629 18.9691 22.7629H3.79381C2.78763 22.7629 1.82295 22.3629 1.11147 21.6514C0.399991 20.9399 0 19.9753 0 18.9691C0 17.2921 0.666651 15.6843 1.85245 14.4985C3.03825 13.3127 4.64605 12.646 6.32302 12.646H16.4399C18.1168 12.646 19.7246 13.3127 20.9104 14.4985C22.0962 15.6843 22.7629 17.2921 22.7629 18.9691ZM16.4399 5.05842C16.4399 7.85211 14.1751 10.1168 11.3814 10.1168C8.58776 10.1168 6.32302 7.85211 6.32302 5.05842C6.32302 2.26473 8.58776 6.51783e-07 11.3814 0C14.1751 0 16.4399 2.26473 16.4399 5.05842Z" fill="#5CC6C1"/>
</svg>
