<svg width="23" height="23" viewBox="0 0 23 23" fill="none" xmlns="http://www.w3.org/2000/svg">
<path d="M20.2337 18.9691C20.2337 17.9629 19.8337 16.9982 19.1222 16.2867C18.4998 15.6643 17.6836 15.2801 16.8153 15.1938L16.4399 15.1753H6.32302C5.31684 15.1753 4.35216 15.5752 3.64068 16.2867C2.9292 16.9982 2.52921 17.9629 2.52921 18.9691L2.53538 19.0938C2.56408 19.3834 2.69212 19.6556 2.8997 19.8632C3.13686 20.1003 3.45842 20.2337 3.79381 20.2337H18.9691C19.3045 20.2337 19.626 20.1003 19.8632 19.8632C20.1003 19.626 20.2337 19.3045 20.2337 18.9691ZM13.9107 5.05842C13.9107 3.66158 12.7783 2.52921 11.3814 2.52921C9.9846 2.52921 8.85223 3.66158 8.85223 5.05842C8.85223 6.45526 9.9846 7.58763 11.3814 7.58763C12.7783 7.58763 13.9107 6.45526 13.9107 5.05842ZM22.7629 18.9691C22.7629 19.9753 22.3629 20.9399 21.6514 21.6514C20.9399 22.3629 19.9753 22.7629 18.9691 22.7629H3.79381C2.78763 22.7629 1.82295 22.3629 1.11147 21.6514C0.399991 20.9399 0 19.9753 0 18.9691C0 17.2921 0.666651 15.6843 1.85245 14.4985C3.03825 13.3127 4.64605 12.646 6.32302 12.646H16.4399C18.1168 12.646 19.7246 13.3127 20.9104 14.4985C22.0962 15.6843 22.7629 17.2921 22.7629 18.9691ZM16.4399 5.05842C16.4399 7.85211 14.1751 10.1168 11.3814 10.1168C8.58776 10.1168 6.32302 7.85211 6.32302 5.05842C6.32302 2.26473 8.58776 6.51783e-07 11.3814 0C14.1751 0 16.4399 2.26473 16.4399 5.05842Z" fill="#5CC6C1"/>
</svg>
