<svg width="384" height="812" viewBox="0 0 384 812" fill="none" xmlns="http://www.w3.org/2000/svg">
<path d="M161.6 653.882C160.14 649.542 158.37 642.663 158.52 634.177C158.91 612.876 171.12 598.992 174.56 595.088C180.76 588.049 189.44 578.185 202.06 578.885C213.86 579.551 221.73 589.036 223.93 591.873C227.98 581.584 232.04 571.295 236.09 561.006C241.21 548.03 246.94 534.238 257.65 527.05C268.36 519.861 285.38 523.685 288.44 537.499C290.83 513.568 293.21 489.637 295.6 465.706C297.53 446.345 301.59 423.528 317.22 415.938C334.35 407.612 352.58 423.413 366.09 438.077C374.91 404.569 373.54 365.733 393.1 338.885C403.27 324.922 417.86 316.263 432.48 309.235C450.85 300.416 471.82 293.618 490.35 301.967C495.85 304.447 511.37 314.587 523.34 364.16C537.69 423.62 530.81 474.204 530.26 478.257C522.28 537.189 517.91 630.066 521.65 785.607C510.15 786.766 321.76 805.679 193.35 811.674C175 812.535 141.22 813.568 120.39 788.041C104.8 768.944 99.0402 738.169 105.8 711.115C106.78 707.187 115.31 674.942 142.49 660.255C149.93 656.236 156.76 654.617 161.61 653.894L161.6 653.882Z" fill="#0E5E6A"/>
<path d="M237.79 653.882C239.25 649.542 241.02 642.663 240.87 634.177C240.48 612.876 228.27 598.992 224.83 595.088C218.63 588.049 209.95 578.185 197.33 578.885C185.53 579.551 177.66 589.036 175.46 591.873C171.41 581.584 167.35 571.295 163.3 561.006C158.18 548.03 152.45 534.238 141.74 527.05C131.03 519.861 114.01 523.685 110.95 537.499C108.56 513.568 106.18 489.637 103.79 465.706C101.86 446.345 97.8 423.528 82.17 415.938C65.04 407.612 46.81 423.413 33.3 438.077C24.48 404.569 25.8499 365.733 6.28995 338.885C-3.88005 324.922 -18.4701 316.263 -33.0901 309.235C-51.4601 300.416 -72.4301 293.618 -90.9601 301.967C-96.4601 304.447 -111.98 314.587 -123.95 364.16C-138.3 423.62 -131.42 474.204 -130.87 478.257C-122.89 537.189 -118.52 630.066 -122.26 785.607C-110.76 786.766 77.63 805.679 206.04 811.674C224.39 812.535 258.17 813.568 279 788.041C294.59 768.944 300.35 738.169 293.59 711.115C292.61 707.187 284.08 674.942 256.9 660.255C249.46 656.236 242.63 654.617 237.78 653.894L237.79 653.882Z" fill="#0E5E6A"/>
<path d="M83.37 428.625C69.37 436.801 55.84 446.045 43.01 456.449C33.15 464.453 23.68 473.123 14.75 482.458C9.80003 487.637 4.92003 492.966 0.540034 498.788C-2.40997 502.703 -5.35997 506.941 -6.89997 511.867C-7.93997 515.174 -7.92997 518.929 -6.26997 521.961C-3.98997 526.129 0.310035 528.116 4.31003 529.172C11.94 531.205 20.14 531.01 27.9 530.091C28.17 530.056 28.43 530.022 28.7 529.988C30.04 529.804 31.2 528.805 31.2 527.117C31.2 525.704 30.05 524.062 28.7 524.246C22.24 525.13 15.54 525.291 9.09003 524.349C8.79003 524.303 9.06003 524.349 9.12003 524.349C8.99003 524.326 8.87003 524.303 8.74003 524.28C8.45003 524.223 8.15003 524.177 7.86003 524.12C7.32003 524.016 6.79003 523.901 6.26003 523.764C5.24003 523.511 4.22003 523.212 3.23003 522.845C2.76003 522.673 2.29003 522.478 1.84003 522.259C2.23003 522.443 1.77003 522.225 1.63003 522.145C1.40003 522.018 1.18003 521.892 0.960032 521.766C0.590032 521.547 0.230033 521.306 -0.109967 521.042C-0.309967 520.893 -0.499965 520.744 -0.689965 520.583C-0.299965 520.916 -0.719966 520.548 -0.869966 520.399C-1.14997 520.1 -1.40996 519.79 -1.66996 519.469C-2.05996 518.998 -1.56997 519.699 -1.78997 519.297C-1.89997 519.09 -2.01997 518.883 -2.12997 518.665C-2.17997 518.573 -2.42997 517.988 -2.28997 518.344C-2.14997 518.7 -2.31997 518.263 -2.33997 518.183C-2.41997 517.884 -2.49997 517.586 -2.55997 517.276C-2.58997 517.138 -2.58997 517 -2.62997 516.874C-2.66997 516.724 -2.59997 517.609 -2.59997 517.08C-2.59997 516.736 -2.62997 516.403 -2.61997 516.058C-2.61997 515.909 -2.58997 515.748 -2.58997 515.599C-2.58997 515.048 -2.64997 515.909 -2.60997 515.737C-2.53997 515.381 -2.49996 515.025 -2.41996 514.669C-2.33996 514.29 -2.22997 513.911 -2.11997 513.544C-2.05997 513.36 -1.99997 513.176 -1.94997 513.004C-1.75997 512.384 -2.07997 513.302 -1.89997 512.843C-1.52997 511.936 -1.13997 511.063 -0.699967 510.202C0.470033 507.94 1.68003 506.114 3.05003 504.219C7.25003 498.397 12.03 493.126 16.86 488.005C25.05 479.312 33.7 471.182 42.74 463.672C54.69 453.739 67.28 444.828 80.3 436.881C82.16 435.756 84.02 434.642 85.89 433.551C88.76 431.875 86.23 426.925 83.37 428.59V428.625Z" fill="url(#paint0_linear_344_7688)"/>
<path d="M276.32 327.285C292.04 320.855 308.08 315.423 324.39 311.335C337.09 308.154 349.94 305.766 362.89 304.422C374.49 303.216 386.33 302.527 397.95 303.515C400.91 303.768 403.81 304.146 406.69 304.95C407.91 305.295 409.12 305.697 410.28 306.248C409.91 306.076 410.42 306.328 410.54 306.386C410.77 306.512 411.01 306.65 411.24 306.788C411.7 307.075 412.14 307.396 412.58 307.729C412.98 308.039 412.35 307.477 412.7 307.833C412.87 308.005 413.03 308.166 413.19 308.338C413.35 308.51 413.49 308.694 413.63 308.878C413.69 308.958 413.75 309.038 413.8 309.119C414.01 309.406 413.49 308.556 413.78 309.119C413.98 309.498 414.17 309.865 414.34 310.256C414.46 310.543 414.26 310.037 414.26 310.037C414.3 310.175 414.35 310.324 414.39 310.462C414.46 310.749 414.52 311.036 414.58 311.335C414.69 311.875 414.58 310.91 414.59 311.461C414.59 311.725 414.62 311.99 414.61 312.254C414.6 312.518 414.59 312.793 414.58 313.069C414.56 313.494 414.66 312.713 414.52 313.482C414.42 314.011 414.31 314.527 414.17 315.044C414.09 315.331 414 315.618 413.91 315.894C413.87 316.02 413.83 316.135 413.78 316.261C413.68 316.548 413.9 315.963 413.71 316.434C411.58 321.59 408.44 325.517 404.84 329.524C403.19 331.362 401.47 333.13 399.71 334.83C399.01 335.496 398.31 336.162 397.6 336.816C397.31 337.08 397.02 337.345 396.73 337.597C396.38 337.919 397.14 337.241 396.81 337.528C396.68 337.643 396.56 337.746 396.43 337.861C396.15 338.102 395.88 338.344 395.6 338.573C394.51 339.492 393.97 341.065 394.7 342.501C395.33 343.729 397.03 344.453 398.12 343.534C404.96 337.781 411.81 330.948 416.41 322.692C418.97 318.11 420.83 312.288 418.55 307.075C416.39 302.16 411.12 300.127 406.76 299.082C399.41 297.337 391.75 297.302 384.28 297.406C379.2 297.475 374.12 297.716 369.06 298.118C356.05 299.14 343.1 301.195 330.3 304.078C313.84 307.787 297.62 312.897 281.73 319.063C279.48 319.936 277.23 320.832 274.99 321.75C273.72 322.267 272.87 323.702 273.24 325.287C273.58 326.7 275.04 327.813 276.32 327.297V327.285Z" fill="url(#paint1_linear_344_7688)"/>
<path d="M70.7299 525.876C93.2999 518.998 115.64 511.189 137.72 502.451C160.32 493.505 182.62 483.572 204.57 472.732C224.98 462.661 245.08 451.764 264.84 440.097C283.22 429.233 301.31 417.704 319.05 405.521C335.26 394.405 351.18 382.738 366.81 370.577C368.65 369.142 370.49 367.706 372.32 366.259C374.95 364.181 372.46 359.197 369.8 361.299C354.43 373.436 338.76 385.092 322.82 396.219C305.4 408.38 287.66 419.909 269.61 430.795C250.2 442.497 230.45 453.44 210.4 463.603C188.85 474.523 166.93 484.514 144.73 493.563C122.57 502.6 100.12 510.707 77.4399 517.85C74.7599 518.699 72.0799 519.526 69.3999 520.342C66.2899 521.295 67.6099 526.83 70.7299 525.876Z" fill="url(#paint2_linear_344_7688)"/>
<path d="M384.1 358.726C387.055 358.726 389.45 355.976 389.45 352.583C389.45 349.19 387.055 346.439 384.1 346.439C381.145 346.439 378.75 349.19 378.75 352.583C378.75 355.976 381.145 358.726 384.1 358.726Z" fill="url(#paint3_linear_344_7688)"/>
<path d="M46.8603 532.996C49.815 532.996 52.2103 530.246 52.2103 526.853C52.2103 523.46 49.815 520.709 46.8603 520.709C43.9055 520.709 41.5103 523.46 41.5103 526.853C41.5103 530.246 43.9055 532.996 46.8603 532.996Z" fill="url(#paint4_linear_344_7688)"/>
<path d="M85.17 324.403C70.25 318.822 55.01 314.366 39.54 311.312C27.64 308.958 15.61 307.396 3.54001 306.753C-2.96999 306.409 -9.52999 306.213 -16.04 306.707C-20.45 307.04 -25.04 307.568 -29.15 309.555C-31.94 310.91 -34.29 313.057 -35.39 316.376C-36.96 321.084 -35.23 326.321 -33.15 330.432C-29.07 338.47 -22.83 345.268 -16.59 351.101C-16.38 351.297 -16.17 351.492 -15.95 351.687C-14.89 352.64 -13.45 352.87 -12.41 351.687C-11.54 350.688 -11.34 348.587 -12.41 347.622C-14.32 345.899 -16.14 344.051 -17.92 342.144C-19.46 340.502 -20.96 338.803 -22.4 337.046C-23.21 336.058 -23.99 335.048 -24.76 334.014C-25.53 332.981 -26.06 332.223 -26.66 331.281C-27.95 329.26 -29.12 327.147 -30.03 324.862C-30.22 324.38 -29.98 325.046 -30.14 324.552C-30.22 324.311 -30.3 324.058 -30.38 323.806C-30.55 323.243 -30.7 322.68 -30.81 322.095C-30.86 321.854 -30.89 321.612 -30.94 321.371C-31.04 320.809 -30.93 321.75 -30.96 321.188C-30.99 320.682 -30.98 320.2 -30.98 319.695C-30.98 319.121 -31.01 319.695 -30.98 319.568C-30.95 319.35 -30.91 319.132 -30.86 318.914C-30.81 318.696 -30.75 318.489 -30.7 318.271C-30.56 317.628 -30.79 318.42 -30.69 318.202C-30.57 317.949 -30.47 317.697 -30.34 317.444C-30.28 317.329 -30.2 317.226 -30.15 317.111C-29.92 316.629 -30.47 317.467 -30.22 317.203C-30.04 317.008 -29.9 316.778 -29.72 316.583C-29.59 316.445 -28.98 315.836 -29.29 316.123C-29.6 316.41 -28.95 315.859 -28.8 315.744C-28.5 315.526 -28.2 315.331 -27.88 315.147C-27.74 315.067 -27.59 314.987 -27.45 314.906C-27.37 314.86 -26.87 314.608 -27.21 314.78C-27.55 314.952 -27.03 314.699 -26.94 314.665C-26.74 314.585 -26.54 314.493 -26.34 314.412C-25.53 314.091 -24.71 313.838 -23.88 313.62C-21.56 313 -19.93 312.782 -17.62 312.564C-11.25 311.943 -4.81999 312.081 1.57001 312.38C12.69 312.885 23.78 314.16 34.77 316.181C49.39 318.868 63.82 322.795 77.97 327.79C79.94 328.479 81.9 329.203 83.85 329.926C86.92 331.075 88.23 325.528 85.18 324.391L85.17 324.403Z" fill="url(#paint5_linear_344_7688)"/>
<path d="M279.95 409.103C295.75 417.142 311.16 426.213 325.89 436.594C337.14 444.518 348.03 453.21 358.23 462.73C367.46 471.343 376.49 480.621 384.31 490.933C386.38 493.666 388.36 496.502 389.99 499.603C390.31 500.211 390.62 500.832 390.9 501.463C391.03 501.762 391.16 502.06 391.29 502.359C391.36 502.531 391.68 503.369 391.52 502.91C391.92 504.024 392.21 505.172 392.4 506.355C392.31 505.781 392.4 506.263 392.4 506.55C392.41 506.791 392.42 507.032 392.42 507.262C392.42 507.492 392.4 507.721 392.4 507.963C392.4 508.606 392.53 507.48 392.36 508.25C392.27 508.686 392.16 509.099 392.03 509.513C392.2 508.962 392.1 509.341 391.95 509.651C391.83 509.903 391.69 510.133 391.56 510.374C391.27 510.925 391.73 510.202 391.44 510.558C391.29 510.742 391.14 510.937 390.98 511.109C390.82 511.281 390.65 511.454 390.48 511.626C390.14 511.97 390.45 511.649 390.52 511.591C390.41 511.683 390.31 511.775 390.19 511.855C389.76 512.177 389.32 512.487 388.86 512.751C388.64 512.877 388.41 513.004 388.18 513.119C388.62 512.889 387.91 513.233 387.75 513.302C383.06 515.3 378.53 515.438 373.45 515.346C371.11 515.3 368.78 515.151 366.45 514.91C365.57 514.818 364.68 514.715 363.8 514.6C363.45 514.554 363.11 514.508 362.76 514.462C362.61 514.439 362.46 514.416 362.31 514.393C361.67 514.301 362.83 514.485 362.36 514.393C362.03 514.336 361.7 514.29 361.38 514.232C360.05 513.991 358.69 514.623 358.3 516.242C357.97 517.609 358.7 519.538 360.05 519.779C368.44 521.272 377.45 521.995 385.8 519.917C390.39 518.78 395.37 516.196 396.96 510.684C398.55 505.172 395.97 499.545 393.45 495.17C389.14 487.706 383.5 481.23 377.91 475.052C374.19 470.941 370.37 466.967 366.44 463.132C356.4 453.314 345.74 444.334 334.65 436.135C320.09 425.364 304.8 415.924 289.09 407.576C286.89 406.405 284.69 405.268 282.47 404.143C281.24 403.511 279.78 403.729 279.05 405.176C278.43 406.393 278.71 408.472 279.95 409.103Z" fill="url(#paint6_linear_344_7688)"/>
<path d="M16.2902 382.876C35.6802 395.794 55.4502 407.955 75.5702 419.289C97.0002 431.369 118.82 442.52 140.97 452.74C161.92 462.409 183.16 471.239 204.65 479.197C224.55 486.569 244.67 493.207 264.94 499.097C283.59 504.518 302.38 509.306 321.27 513.463C323.46 513.945 325.64 514.416 327.83 514.887C330.98 515.553 332.32 510.018 329.16 509.352C310.55 505.402 292.03 500.843 273.65 495.675C253.63 490.049 233.77 483.698 214.11 476.636C192.86 469 171.84 460.525 151.1 451.212C128.93 441.268 107.09 430.359 85.6302 418.531C65.2902 407.323 45.2902 395.289 25.6902 382.462C23.3902 380.958 21.1002 379.442 18.8102 377.915C16.0202 376.054 13.5002 381.015 16.2902 382.876Z" fill="url(#paint7_linear_344_7688)"/>
<path d="M344.61 520.961C347.564 520.961 349.96 518.211 349.96 514.818C349.96 511.425 347.564 508.674 344.61 508.674C341.655 508.674 339.26 511.425 339.26 514.818C339.26 518.211 341.655 520.961 344.61 520.961Z" fill="url(#paint8_linear_344_7688)"/>
<path d="M-1.17002 370.347C1.78471 370.347 4.17998 367.597 4.17998 364.204C4.17998 360.811 1.78471 358.06 -1.17002 358.06C-4.12474 358.06 -6.52002 360.811 -6.52002 364.204C-6.52002 367.597 -4.12474 370.347 -1.17002 370.347Z" fill="url(#paint9_linear_344_7688)"/>
<path d="M372.55 112.399C367.64 124.56 361.74 136.193 354.92 147.079C348.42 157.46 341.13 167.795 332.47 175.902C330.34 177.9 328.06 179.691 325.67 181.253C324.72 181.873 323.75 182.436 322.77 182.987C322.17 183.331 323.07 182.872 322.36 183.194C322.01 183.343 321.67 183.504 321.32 183.641C317.14 185.329 312.7 186.076 308.27 185.961C299.92 185.731 290.4 182.252 285.62 173.881C284.47 171.871 283.52 169.701 283.45 167.243C283.38 164.786 284.1 162.581 285.24 160.549C287.19 157.058 290.32 154.164 293.7 152.017C300.37 147.779 308.04 146.378 315.56 147.412C314.73 147.297 315.67 147.435 315.86 147.469C316.09 147.515 316.33 147.55 316.56 147.595C317.25 147.733 317.93 147.883 318.61 148.055C320.1 148.422 321.57 148.882 323.02 149.433C324.83 150.11 326.02 150.661 327.66 151.603C329.3 152.545 330.92 153.659 332.41 154.922C340.61 161.869 343.31 173.708 343.37 185.042C343.46 204.162 338.66 223.27 331.38 240.667C330.06 243.814 328.66 246.926 327.18 249.98C325.62 253.218 329.94 256.112 331.5 252.874C340.97 233.215 347.66 211.224 348.32 188.614C348.68 176.361 346.81 163.339 339.17 154.164C333.82 147.733 326.35 143.921 318.83 142.267C311.47 140.648 303.84 141.142 296.77 144.15C292.07 146.149 287.52 149.077 283.98 153.222C280.71 157.058 278.13 162.225 278.46 167.76C279.13 178.899 288.41 186.363 296.88 189.521C306.1 192.954 317.15 192.621 325.94 187.615C336.7 181.483 345.08 170.665 352.51 160.101C359.94 149.536 367.1 137.238 372.83 124.686C374.24 121.609 375.57 118.485 376.85 115.328C377.42 113.927 377.2 112.239 375.95 111.4C374.87 110.677 373.1 111.021 372.53 112.434L372.55 112.399Z" fill="#FCC3A0"/>
<path d="M8.24007 115.293C13.4301 128.154 19.7301 140.407 27.0401 151.833C34.1601 162.948 42.0701 174.087 51.7801 182.355C55.4801 185.502 59.5001 188.212 63.9301 189.727C68.9801 191.461 74.4301 192.093 79.6701 191.507C89.2101 190.428 99.0101 185.72 104.21 176.028C107.14 170.573 107.41 164.097 104.62 158.481C102.43 154.083 99.0401 150.627 95.3201 147.986C87.9001 142.726 78.7601 140.418 70.1101 141.578C63.3401 142.485 56.5401 144.862 50.8801 149.341C46.9901 152.418 43.6801 156.403 41.4001 161.18C38.4301 167.404 37.1501 174.455 36.8101 181.482C36.3801 190.256 37.2701 199.178 38.7501 207.779C40.8401 219.917 44.4801 231.664 49.0901 242.837C50.4901 246.236 52.0001 249.578 53.5801 252.862C55.1601 256.146 59.4601 253.207 57.9001 249.968C52.5201 238.795 48.1401 227.013 45.2701 214.669C43.3301 206.298 42.1501 198.42 41.8101 189.934C41.3801 179.45 42.2601 167.748 48.4801 159.446C53.2001 153.13 59.6601 149.731 66.5801 148.032C67.2001 147.882 67.8201 147.745 68.4401 147.618C68.7001 147.561 68.9701 147.515 69.2401 147.469C69.3801 147.446 69.5201 147.423 69.6601 147.4C70.3101 147.285 69.2001 147.458 69.6901 147.4C70.4001 147.32 71.1101 147.216 71.8201 147.159C76.2501 146.803 80.6701 147.389 84.9201 148.881C89.1701 150.374 93.4801 152.866 96.8201 156.426C99.4701 159.251 101.97 163.155 101.64 167.748C101.31 172.342 98.0101 176.832 94.8601 179.461C91.7101 182.091 88.9701 183.32 85.4801 184.468C80.2801 186.179 74.7101 186.455 69.3901 185.329C67.5001 184.927 65.6201 184.388 63.8101 183.653C63.4601 183.515 63.1101 183.366 62.7701 183.205C62.0801 182.895 62.9101 183.32 62.4301 183.044C61.3001 182.39 60.1801 181.758 59.0901 181.023C49.5101 174.627 41.9801 164.487 35.1701 154.635C27.9501 144.208 21.6401 132.92 16.3001 121.092C15.0101 118.233 13.7701 115.339 12.5901 112.411C12.0201 111.01 10.2601 110.654 9.17007 111.377C7.91007 112.215 7.70007 113.892 8.27007 115.304L8.24007 115.293Z" fill="#FCC3A0"/>
<path d="M155.34 299.599C156.6 287.553 159.44 272.924 166.55 270.937C167.21 270.753 168.2 270.719 168.2 270.719C169.11 270.604 169.82 270.535 170.11 270.512C170.19 270.512 170.23 270.512 170.24 270.501C176.53 269.915 189.98 269.892 216.9 269.869C217.18 269.869 218.04 269.869 218.45 270.489C218.8 271.017 218.67 271.752 218.65 271.844C218.45 273.303 218.41 324.346 218.45 399.125H186.9V299.886L155.35 299.599H155.34Z" fill="#F47B4A"/>
<path d="M113.33 334.497C114.99 395.909 155.49 443.002 200.06 439.649C241.26 436.537 275.7 391.086 277.07 334.497" stroke="#0E5E6A" stroke-width="5" stroke-miterlimit="10" stroke-linecap="round"/>
<path d="M274.47 365.249C282.82 359.622 291.29 353.88 298.13 345.498C304.97 337.115 310.07 325.574 309.86 313.391C309.84 312.323 309.76 311.186 309.24 310.359C308.34 308.912 306.59 309.107 305.25 309.785C302.03 311.427 299.67 314.998 297.51 318.501C288.98 332.338 281.49 347.232 275.15 362.918" fill="#B0DEDA"/>
<path d="M275.74 367.729C283.09 362.768 290.48 357.716 296.79 351.067C303.1 344.418 307.75 336.701 310.4 327.687C311.7 323.266 312.41 318.546 312.38 313.873C312.36 311.278 311.91 308.522 309.77 307.121C307.9 305.903 305.67 306.409 303.83 307.396C300.03 309.44 297.45 313.655 295.1 317.479C292.5 321.704 290.01 326.022 287.63 330.409C282.2 340.399 277.33 350.791 273.01 361.471C272.44 362.872 272.67 364.56 273.91 365.398C274.99 366.122 276.76 365.777 277.33 364.365C280.81 355.764 284.65 347.346 288.85 339.182C290.91 335.174 293.06 331.212 295.3 327.32C297.54 323.427 299.54 319.718 302.08 316.353C303.17 314.918 304.35 313.563 305.83 312.656C306.12 312.483 306.94 311.932 307.25 312.127C307.33 312.185 307.36 312.92 307.36 313.161C307.5 317.341 306.87 321.509 305.77 325.482C303.6 333.268 299.46 340.158 294.37 345.808C288.14 352.709 280.64 357.773 273.22 362.78C270.45 364.652 272.96 369.612 275.74 367.741V367.729Z" fill="#0E5E6A"/>
<path d="M274.47 303.319C282.82 297.693 291.29 291.951 298.13 283.568C304.97 275.185 310.07 263.645 309.86 251.461C309.84 250.393 309.76 249.256 309.24 248.43C308.34 246.983 306.59 247.178 305.25 247.855C302.03 249.497 299.67 253.069 297.51 256.571C288.98 270.408 281.49 285.302 275.15 300.988" fill="#B0DEDA"/>
<path d="M275.74 305.8C283.09 300.839 290.48 295.787 296.79 289.138C303.1 282.489 307.75 274.772 310.4 265.758C311.7 261.337 312.41 256.617 312.38 251.944C312.36 249.348 311.91 246.592 309.77 245.191C307.9 243.974 305.67 244.479 303.83 245.467C300.03 247.511 297.45 251.725 295.1 255.549C292.5 259.775 290.01 264.093 287.63 268.479C282.2 278.47 277.33 288.862 273.01 299.542C272.44 300.943 272.67 302.631 273.91 303.469C274.99 304.192 276.76 303.848 277.33 302.435C280.81 293.834 284.65 285.417 288.85 277.253C290.91 273.245 293.06 269.283 295.3 265.39C297.54 261.498 299.54 257.789 302.08 254.424C303.17 252.989 304.35 251.634 305.83 250.726C306.12 250.554 306.94 250.003 307.25 250.198C307.33 250.256 307.36 250.99 307.36 251.232C307.5 255.412 306.87 259.58 305.77 263.553C303.6 271.339 299.46 278.229 294.37 283.878C288.14 290.78 280.64 295.844 273.22 300.851C270.45 302.722 272.96 307.683 275.74 305.811V305.8Z" fill="#0E5E6A"/>
<path d="M266.14 268.801C271.53 262.669 276.99 256.422 280.76 248.533C284.53 240.644 286.46 230.746 284.23 221.536C284.04 220.732 283.78 219.883 283.25 219.366C282.32 218.47 281.02 219.01 280.13 219.814C277.96 221.777 276.77 225.016 275.73 228.162C271.6 240.564 268.43 253.552 266.28 266.861" fill="#B0DEDA"/>
<path d="M267.91 270.834C272.67 265.414 277.41 259.913 281.1 253.448C284.79 246.983 287.18 239.588 287.61 231.86C287.82 228.082 287.57 223.982 286.53 220.365C286 218.516 285.03 216.794 283.31 216.219C281.59 215.645 279.73 216.495 278.35 217.781C275.87 220.112 274.58 223.626 273.45 226.968C272.15 230.803 270.97 234.684 269.88 238.6C267.36 247.603 265.37 256.801 263.85 266.091C263.6 267.618 264.22 269.192 265.6 269.628C266.82 270.007 268.43 269.157 268.68 267.618C269.87 260.281 271.37 253 273.19 245.835C274.07 242.367 275.02 238.922 276.05 235.511C276.99 232.399 277.88 229.184 279.12 226.21C279.64 224.97 280.22 223.718 281.06 222.719C281.08 222.696 282.01 221.777 282.01 221.812C282.01 221.754 281.99 221.777 281.99 221.754C281.54 221.375 281.41 221.283 281.6 221.49C281.66 221.685 281.72 221.892 281.77 222.099C282.6 225.257 282.8 228.587 282.62 231.86C282.27 238.233 280.2 244.33 277.26 249.704C273.75 256.112 269.03 261.475 264.38 266.78C262.09 269.387 265.63 273.452 267.92 270.845L267.91 270.834Z" fill="#0E5E6A"/>
<path d="M251.79 245.433C255.56 237.865 259.37 230.183 261.18 221.421C262.99 212.66 262.54 202.531 258.26 194.344C257.89 193.632 257.44 192.885 256.81 192.552C255.71 191.978 254.58 192.885 253.91 193.942C252.28 196.503 251.88 199.982 251.6 203.335C250.5 216.552 250.45 230.034 251.47 243.527" fill="#B0DEDA"/>
<path d="M253.94 246.879C257.29 240.15 260.63 233.329 262.68 225.911C264.73 218.493 265.24 211.201 264.01 203.852C263.42 200.326 262.35 196.881 260.83 193.735C260.04 192.104 259.08 190.428 257.46 189.785C255.58 189.05 253.67 189.957 252.36 191.565C250.14 194.309 249.57 198.317 249.21 201.888C248.79 206.091 248.56 210.328 248.4 214.554C248.03 224.212 248.23 233.892 248.95 243.526C249.06 245.077 250.02 246.397 251.45 246.397C252.71 246.397 254.07 245.077 253.95 243.526C253.39 235.959 253.14 228.368 253.24 220.778C253.29 217.012 253.42 213.257 253.64 209.49C253.84 206.125 253.93 202.635 254.59 199.327C254.84 198.099 255.15 196.79 255.82 195.756C255.91 195.618 256.22 195.343 256.22 195.251C256.22 195.32 255.61 194.998 255.6 195.021C255.62 194.987 256.58 196.767 256.61 196.824C257.87 199.488 258.69 202.382 259.19 205.356C260.2 211.431 259.6 217.746 258.06 223.637C256.16 230.872 252.88 237.452 249.63 243.974C248.03 247.19 252.35 250.083 253.95 246.868L253.94 246.879Z" fill="#0E5E6A"/>
<path d="M232.64 218.906C235.52 213.13 238.43 207.262 239.81 200.568C241.19 193.884 240.85 186.145 237.58 179.886C237.29 179.335 236.96 178.772 236.47 178.52C235.63 178.083 234.77 178.772 234.25 179.588C233 181.54 232.7 184.204 232.49 186.753C231.65 196.847 231.61 207.136 232.39 217.448" fill="#B0DEDA"/>
<path d="M234.8 220.353C237.4 215.129 239.99 209.823 241.57 204.047C243.15 198.271 243.52 192.484 242.51 186.719C242.01 183.848 241.09 180.931 239.74 178.451C239.11 177.291 238.31 176.2 237.14 175.764C235.6 175.201 234 175.798 232.87 177.073C230.98 179.22 230.44 182.413 230.13 185.318C229.79 188.545 229.61 191.806 229.49 195.056C229.2 202.52 229.35 210.007 229.9 217.448C230.01 218.998 230.97 220.319 232.4 220.319C233.66 220.319 235.01 218.998 234.9 217.448C234.49 211.856 234.29 206.241 234.35 200.625C234.4 195.377 234.39 189.819 235.23 184.641C235.39 183.676 235.58 182.665 235.99 181.793C235.9 181.976 236.25 181.345 236.26 181.276L236.3 181.219C236.58 180.851 236.22 180.771 235.22 180.977C235.17 181.173 235.73 181.942 235.84 182.172C236.8 184.204 237.4 186.42 237.76 188.694C238.48 193.207 237.97 197.904 236.81 202.256C235.37 207.653 232.91 212.568 230.48 217.437C228.88 220.652 233.2 223.546 234.8 220.33V220.353Z" fill="#0E5E6A"/>
<path d="M258.02 403.258C267.37 401.777 276.85 400.238 285.52 395.484C294.19 390.73 302.09 382.244 305.18 370.715C305.45 369.704 305.68 368.602 305.42 367.591C304.97 365.835 303.27 365.214 301.84 365.249C298.38 365.329 295.2 367.603 292.23 369.911C280.51 379.006 269.46 389.559 259.29 401.387" fill="#B0DEDA"/>
<path d="M258.68 406.026C267.31 404.648 276.01 403.201 284.1 399.32C291.02 396.001 297.24 390.948 301.85 384.093C304.2 380.602 306.04 376.721 307.29 372.541C308.02 370.118 308.5 367.419 307.14 365.157C306.02 363.297 304.08 362.458 302.16 362.378C297.9 362.194 293.98 365.088 290.6 367.718C286.97 370.543 283.43 373.505 279.96 376.571C272.05 383.588 264.56 391.189 257.52 399.343C255.25 401.972 258.79 406.037 261.06 403.408C266.71 396.851 272.65 390.638 278.89 384.816C281.9 382.003 284.98 379.304 288.12 376.698C291.26 374.091 294.32 371.381 297.73 369.44C299.08 368.671 300.77 367.913 302.31 368.131C302.45 368.154 302.95 368.257 303 368.349C303.27 368.843 302.74 370.083 302.59 370.588C301.56 374.171 299.95 377.559 297.95 380.556C294.1 386.355 288.78 390.707 283.01 393.647C274.95 397.746 266.01 399.101 257.35 400.479C256.01 400.698 255.28 402.661 255.6 404.016C256 405.67 257.33 406.232 258.68 406.026Z" fill="#0E5E6A"/>
<path d="M237.31 424.732C245.94 429.601 254.72 434.516 264.05 436.112C273.38 437.719 283.52 435.595 290.7 427.706C291.33 427.017 291.96 426.213 292.13 425.18C292.43 423.365 291.21 421.723 289.97 420.805C286.96 418.6 283.33 418.462 279.87 418.496C266.2 418.623 252.55 420.449 239.15 423.951" fill="#B0DEDA"/>
<path d="M236.04 427.212C249.97 435.067 265.9 443.645 281.6 437.295C286.9 435.147 300 427.029 292.43 419.381C289.36 416.28 285.03 415.672 281.11 415.626C276.84 415.58 272.55 415.798 268.29 416.142C258.26 416.935 248.28 418.634 238.48 421.184C235.34 421.999 236.67 427.534 239.81 426.719C247.46 424.732 255.2 423.262 263 422.389C267 421.942 271.02 421.643 275.04 421.482C278.43 421.356 282.11 420.954 285.44 421.792C286.77 422.125 288.36 422.665 289.3 423.859C290.19 424.996 288.81 425.834 288.04 426.604C285.84 428.808 283.2 430.542 280.45 431.679C274.54 434.125 268.13 434.252 262.01 432.793C253.73 430.807 246.1 426.5 238.56 422.252C237.35 421.574 235.86 421.873 235.14 423.285C234.5 424.548 234.82 426.523 236.04 427.212Z" fill="#0E5E6A"/>
<path d="M216.96 436.617C223.13 445.827 229.41 455.162 237.3 461.823C245.19 468.483 255.04 472.226 264.14 469.115C264.94 468.839 265.77 468.471 266.28 467.633C267.15 466.163 266.6 464.004 265.78 462.477C263.79 458.803 260.56 456.655 257.43 454.76C245.06 447.25 232.13 441.268 218.87 436.95" fill="#B0DEDA"/>
<path d="M214.8 438.064C224.51 452.556 235.76 469.609 252.61 472.617C256.54 473.318 260.56 473.249 264.41 472.009C266.45 471.354 268.35 470.148 268.99 467.668C269.57 465.44 268.95 462.96 267.93 461.031C265.94 457.264 262.66 454.738 259.36 452.694C255.48 450.294 251.51 448.066 247.49 445.987C238.43 441.279 229.09 437.318 219.53 434.183C216.43 433.172 215.11 438.707 218.2 439.718C225.75 442.187 233.17 445.161 240.4 448.652C243.95 450.363 247.45 452.211 250.91 454.164C254.13 455.989 257.52 457.758 260.45 460.169C261.62 461.134 262.72 462.328 263.5 463.729C263.84 464.338 264.11 464.935 264.21 465.658C264.24 465.842 264.08 466.267 264.21 466.037C264.33 465.831 263.93 466.164 263.81 466.221C260.9 467.645 257.06 467.599 254 467.094C247.13 465.968 240.86 461.823 235.68 456.69C229.35 450.409 224.19 442.749 219.11 435.17C218.29 433.942 216.96 433.287 215.69 434.137C214.64 434.837 213.96 436.824 214.79 438.064H214.8Z" fill="#0E5E6A"/>
<path d="M117.32 368.843C108.97 363.216 100.5 357.475 93.6596 349.092C86.8196 340.709 81.7196 329.169 81.9296 316.985C81.9496 315.917 82.0296 314.78 82.5496 313.953C83.4496 312.506 85.1996 312.702 86.5396 313.379C89.7596 315.021 92.1196 318.592 94.2796 322.095C102.81 335.932 110.3 350.826 116.64 366.512" fill="#B0DEDA"/>
<path d="M118.58 366.363C105.95 357.854 92.5598 348.346 86.9198 331.959C85.6198 328.17 84.7098 324.162 84.4798 320.085C84.4398 319.419 84.0798 316.009 84.5498 315.699C84.7798 315.538 85.5498 315.997 85.7898 316.135C86.5398 316.56 87.2398 317.123 87.8598 317.754C90.6298 320.579 92.6398 324.346 94.7098 327.836C96.9898 331.683 99.1798 335.599 101.29 339.572C106.14 348.736 110.53 358.21 114.47 367.936C115.04 369.337 116.8 369.693 117.89 368.969C119.15 368.131 119.36 366.455 118.79 365.042C114.95 355.557 110.68 346.313 105.97 337.356C103.64 332.924 101.2 328.56 98.6498 324.288C96.2898 320.326 93.9498 315.974 90.6398 312.966C88.9998 311.473 87.1698 310.244 85.0498 310.014C82.9298 309.785 80.9298 311.037 80.0398 313.264C79.1498 315.492 79.3598 318.374 79.5298 320.797C79.6998 323.22 80.0298 325.551 80.5298 327.871C82.4998 337 86.9598 345.337 92.6498 352.032C99.3998 359.99 107.77 365.731 116.06 371.312C118.84 373.184 121.36 368.223 118.58 366.351V366.363Z" fill="#0E5E6A"/>
<path d="M133.78 406.853C124.43 405.371 114.95 403.833 106.28 399.079C97.6101 394.324 89.7101 385.838 86.6201 374.309C86.3501 373.299 86.1201 372.196 86.3801 371.186C86.8301 369.429 88.5301 368.809 89.9601 368.843C93.4201 368.924 96.6001 371.197 99.5701 373.505C111.29 382.6 122.34 393.153 132.51 404.981" fill="#B0DEDA"/>
<path d="M134.44 404.085C120.28 401.834 105.21 399.021 95.2301 386.091C93.1101 383.346 91.3501 380.2 90.0701 376.835C89.7701 376.043 89.5001 375.228 89.2601 374.401C89.1001 373.861 88.5001 372.483 88.7801 371.944C89.0901 371.346 91.0701 371.817 91.7201 372.012C95.2401 373.08 98.3401 375.963 101.27 378.328C104.44 380.878 107.55 383.53 110.59 386.286C117.67 392.705 124.38 399.641 130.73 407.002C133 409.632 136.53 405.567 134.27 402.937C128.03 395.702 121.44 388.87 114.49 382.543C111.06 379.419 107.57 376.399 103.99 373.517C100.41 370.634 96.9901 367.58 92.8601 366.42C90.8701 365.857 88.7301 365.72 86.8201 366.707C84.9101 367.695 83.6501 369.98 83.7701 372.472C83.8901 374.964 84.8301 377.306 85.6701 379.511C86.3901 381.383 87.2401 383.186 88.2101 384.908C92.2301 391.982 98.0801 397.655 104.68 401.352C113.59 406.347 123.38 408.047 133.1 409.597C134.44 409.815 135.78 409.23 136.18 407.588C136.5 406.244 135.78 404.269 134.43 404.051L134.44 404.085Z" fill="#0E5E6A"/>
<path d="M154.49 428.326C145.86 433.195 137.08 438.11 127.75 439.706C118.42 441.314 108.28 439.19 101.1 431.301C100.47 430.612 99.84 429.808 99.67 428.774C99.37 426.96 100.59 425.318 101.83 424.399C104.84 422.194 108.47 422.057 111.93 422.091C125.6 422.217 139.25 424.043 152.65 427.546" fill="#B0DEDA"/>
<path d="M153.23 425.846C141.09 432.678 127.37 440.453 113.54 436.077C110.5 435.113 107.66 433.574 105.11 431.45C104.2 430.692 102.81 429.681 102.27 428.544C101.78 427.499 103.54 426.523 104.21 426.179C107.18 424.629 110.7 424.939 113.87 424.996C117.89 425.077 121.91 425.306 125.91 425.685C134.69 426.512 143.4 428.085 151.99 430.313C155.12 431.128 156.46 425.593 153.32 424.778C144.61 422.516 135.77 420.931 126.87 420.035C122.54 419.599 118.21 419.335 113.86 419.243C109.79 419.163 105.64 419.117 101.86 421.103C98.08 423.09 95.5 428.108 98.55 432.368C100.81 435.515 104.23 437.972 107.44 439.614C114.19 443.059 121.6 443.725 128.85 442.393C138.37 440.648 147.17 435.63 155.74 430.795C156.95 430.118 157.28 428.131 156.64 426.868C155.92 425.444 154.44 425.157 153.22 425.834L153.23 425.846Z" fill="#0E5E6A"/>
<path d="M174.84 440.212C168.67 449.421 162.39 458.757 154.5 465.418C146.61 472.078 136.76 475.821 127.66 472.709C126.86 472.434 126.03 472.066 125.52 471.228C124.65 469.758 125.2 467.599 126.02 466.072C128.01 462.398 131.24 460.25 134.37 458.355C146.74 450.845 159.67 444.863 172.93 440.545" fill="#B0DEDA"/>
<path d="M172.68 438.765C164.17 451.465 154.58 466.164 140.27 470.126C137.17 470.987 133.86 471.262 130.71 470.596C129.86 470.413 128.97 470.217 128.15 469.873C127.94 469.781 127.73 469.735 127.55 469.563C127.7 469.712 127.51 469.793 127.58 469.299C127.78 467.783 128.71 466.508 129.63 465.463C131.94 462.799 135.06 461.157 137.94 459.458C141.5 457.368 145.1 455.393 148.76 453.544C156.82 449.479 165.13 446.08 173.6 443.312C176.69 442.302 175.38 436.755 172.27 437.777C163.76 440.568 155.44 444.013 147.31 448.055C143.28 450.053 139.32 452.212 135.41 454.508C131.98 456.529 128.33 458.573 125.69 461.892C123.05 465.211 120.75 471.102 124.77 474.34C126.3 475.569 128.38 475.993 130.19 476.304C132.15 476.648 134.12 476.786 136.11 476.637C144.33 476.028 151.84 471.641 158.16 465.785C165.52 458.975 171.28 450.214 177.01 441.67C177.83 440.441 177.17 438.455 176.11 437.743C174.82 436.882 173.52 437.536 172.69 438.776L172.68 438.765Z" fill="#0E5E6A"/>
<path d="M278.07 323.76C276.74 313.184 275.72 302.481 273.7 292.043C271.83 282.374 268.55 273.325 263.92 264.977C255.07 249.038 242.74 236.097 234.02 220.055C229.33 211.442 225.65 201.888 224.95 191.656C224.84 190.106 223.88 188.786 222.45 188.786C221.18 188.786 219.84 190.106 219.95 191.656C221.26 210.937 231.28 227.082 241.69 241.505C246.98 248.832 252.48 255.997 257.24 263.806C262.07 271.752 265.89 280.238 268.05 289.643C270.73 301.264 271.76 313.413 273.25 325.287C273.44 326.826 275.14 327.664 276.33 327.297C277.77 326.849 278.27 325.31 278.08 323.76H278.07Z" fill="#B0DEDA"/>
<path d="M116 303.32C107.65 297.693 99.1798 291.951 92.3398 283.569C85.4998 275.186 80.3998 263.645 80.6098 251.461C80.6298 250.393 80.7098 249.257 81.2298 248.43C82.1298 246.983 83.8798 247.178 85.2198 247.856C88.4398 249.498 90.7998 253.069 92.9598 256.571C101.49 270.409 108.98 285.302 115.32 300.989" fill="#B0DEDA"/>
<path d="M117.26 300.851C104.63 292.342 91.24 282.834 85.6 266.447C84.3 262.658 83.39 258.65 83.16 254.573C83.12 253.907 82.76 250.497 83.23 250.187C83.46 250.026 84.23 250.485 84.47 250.623C85.22 251.048 85.92 251.611 86.54 252.242C89.31 255.067 91.32 258.834 93.39 262.325C95.67 266.171 97.86 270.087 99.97 274.06C104.82 283.224 109.21 292.698 113.15 302.424C113.72 303.825 115.48 304.181 116.57 303.458C117.83 302.619 118.04 300.943 117.47 299.53C113.63 290.045 109.36 280.801 104.65 271.844C102.32 267.412 99.88 263.048 97.33 258.776C94.97 254.814 92.63 250.462 89.32 247.454C87.68 245.961 85.85 244.732 83.73 244.503C81.61 244.273 79.61 245.525 78.72 247.752C77.83 249.98 78.04 252.862 78.21 255.285C78.38 257.708 78.71 260.039 79.21 262.359C81.18 271.488 85.64 279.825 91.33 286.52C98.08 294.478 106.45 300.219 114.74 305.8C117.52 307.672 120.04 302.711 117.26 300.839V300.851Z" fill="#0E5E6A"/>
<path d="M124.33 268.801C118.94 262.669 113.48 256.422 109.71 248.533C105.94 240.644 104.01 230.745 106.24 221.536C106.43 220.732 106.69 219.882 107.22 219.365C108.15 218.47 109.45 219.009 110.34 219.813C112.51 221.777 113.7 225.015 114.74 228.162C118.87 240.563 122.04 253.551 124.19 266.86" fill="#B0DEDA"/>
<path d="M126.1 266.768C118.02 257.559 109.66 247.58 108.04 234.03C107.67 230.895 107.67 227.599 108.2 224.487C108.33 223.752 108.47 223.017 108.65 222.294C108.67 222.236 108.83 221.398 108.93 221.421C108.92 221.421 108.46 221.766 108.46 221.766C108.46 221.766 109.09 222.351 109.14 222.409C109.65 222.937 110.05 223.557 110.41 224.223C111.87 226.899 112.72 230.011 113.64 232.973C114.7 236.372 115.69 239.794 116.61 243.251C118.74 251.266 120.45 259.408 121.79 267.641C122.04 269.168 123.64 270.03 124.87 269.651C126.26 269.214 126.86 267.653 126.62 266.114C125.28 257.88 123.56 249.739 121.44 241.723C120.39 237.762 119.24 233.823 117.99 229.93C116.85 226.382 115.76 222.661 113.69 219.664C111.73 216.828 107.86 214.301 105.22 217.632C104.13 219.01 103.75 220.95 103.43 222.73C103.07 224.763 102.86 226.841 102.81 228.908C102.65 236.579 104.68 244.261 107.99 250.876C111.79 258.455 117.2 264.724 122.57 270.845C124.86 273.452 128.39 269.387 126.11 266.78L126.1 266.768Z" fill="#0E5E6A"/>
<path d="M138.69 245.433C134.92 237.865 131.11 230.183 129.3 221.421C127.49 212.659 127.94 202.531 132.22 194.344C132.59 193.632 133.04 192.885 133.67 192.552C134.77 191.978 135.9 192.885 136.57 193.942C138.2 196.502 138.6 199.982 138.88 203.335C139.98 216.552 140.03 230.033 139.01 243.526" fill="#B0DEDA"/>
<path d="M140.85 243.986C135.25 232.744 129.68 220.835 131 207.435C131.28 204.564 131.93 201.658 132.93 199.006C133.18 198.34 133.46 197.697 133.76 197.054C134 196.525 134.49 195.905 134.62 195.331L134.87 195.033C134.69 195.205 134.5 195.274 134.3 195.228C134.23 195.343 134.26 195.193 134.57 195.63C134.88 196.066 135.1 196.606 135.29 197.1C136.4 200.028 136.42 203.565 136.64 206.688C136.9 210.432 137.08 214.187 137.17 217.942C137.38 226.474 137.15 235.017 136.52 243.526C136.41 245.077 137.75 246.397 139.02 246.397C140.47 246.397 141.4 245.077 141.52 243.526C142.16 234.925 142.39 226.29 142.17 217.666C142.06 213.44 141.85 209.226 141.53 205.012C141.24 201.165 141 197.111 139.37 193.643C137.74 190.175 133.91 187.833 131.09 191.266C130.04 192.541 129.33 194.298 128.71 195.882C127.99 197.708 127.38 199.58 126.93 201.521C125.3 208.583 125.53 216.139 127.12 223.19C129.03 231.653 132.79 239.346 136.54 246.879C138.14 250.083 142.46 247.201 140.86 243.986H140.85Z" fill="#0E5E6A"/>
<path d="M157.84 218.906C154.96 213.13 152.05 207.262 150.67 200.567C149.29 193.884 149.63 186.144 152.9 179.886C153.19 179.335 153.52 178.772 154.01 178.52C154.85 178.083 155.71 178.772 156.23 179.588C157.48 181.54 157.78 184.204 157.99 186.753C158.83 196.847 158.87 207.136 158.09 217.448" fill="#B0DEDA"/>
<path d="M160 217.448C155.82 209.054 151.71 200.292 152.53 190.302C152.71 188.131 153.19 185.926 153.91 183.917C154.05 183.526 155.34 181.264 155.24 181.012C155.26 181.081 154.19 181.069 154.14 181.172C154.14 181.172 154.29 181.448 154.29 181.414C154.35 181.838 154.74 182.367 154.86 182.803C155.52 185.123 155.57 187.66 155.73 190.072C155.91 192.839 156.03 195.618 156.09 198.397C156.23 204.759 156.05 211.121 155.58 217.448C155.47 218.998 156.81 220.319 158.08 220.319C159.53 220.319 160.47 218.998 160.58 217.448C161.07 210.834 161.24 204.196 161.07 197.559C160.98 194.321 160.82 191.082 160.57 187.856C160.33 184.813 160.13 181.62 158.8 178.899C157.37 175.948 154.1 174.179 151.72 176.924C150.04 178.864 149.06 182.057 148.42 184.629C147.02 190.198 147.15 196.238 148.37 201.831C149.81 208.457 152.75 214.474 155.68 220.353C157.28 223.557 161.6 220.675 160 217.459V217.448Z" fill="#0E5E6A"/>
<path d="M117.23 325.287C118.56 314.711 119.58 304.009 121.6 293.57C123.47 283.924 126.75 275.117 131.46 266.849C140.54 250.899 152.98 237.865 161.56 221.513C166.35 212.384 169.81 202.359 170.54 191.656C170.65 190.106 169.32 188.786 168.04 188.786C166.6 188.786 165.65 190.106 165.54 191.656C164.28 210.202 153.76 225.785 143.75 239.53C138.44 246.833 133.01 254.056 128.32 261.922C123.63 269.788 119.72 278.837 117.55 288.38C114.92 299.932 113.89 311.966 112.41 323.76C112.22 325.287 112.74 326.849 114.16 327.297C115.33 327.664 117.04 326.837 117.24 325.287H117.23Z" fill="#B0DEDA"/>
<rect x="-151" y="-32" width="683" height="125" fill="white"/>
<rect x="-12" y="563" width="409" height="249" fill="#0E5E6A"/>
<defs>
<linearGradient id="paint0_linear_344_7688" x1="-5.63997" y1="479.53" x2="84.86" y2="479.53" gradientUnits="userSpaceOnUse">
<stop stop-color="#F47B4A"/>
<stop offset="1" stop-color="#F4C1D8"/>
</linearGradient>
<linearGradient id="paint1_linear_344_7688" x1="275.49" y1="320.659" x2="417.62" y2="320.659" gradientUnits="userSpaceOnUse">
<stop stop-color="#F47B4A"/>
<stop offset="1" stop-color="#F4C1D8"/>
</linearGradient>
<linearGradient id="paint2_linear_344_7688" x1="69.9399" y1="443.381" x2="371.34" y2="443.381" gradientUnits="userSpaceOnUse">
<stop stop-color="#F47B4A"/>
<stop offset="1" stop-color="#F4C1D8"/>
</linearGradient>
<linearGradient id="paint3_linear_344_7688" x1="378.811" y1="353.542" x2="389.445" y2="352.111" gradientUnits="userSpaceOnUse">
<stop stop-color="#F47B4A"/>
<stop offset="1" stop-color="#F4C1D8"/>
</linearGradient>
<linearGradient id="paint4_linear_344_7688" x1="41.5591" y1="527.799" x2="52.2034" y2="526.366" gradientUnits="userSpaceOnUse">
<stop stop-color="#F47B4A"/>
<stop offset="1" stop-color="#F4C1D8"/>
</linearGradient>
<linearGradient id="paint5_linear_344_7688" x1="-33.99" y1="329.455" x2="84.66" y2="329.455" gradientUnits="userSpaceOnUse">
<stop stop-color="#F47B4A"/>
<stop offset="1" stop-color="#F4C1D8"/>
</linearGradient>
<linearGradient id="paint6_linear_344_7688" x1="281.01" y1="462.512" x2="395.43" y2="462.512" gradientUnits="userSpaceOnUse">
<stop stop-color="#F47B4A"/>
<stop offset="1" stop-color="#F4C1D8"/>
</linearGradient>
<linearGradient id="paint7_linear_344_7688" x1="17.3102" y1="446.229" x2="328.6" y2="446.229" gradientUnits="userSpaceOnUse">
<stop stop-color="#F47B4A"/>
<stop offset="1" stop-color="#F4C1D8"/>
</linearGradient>
<linearGradient id="paint8_linear_344_7688" x1="340.278" y1="511.183" x2="349.715" y2="517.2" gradientUnits="userSpaceOnUse">
<stop stop-color="#F47B4A"/>
<stop offset="1" stop-color="#F4C1D8"/>
</linearGradient>
<linearGradient id="paint9_linear_344_7688" x1="-5.49754" y1="360.557" x2="3.93976" y2="366.574" gradientUnits="userSpaceOnUse">
<stop stop-color="#F47B4A"/>
<stop offset="1" stop-color="#F4C1D8"/>
</linearGradient>
</defs>
</svg>
