<svg width="16" height="15" viewBox="0 0 16 15" fill="none" xmlns="http://www.w3.org/2000/svg">
<path d="M12.9897 3.61387C12.9909 3.15272 12.8445 2.7029 12.5725 2.33057C12.3004 1.95839 11.9162 1.68299 11.4766 1.5441C11.0369 1.40524 10.5643 1.40978 10.1278 1.55819C9.69116 1.70663 9.3135 1.99117 9.04955 2.36933L9.04885 2.37003L3.12002 10.8323H7.93821L8.18838 10.826C9.43703 10.7641 10.6222 10.2406 11.5104 9.35242C12.4576 8.40515 12.9896 7.12044 12.9897 5.78089V3.61387ZM10.8318 2.89435C11.2303 2.89435 11.5534 3.21743 11.5534 3.61598C11.5534 4.01447 11.2303 4.33762 10.8318 4.33762H10.8247C10.4262 4.33762 10.1032 4.01447 10.1031 3.61598C10.1031 3.21743 10.4262 2.89435 10.8247 2.89435H10.8318ZM14.4329 5.78089C14.4329 7.50335 13.7489 9.1556 12.5309 10.3736C11.3129 11.5915 9.66068 12.2756 7.93821 12.2756H2.10874L1.31311 13.4109C1.08441 13.7373 0.633871 13.8165 0.307467 13.5878C-0.0186441 13.359 -0.0980224 12.9092 0.130582 12.5829L1.12636 11.1607C1.134 11.149 1.14202 11.1375 1.15032 11.1262L7.86703 1.54198C8.30692 0.912299 8.9361 0.438976 9.66337 0.191734C10.391 -0.0556102 11.1786 -0.0636893 11.9114 0.167773C12.6443 0.399324 13.2846 0.85869 13.7381 1.47926C14.1912 2.09937 14.4346 2.84798 14.4329 3.61598V5.78089Z" fill="#0F5E6A"/>
<path d="M5.7733 13.7188V12.0634C5.30751 12.2023 4.82178 12.2755 4.33002 12.2755C3.93149 12.2755 3.60841 11.9524 3.60839 11.5539C3.60839 11.1553 3.93149 10.8322 4.33002 10.8322C5.07155 10.8322 5.79488 10.6034 6.40191 10.1775C7.00896 9.75163 7.4702 9.14895 7.72256 8.45166C7.9748 7.75456 8.00649 6.99669 7.81276 6.28112C7.61892 5.56537 7.20913 4.92628 6.6394 4.45166C6.33323 4.19661 6.29143 3.74166 6.54638 3.43545C6.80147 3.12923 7.25707 3.08804 7.56329 3.34313C8.36074 4.00754 8.93392 4.90152 9.2053 5.90338C9.47666 6.90536 9.43307 7.96673 9.07986 8.94285C8.72657 9.91899 8.08115 10.7631 7.23137 11.3593C7.21948 11.3677 7.20668 11.3751 7.19472 11.3833C7.20803 11.4381 7.21657 11.495 7.21657 11.5539V13.7188C7.21657 14.1173 6.89348 14.4404 6.49493 14.4404C6.09638 14.4404 5.7733 14.1173 5.7733 13.7188ZM8.65984 13.7188V11.3734C8.65984 10.9749 8.98293 10.6518 9.38148 10.6518C9.78003 10.6518 10.1031 10.9749 10.1031 11.3734V13.7188C10.1031 14.1173 9.78003 14.4404 9.38148 14.4404C8.98293 14.4404 8.65984 14.1173 8.65984 13.7188ZM13.0115 3.44108C13.1082 3.05449 13.4995 2.81951 13.8861 2.91606L15.3293 3.27688C15.6506 3.35719 15.8762 3.64554 15.8762 3.97667C15.8762 4.30781 15.6506 4.59615 15.3293 4.67646L13.8861 5.03728C13.4995 5.13383 13.1082 4.89886 13.0115 4.51226C12.9643 4.32325 12.9959 4.13305 13.0862 3.97667C12.9959 3.8203 12.9643 3.63009 13.0115 3.44108Z" fill="#0F5E6A"/>
</svg>
