<svg width="15" height="15" viewBox="0 0 15 15" fill="none" xmlns="http://www.w3.org/2000/svg">
<path d="M1.00662e-07 9.56883V5.94139C7.82539e-08 5.17334 -0.000347043 4.5502 0.0432784 4.0458C0.0877857 3.53141 0.181887 3.0736 0.410422 2.65007L0.412586 2.64647C0.777824 1.9788 1.3442 1.44313 2.03119 1.11586C2.4254 0.926123 2.84825 0.836981 3.32377 0.791271V0.738616C3.32377 0.33069 3.65446 0 4.06239 0C4.47031 0 4.801 0.33069 4.801 0.738616V0.741501C5.00975 0.740591 5.23134 0.738616 5.46605 0.738616H9.30627C9.54098 0.738616 9.76256 0.740591 9.97131 0.741501V0.738616C9.97131 0.33069 10.302 0 10.7099 0C11.1179 0 11.4485 0.33069 11.4485 0.738616V0.791271C11.9241 0.836981 12.3469 0.926123 12.7411 1.11586C13.433 1.44849 14.0012 1.98319 14.3612 2.64863L14.3619 2.65007C14.59 3.0739 14.6845 3.53129 14.729 4.0458C14.7727 4.5504 14.7723 5.17393 14.7723 5.94211V9.57027C14.7723 10.3383 14.7727 10.9615 14.729 11.4659C14.6845 11.9802 14.5904 12.4381 14.3619 12.8616L14.3597 12.8652C13.9939 13.534 13.4261 14.0701 12.7375 14.3972L12.7368 14.3965C12.304 14.6037 11.8374 14.6908 11.3036 14.7319C10.776 14.7726 10.122 14.7723 9.30627 14.7723H5.46605C4.65041 14.7723 3.99641 14.7727 3.46875 14.7319C2.93357 14.6906 2.46496 14.6038 2.03119 14.3951C1.34452 14.068 0.777904 13.5324 0.412586 12.8652L0.410422 12.8609C0.182289 12.437 0.0878019 11.9796 0.0432784 11.4651C-0.000365319 10.9605 6.84642e-08 10.337 1.00662e-07 9.56883ZM4.80028 2.21801C4.79911 2.62494 4.46959 2.95446 4.06239 2.95446C3.67536 2.95446 3.35817 2.65677 3.32666 2.27788C3.02706 2.31539 2.82993 2.37161 2.67243 2.44739L2.66883 2.44883C2.26266 2.64179 1.92681 2.9572 1.71021 3.35118C1.66094 3.4425 1.62062 3.55086 1.58687 3.69308H13.1854C13.1518 3.55131 13.1112 3.44346 13.0621 3.3519L12.9784 3.21125C12.7699 2.89061 12.4684 2.62424 12.1006 2.44739C11.943 2.37155 11.7449 2.31539 11.4449 2.27788C11.4134 2.65674 11.0969 2.95446 10.7099 2.95446C10.3027 2.95446 9.97248 2.62494 9.97131 2.21801C9.76864 2.21711 9.54774 2.21585 9.30627 2.21585H5.46605C5.22429 2.21585 5.00315 2.2171 4.80028 2.21801ZM1.47723 9.56883C1.47723 10.3627 1.47788 10.9113 1.51474 11.3375C1.55044 11.7502 1.61616 11.9823 1.70877 12.1561L1.79533 12.3004C1.97969 12.582 2.22772 12.8164 2.51952 12.9842L2.66883 13.0621L2.67243 13.0635C2.87086 13.159 3.13217 13.2243 3.582 13.259C4.03962 13.2944 4.62727 13.2951 5.46605 13.2951H9.30627C10.145 13.2951 10.7326 13.2943 11.1903 13.259C11.6403 13.2243 11.902 13.1596 12.1006 13.0643L12.1035 13.0628C12.5096 12.8699 12.8441 12.5537 13.0607 12.1598C13.1542 11.9865 13.2216 11.7549 13.2576 11.3389C13.2944 10.9129 13.2951 10.3642 13.2951 9.57027V5.94211C13.2951 5.65461 13.2933 5.3993 13.2915 5.17031H1.48084C1.47899 5.3991 1.47723 5.65418 1.47723 5.94139V9.56883Z" fill="#5CC6C1"/>
</svg>
