<svg width="22" height="21" viewBox="0 0 22 21" fill="none" xmlns="http://www.w3.org/2000/svg">
<path d="M11.9184 0.00529014C13.0069 0.0164481 14.061 0.0443779 15.0676 0.0879774L15.9182 0.126682C16.7334 0.167052 17.442 0.22024 18.0496 0.343076C18.9065 0.51633 19.6244 0.837526 20.2566 1.47431C21.513 2.73995 21.52 4.33869 21.5981 6.57189C21.6511 8.08019 21.6511 9.59028 21.5981 11.0986C21.5248 13.1926 21.5142 14.7286 20.4783 15.956L20.2566 16.1979C19.6247 16.8344 18.9063 17.1552 18.0496 17.3283C17.2396 17.4919 16.2497 17.5325 15.0676 17.5834C14.3316 17.6148 13.5722 17.6375 12.7901 17.6529C11.9865 17.6681 11.8098 17.6835 11.6695 17.7373C11.5249 17.7928 11.3843 17.8961 10.7951 18.4014L8.63378 20.2558L8.6329 20.2566C8.3969 20.4588 8.10763 20.5894 7.79987 20.6322C7.49218 20.675 7.17865 20.6284 6.89647 20.4985C6.61415 20.3685 6.37434 20.1604 6.20682 19.8986C6.03931 19.6368 5.95056 19.3316 5.95084 19.0207V17.5543C5.03809 17.5123 4.25306 17.4625 3.58898 17.3283C2.73211 17.155 2.01413 16.8338 1.38193 16.197C0.125579 14.9314 0.118563 13.3326 0.040464 11.0995L0.0105558 9.96735C0.00385474 9.59031 7.5003e-05 9.21322 0 8.83611C4.45893e-06 8.0625 0.0132351 7.30329 0.040464 6.57013C0.118521 4.33748 0.126117 2.73966 1.38193 1.47343L1.62384 1.24912C2.19623 0.758974 2.83939 0.493601 3.58898 0.342197C4.39895 0.178633 5.38891 0.138846 6.571 0.0879774C7.98609 0.0285677 9.40338 -0.000686754 10.8197 1.22332e-05L11.9184 0.00529014ZM1.8112 9.93568C1.81772 10.3023 1.82727 10.6688 1.84023 11.0352C1.92675 13.5087 2.00336 14.2653 2.66095 14.9277C2.98687 15.256 3.35344 15.443 3.94612 15.5628C4.58563 15.6921 5.41074 15.7303 6.64841 15.7836L6.88855 15.7933C7.37128 15.8131 7.75237 16.21 7.75237 16.6932V18.6381L9.62163 17.0345C10.1193 16.6076 10.5226 16.2479 11.0247 16.0554C11.5309 15.8613 12.091 15.8648 12.7549 15.8522L13.8906 15.8232C14.2631 15.8117 14.6296 15.799 14.9901 15.7836L15.8443 15.7449C16.6289 15.7057 17.2134 15.6597 17.6933 15.5628C18.2863 15.443 18.6524 15.2561 18.9776 14.9286C19.6353 14.2652 19.7118 13.509 19.7983 11.0361C19.8499 9.57004 19.8499 8.10131 19.7983 6.63523C19.7118 4.16166 19.6352 3.40601 18.9776 2.74365C18.6517 2.41538 18.2851 2.22837 17.6924 2.10854C17.0529 1.97926 16.2278 1.94101 14.9901 1.88774C13.6761 1.83083 12.2755 1.80154 10.8197 1.80154C9.42887 1.80085 8.03715 1.82852 6.64753 1.88687L6.64841 1.88774C5.41067 1.94101 4.585 1.97932 3.94524 2.10854C3.35228 2.22833 2.98612 2.41524 2.66095 2.74277L2.66007 2.74189C2.00241 3.40526 1.92673 4.16239 1.84023 6.63523V6.63698C1.81391 7.34573 1.80153 8.08167 1.80153 8.83523L1.8112 9.93568Z" fill="#5CC6C1"/>
<path d="M11.9027 6.85183C11.9026 6.56474 11.7881 6.28958 11.5851 6.08653C11.382 5.88344 11.1062 5.76898 10.8189 5.76898C10.5319 5.76908 10.2566 5.88353 10.0536 6.08653C9.85066 6.28959 9.73611 6.56472 9.73609 6.85183C9.73609 7.13904 9.85055 7.41491 10.0536 7.618C10.251 7.81527 10.5168 7.92671 10.7952 7.93292H10.8427C11.1214 7.9269 11.3876 7.81548 11.5851 7.618C11.7882 7.41491 11.9027 7.13904 11.9027 6.85183ZM13.7042 6.85183C13.7042 7.48226 13.4963 8.09071 13.121 8.58826C13.4068 8.76525 13.6721 8.97487 13.9109 9.21369C14.3169 9.61966 14.6395 10.1013 14.8592 10.6317C15.0789 11.162 15.1916 11.7307 15.1917 12.3048C15.1917 12.8022 14.7884 13.2055 14.2909 13.2056C13.7934 13.2056 13.3902 12.8023 13.3902 12.3048C13.3901 11.9673 13.3231 11.6331 13.194 11.3213C13.0648 11.0095 12.8758 10.7261 12.6372 10.4874C12.3985 10.2487 12.1152 10.0589 11.8033 9.92973C11.4986 9.80352 11.1723 9.73832 10.8427 9.73533C10.8349 9.73539 10.8267 9.73621 10.8189 9.73621C10.8107 9.7362 10.8025 9.7354 10.7943 9.73533C10.4653 9.73853 10.1397 9.80375 9.83549 9.92973C9.52359 10.0589 9.24029 10.2487 9.00158 10.4874C8.76287 10.7261 8.57307 11.0094 8.44388 11.3213C8.31476 11.6331 8.24864 11.9674 8.2486 12.3048C8.2486 12.8023 7.84531 13.2056 7.34783 13.2056C6.85036 13.2056 6.44707 12.8023 6.44707 12.3048C6.44712 11.7307 6.5599 11.162 6.77958 10.6317C6.9993 10.1013 7.32188 9.61966 7.72784 9.21369C7.96651 8.97502 8.23129 8.76518 8.51689 8.58826C8.14171 8.09078 7.93456 7.48211 7.93456 6.85183C7.93459 6.08685 8.23899 5.35284 8.77991 4.81191C9.32073 4.27125 10.0542 3.96755 10.8189 3.96745C11.5838 3.96745 12.3179 4.27112 12.8589 4.81191C13.3998 5.35284 13.7042 6.08685 13.7042 6.85183Z" fill="#5CC6C1"/>
</svg>
