<svg width="384" height="329" viewBox="0 0 384 329" fill="none" xmlns="http://www.w3.org/2000/svg">
<path d="M298.846 328.347C293.626 328.907 278.726 330.677 265.266 322.807C262.866 321.407 253.256 315.787 254.046 309.507C254.506 305.807 258.386 303.497 260.076 302.487C270.636 296.207 284.116 302.157 286.906 303.457C284.666 298.827 281.426 290.227 282.666 279.667C284.266 266.037 293.146 250.767 307.776 246.117C310.396 245.287 318.636 242.667 327.346 246.637C339.336 252.107 342.086 265.427 342.376 266.987C344.716 262.357 347.506 257.877 351.266 254.307C359.296 246.677 371.526 243.957 382.166 247.037C392.806 250.117 401.566 258.737 405.256 269.177C408.946 279.617 407.616 291.617 402.136 301.247C417.016 298.167 430.496 301.807 436.386 310.807C437.456 312.447 440.636 317.317 438.996 321.507C435.986 329.187 419.076 328.627 400.316 328.607C332.796 328.557 299.036 328.327 298.836 328.347H298.846Z" fill="#B0DEDA"/>
<path d="M-31.7356 65.4711C-49.321 63.6144 -58.9095 62.2337 -66.7252 55.1319C-68.3719 53.6322 -74.0446 48.4745 -72.8313 43.8088C-72.3428 41.9361 -70.7198 40.0556 -66.158 38.1591C-47.9265 30.5813 -17.7114 37.7624 -15.1429 37.9925C-14.7805 38.0242 -14.4102 38.056 -14.0557 37.9528C-12.3854 37.4608 -12.8896 34.9851 -13.5829 33.3823C-18.3575 22.3845 -14.1738 8.22065 -4.21507 1.63466C-2.89932 0.761818 -1.42599 -0.00787411 0.157639 6.0816e-05C1.45763 6.0816e-05 2.6946 0.539639 3.86854 1.11889C13.9534 6.10202 21.9582 15.1954 25.6533 25.8758C30.7273 20.2421 38.5509 17.6156 46.0987 17.814C53.6466 18.0123 60.9423 20.7816 67.4896 24.5666C71.8544 27.0899 76.1169 30.248 78.3623 34.7868C80.6078 39.3255 80.2138 45.4989 76.3217 48.7046C84.3502 49.0062 92.3235 50.855 99.6744 54.1242C101.723 55.0367 104.023 56.5205 104 58.782C103.968 61.1783 99.7689 62.7494 98.2562 63.3366C75.9829 71.8746 -2.63932 68.2245 -2.63932 68.2245C-8.30415 67.9627 -16.112 67.1375 -31.7356 65.487V65.4711Z" fill="#B0DEDA"/>
<path d="M282.207 211.273C313.669 167.26 306.213 107.947 265.553 78.7925C224.894 49.6383 166.428 61.6837 134.966 105.697C103.505 149.709 110.961 209.023 151.621 238.177C192.28 267.331 250.746 255.286 282.207 211.273Z" fill="#0E5E6A"/>
<path d="M280.711 89.9578C291.588 74.764 289.01 54.288 274.952 44.2235C260.894 34.159 240.68 38.3171 229.802 53.5109C218.925 68.7047 221.503 89.1806 235.561 99.2452C249.619 109.31 269.833 105.152 280.711 89.9578Z" fill="#0E5E6A"/>
<path d="M271.463 41.3921C257.976 31.7326 238.199 36.2509 227.294 51.4869C216.388 66.723 218.482 86.8976 231.969 96.557C245.457 106.217 265.241 101.698 276.146 86.4622C287.052 71.2262 284.958 51.0516 271.463 41.3921Z" fill="#B0DEDA"/>
<path d="M264.992 78.4822C270.762 70.4235 269.655 59.7496 262.519 54.6413C255.384 49.533 244.923 51.9248 239.154 59.9835C233.384 68.0421 234.491 78.716 241.626 83.8243C248.762 88.9326 259.223 86.5408 264.992 78.4822Z" fill="#0E5E6A"/>
<path d="M255.456 70.5891C216.437 42.6175 159.241 55.7075 127.7 99.8322C96.1593 143.957 102.224 202.402 141.237 230.38C180.257 258.351 237.453 245.261 268.988 201.137C300.529 157.012 294.464 98.5665 255.45 70.5891H255.456ZM251.377 188.503C228.157 220.989 186.05 230.628 157.325 210.031C128.6 189.434 124.14 146.407 147.36 113.922C170.58 81.4368 212.686 71.797 241.411 92.3943C270.136 112.992 274.597 156.018 251.377 188.503Z" fill="#B0DEDA"/>
<path d="M251.376 188.515C274.597 156.03 270.136 113 241.412 92.4036C212.688 71.8075 170.578 81.4451 147.357 113.93C124.136 146.415 128.597 189.445 157.321 210.041C186.045 230.637 228.155 221 251.376 188.515Z" fill="#0E5E6A"/>
<path d="M247.27 187.117C268.309 157.684 265.373 119.489 240.712 101.807C216.051 84.1239 179.004 93.6492 157.964 123.082C136.925 152.515 139.861 190.709 164.522 208.392C189.183 226.075 226.23 216.55 247.27 187.117Z" fill="#FFF5E7"/>
<path d="M206.663 154.335C208.492 151.162 207.758 147.307 205.023 145.726C202.288 144.144 198.588 145.435 196.758 148.608C194.929 151.781 195.664 155.636 198.399 157.217C201.134 158.799 204.834 157.508 206.663 154.335Z" fill="#B0DEDA" stroke="#0E5E6A" stroke-width="5" stroke-miterlimit="10"/>
<path d="M215.052 142.391C215.213 142.449 215.64 142.599 215.975 142.397C216.246 142.235 216.321 141.911 216.35 141.83C217.966 137.825 219.587 133.814 221.203 129.809C223.24 124.758 223.315 125.29 225.294 119.239C226.246 116.326 226.898 113.87 227.308 112.2C227.314 112.102 227.308 111.975 227.244 111.94C227.175 111.905 227.071 111.986 227.048 112.004C218.202 118.505 210.314 126.226 201.745 133.098C201.503 133.289 200.585 133.994 200.712 134.693C200.776 135.04 201.07 135.277 201.289 135.415C208.739 139.305 214.273 142.119 215.046 142.391H215.052Z" fill="#F47B4A"/>
<path d="M214.671 143.784C215.329 144.003 216.091 144.003 216.708 143.645C217.268 143.315 217.522 142.79 217.747 142.217C218.318 140.79 218.895 139.368 219.472 137.941C220.615 135.109 221.746 132.271 222.905 129.445C224.238 126.197 225.629 122.886 226.737 119.488C227.21 118.031 227.649 116.569 228.053 115.095C228.364 113.957 229.114 112.321 228.497 111.212C228.272 110.807 227.735 110.443 227.25 110.495C226.212 110.605 225.421 111.426 224.613 112.038C223.736 112.709 222.865 113.385 221.999 114.072C220.361 115.379 218.745 116.714 217.141 118.072C213.904 120.817 210.724 123.631 207.516 126.4C205.958 127.74 204.394 129.075 202.813 130.382C201.59 131.393 199.426 132.583 199.293 134.369C199.224 135.346 199.766 136.149 200.574 136.658C201.497 137.236 202.542 137.681 203.505 138.184C205.185 139.056 206.87 139.929 208.56 140.79C210.551 141.807 212.565 143.009 214.677 143.778C215.41 144.044 216.258 143.477 216.454 142.766C216.673 141.963 216.183 141.258 215.444 140.986C215.162 140.882 215.537 141.027 215.542 141.033C215.467 140.963 215.306 140.929 215.214 140.882C214.89 140.732 214.573 140.582 214.256 140.426C213.304 139.958 212.357 139.484 211.411 139.004C208.358 137.455 205.335 135.843 202.282 134.294C201.907 134.103 202.034 134.092 202.155 134.525C202.259 134.901 201.947 134.803 202.184 134.647C202.34 134.543 202.536 134.311 202.709 134.167C203.419 133.577 204.14 133.011 204.85 132.422C206.298 131.225 207.724 130.012 209.149 128.792C212.063 126.284 214.937 123.741 217.856 121.245C219.484 119.852 221.122 118.47 222.79 117.124C224.458 115.777 226.079 114.327 227.868 113.2L227.141 113.396L227.256 113.385L226.01 112.668L226.068 112.778L225.871 112.05C225.871 111.871 225.802 112.321 225.785 112.396C225.733 112.605 225.681 112.818 225.623 113.026C225.491 113.535 225.358 114.038 225.214 114.546C224.902 115.679 224.567 116.8 224.215 117.921C223.621 119.8 223.004 121.678 222.294 123.516C222.184 123.793 222.074 124.071 221.959 124.348C221.93 124.423 221.792 124.758 221.844 124.625C221.896 124.504 221.74 124.868 221.699 124.961C221.428 125.585 221.157 126.215 220.892 126.839C219.945 129.07 219.051 131.324 218.145 133.572C217.568 134.999 216.997 136.421 216.42 137.848C216.131 138.559 215.842 139.276 215.554 139.987C215.41 140.345 215.265 140.697 215.121 141.056C215.075 141.177 214.977 141.327 214.96 141.455C214.925 141.68 214.96 141.374 214.954 141.379L215.589 141.01C215.462 141.062 215.71 141.096 215.433 141.004C213.667 140.42 212.911 143.206 214.665 143.789L214.671 143.784Z" fill="#CB4027"/>
<path d="M197.291 165.996C204.402 164.082 209.602 162.702 210.309 162.533C210.473 162.491 210.869 162.395 211.106 162.607C211.249 162.739 211.291 162.945 211.323 163.136C213.075 173.725 214.717 184.331 216.253 194.953C216.322 195.428 216.343 196.026 215.936 196.28C215.662 196.454 215.324 196.396 215.192 196.369C212.885 195.883 210.985 191.997 210.985 191.997C208.118 186.134 197.524 167.027 197.17 166.593C197.154 166.572 197.038 166.445 197.059 166.297C197.075 166.176 197.17 166.08 197.297 166.001L197.291 165.996Z" fill="#B0DEDA"/>
<path d="M197.64 167.27C200.691 166.45 203.737 165.631 206.788 164.822C207.696 164.579 208.604 164.341 209.517 164.103C209.792 164.029 210.061 163.96 210.335 163.891C210.409 163.87 210.488 163.854 210.562 163.833C210.858 163.754 210.647 163.886 210.436 163.754L209.961 163.278C210.129 163.506 210.124 163.965 210.172 164.267C210.251 164.743 210.33 165.213 210.404 165.689C210.552 166.593 210.7 167.497 210.847 168.401C211.143 170.209 211.433 172.018 211.718 173.831C212.294 177.453 212.853 181.074 213.402 184.696C213.677 186.509 213.946 188.317 214.215 190.131C214.347 191.035 214.485 191.944 214.616 192.848C214.68 193.282 214.743 193.71 214.807 194.144C214.849 194.434 214.807 195.042 214.965 195.291C215.123 195.539 214.754 195.455 215.118 195.254C214.97 195.333 215.461 194.995 215.535 195.1C215.44 194.974 215.107 194.968 215.007 194.905C214.59 194.651 214.305 194.418 213.93 194.017C213.328 193.377 212.864 192.684 212.399 191.87C211.813 190.839 211.317 189.75 210.773 188.698C209.902 187.027 209.016 185.362 208.124 183.702C206.123 179.98 204.09 176.268 202.048 172.573C201.177 170.997 200.3 169.416 199.413 167.846C199.155 167.386 198.891 166.921 198.622 166.461C198.548 166.329 198.474 166.197 198.389 166.07C198.305 165.943 198.009 165.404 198.205 165.768L198.384 166.434L198.368 166.297L198.189 166.963L198.22 166.931C198.769 166.472 198.696 165.536 198.22 165.06C197.677 164.515 196.901 164.6 196.352 165.06C195.898 165.441 195.655 166.022 195.771 166.609C195.84 166.953 195.977 167.196 196.188 167.476C196.331 167.661 196.024 167.212 196.046 167.291C196.072 167.391 196.183 167.513 196.236 167.603C196.531 168.1 196.811 168.602 197.096 169.104C198.136 170.939 199.155 172.784 200.179 174.635C202.781 179.351 205.373 184.077 207.881 188.841C208.657 190.316 209.348 191.844 210.177 193.287C210.842 194.445 211.66 195.608 212.684 196.47C213.93 197.522 216.253 198.558 217.319 196.671C217.868 195.703 217.504 194.466 217.356 193.44C217.187 192.277 217.018 191.109 216.844 189.946C216.501 187.614 216.153 185.288 215.794 182.956C215.076 178.256 214.342 173.556 213.582 168.861C213.392 167.698 213.207 166.535 213.017 165.372C212.927 164.811 212.832 164.251 212.743 163.691C212.642 163.077 212.6 162.464 212.246 161.941C211.486 160.809 210.166 161.2 209.084 161.481C206.123 162.252 203.167 163.051 200.211 163.844C199.123 164.135 198.03 164.431 196.943 164.722C195.306 165.16 195.998 167.714 197.645 167.27H197.64Z" fill="#0E5E6A"/>
<path d="M233.101 106.646C234.619 104.219 236.217 101.838 237.896 99.5201C238.341 98.9075 238.023 97.8846 237.377 97.5436C236.627 97.1506 235.877 97.4049 235.404 98.0637C233.724 100.387 232.126 102.762 230.608 105.19C230.21 105.831 230.453 106.808 231.128 107.166C231.837 107.542 232.674 107.334 233.101 106.646Z" fill="#0E5E6A"/>
<path d="M168.179 211.944C169.697 209.517 171.295 207.136 172.975 204.818C173.419 204.206 173.101 203.183 172.455 202.842C171.705 202.449 170.955 202.703 170.482 203.362C168.803 205.685 167.204 208.06 165.687 210.488C165.288 211.129 165.531 212.106 166.206 212.464C166.916 212.84 167.752 212.632 168.179 211.944Z" fill="#0E5E6A"/>
<path d="M162.323 126.787C159.603 125.895 156.908 124.914 154.256 123.839C153.554 123.554 152.637 124.108 152.461 124.817C152.259 125.639 152.686 126.307 153.439 126.608C156.097 127.682 158.786 128.664 161.506 129.556C162.225 129.789 163.115 129.32 163.301 128.578C163.495 127.799 163.093 127.037 162.323 126.787Z" fill="#0E5E6A"/>
<path d="M252.596 180.387C249.876 179.496 247.181 178.514 244.529 177.439C243.828 177.155 242.911 177.708 242.735 178.417C242.533 179.24 242.959 179.907 243.712 180.209C246.37 181.282 249.06 182.265 251.78 183.156C252.498 183.389 253.388 182.92 253.574 182.179C253.769 181.4 253.366 180.637 252.596 180.387Z" fill="#0E5E6A"/>
<path d="M76.1604 104.673C79.5765 110.648 82.4097 116.936 84.5967 123.467C85.6931 126.749 86.6337 130.084 87.4069 133.453C88.1801 136.823 88.8264 140.521 88.8033 144.133C88.7918 146.347 88.5552 148.497 87.8281 150.589C87.1011 152.681 86.0047 154.698 84.6083 156.513C81.6423 160.367 76.9567 163.656 71.9192 163.401C70.6786 163.338 69.438 163.026 68.4397 162.228C67.9319 161.824 67.5222 161.321 67.1933 160.766C66.8932 160.252 66.7547 159.934 66.5989 159.495C65.8488 157.403 65.7622 155.368 66.0161 153.12C66.4835 148.93 68.4108 144.873 71.2614 141.787C73.9331 138.897 77.176 136.563 81.0826 135.568C86.876 134.101 92.4675 136.719 97.0607 140.111C97.3262 140.307 97.5916 140.51 97.857 140.712C97.5858 140.504 98.0532 140.862 98.1225 140.92C98.3187 141.076 98.5091 141.226 98.7053 141.388C99.3746 141.931 100.027 142.492 100.667 143.064C102.289 144.515 103.829 146.052 105.284 147.67C109.08 151.866 112.3 156.553 115.035 161.506C115.872 163.02 116.657 164.557 117.407 166.112C117.748 166.817 118.746 167.002 119.381 166.632C120.096 166.21 120.235 165.361 119.9 164.655C115.168 154.808 108.63 145.515 99.9748 138.736C95.2661 135.043 89.5996 131.824 83.408 132.292C78.4397 132.667 73.9446 135.175 70.3785 138.574C67.1817 141.619 64.8274 145.503 63.7253 149.797C62.4731 154.64 62.45 161.338 66.8701 164.661C69.4553 166.603 73.1195 166.661 76.1374 165.869C78.5436 165.239 80.7133 163.979 82.6752 162.477C86.7606 159.339 89.9343 154.669 91.1288 149.618C91.8847 146.428 91.8039 142.995 91.4288 139.764C90.9903 135.956 90.1363 132.199 89.1265 128.506C87.1934 121.421 84.5217 114.526 81.2037 107.978C80.3901 106.377 79.5361 104.8 78.6475 103.239C77.7588 101.679 75.2314 103.078 76.1547 104.696L76.1604 104.673Z" fill="#FCC3A0"/>
</svg>
