<svg width="384" height="475" viewBox="0 0 384 475" fill="none" xmlns="http://www.w3.org/2000/svg">
<path d="M343.371 28.2643C384.51 18.4781 434.452 72.7855 456.606 116.928C481.631 166.787 490.335 241.771 457.032 265.894C446.731 273.353 438.638 276.143 399.207 269.741C342.429 260.528 283.578 267.326 227.437 254.866C213.946 251.874 197.972 244.352 198.056 230.568C198.101 223.683 202.414 217.63 206.535 212.085C229.469 181.203 249.366 148.025 273.939 118.418C328.697 52.4525 320.368 33.7267 343.381 28.2512L343.371 28.2643Z" fill="#FFF5E7"/>
<path d="M25.3896 446.125C-15.7641 455.88 -65.8138 401.33 -88.0555 357.023C-113.171 306.973 -121.991 231.747 -88.7009 207.599C-78.4038 200.132 -70.3088 197.345 -30.841 203.825C25.991 213.15 84.8734 206.417 141.072 218.998C154.577 222.019 170.573 229.587 170.509 243.413C170.474 250.32 166.168 256.385 162.052 261.941C139.147 292.884 119.284 326.134 94.7384 355.797C40.0388 421.884 48.4013 440.679 25.3795 446.138L25.3896 446.125Z" fill="#FFF5E7"/>
<path d="M323.347 295.914C319.144 304.98 314.092 313.653 308.254 321.769C302.415 329.885 296.448 337.213 289.034 343.258C287.21 344.747 285.258 346.083 283.212 347.247C282.399 347.71 281.568 348.129 280.729 348.54C280.215 348.797 280.986 348.454 280.378 348.694C280.078 348.805 279.787 348.925 279.488 349.028C275.909 350.286 272.108 350.843 268.315 350.757C261.166 350.586 253.016 347.992 248.924 341.751C247.939 340.253 247.126 338.635 247.066 336.802C247.006 334.97 247.622 333.327 248.598 331.811C250.268 329.209 252.948 327.051 255.841 325.45C261.552 322.291 268.118 321.247 274.556 322.017C273.846 321.931 274.651 322.034 274.813 322.06C275.01 322.094 275.216 322.12 275.413 322.154C276.003 322.257 276.585 322.368 277.168 322.496C278.443 322.77 279.702 323.113 280.943 323.524C282.493 324.029 283.512 324.44 284.916 325.142C286.32 325.844 287.707 326.674 288.982 327.616C296.002 332.796 298.314 341.622 298.365 350.072C298.442 364.327 294.333 378.573 288.1 391.543C286.97 393.889 285.772 396.209 284.505 398.487C283.169 400.901 286.868 403.058 288.203 400.644C296.311 385.987 302.038 369.592 302.603 352.735C302.911 343.6 301.31 333.892 294.77 327.051C290.189 322.257 283.794 319.414 277.356 318.182C270.918 316.949 264.523 317.343 258.47 319.586C254.446 321.075 250.55 323.258 247.52 326.349C244.72 329.209 242.511 333.061 242.794 337.188C243.368 345.492 251.312 351.057 258.564 353.411C266.457 355.971 275.918 355.723 283.443 351.99C292.655 347.418 299.829 339.354 306.19 331.477C312.551 323.601 318.681 314.432 323.587 305.074C324.794 302.78 325.933 300.451 327.029 298.097C327.517 297.052 327.328 295.794 326.258 295.169C325.333 294.629 323.818 294.886 323.33 295.939L323.347 295.914Z" fill="#FCC3A0"/>
<path d="M73.2381 190.61C80.236 190.61 85.9088 184.937 85.9088 177.939C85.9088 170.941 80.236 165.268 73.2381 165.268C66.2403 165.268 60.5674 170.941 60.5674 177.939C60.5674 184.937 66.2403 190.61 73.2381 190.61Z" fill="#FFC97E"/>
<path d="M339.828 312.745C352.155 312.745 362.147 302.753 362.147 290.426C362.147 278.099 352.155 268.107 339.828 268.107C327.501 268.107 317.509 278.099 317.509 290.426C317.509 302.753 327.501 312.745 339.828 312.745Z" fill="#FFC97E"/>
<path d="M142.755 384.579C179.738 384.579 209.719 354.598 209.719 317.615C209.719 280.632 179.738 250.651 142.755 250.651C105.772 250.651 75.791 280.632 75.791 317.615C75.791 354.598 105.772 384.579 142.755 384.579Z" fill="#FCC3A0" stroke="#F68E76" stroke-width="5" stroke-miterlimit="10"/>
<path d="M218.613 259.14C221.232 262.637 228.76 272.71 225.233 281.934C223.499 286.475 219.483 288.869 211.445 293.665C202.671 298.896 197.928 301.733 192.013 300.57C185.176 299.219 181.213 293.387 178.774 289.8C177.783 288.336 169.354 275.915 174.135 266.368C175.163 264.311 175.869 264.258 184.635 257.226C195.961 248.137 196.329 246.981 199.068 246.583C208.21 245.255 216.496 256.333 218.605 259.155L218.613 259.14Z" fill="#FCC3A0" stroke="#F68E76" stroke-width="5" stroke-miterlimit="10"/>
<path d="M225.233 281.932C229.048 278.971 226.082 268.767 218.61 259.14C211.137 249.513 201.987 244.109 198.172 247.071C194.357 250.032 197.323 260.236 204.795 269.863C212.268 279.49 221.418 284.894 225.233 281.932Z" fill="#F68E76"/>
<path d="M125.35 415.337C122.04 415.337 112.508 415.314 108.44 406.953C106.436 402.84 106.767 398.187 107.435 388.887C108.155 378.733 108.545 373.231 111.908 369.208C115.796 364.547 121.132 364.877 124.42 365.087C125.756 365.17 137.126 365.883 140.834 375.438C141.63 377.494 141.352 378.095 141.727 389.323C142.223 403.838 142.763 404.822 141.78 407.253C138.507 415.359 128.015 415.344 125.35 415.337Z" fill="#FCC3A0" stroke="#F68E76" stroke-width="5" stroke-miterlimit="10"/>
<path d="M125.321 415.344C134.555 415.144 141.955 411.069 141.851 406.241C141.746 401.413 134.176 397.661 124.943 397.861C115.71 398.06 108.309 402.136 108.414 406.964C108.518 411.792 116.088 415.544 125.321 415.344Z" fill="#F68E76"/>
<path d="M206.559 388.332C203.752 390.081 195.661 395.124 187.78 390.193C183.9 387.769 181.716 383.649 177.348 375.415C172.574 366.423 169.992 361.552 170.698 356.358C171.524 350.347 176.222 347.795 179.119 346.226C180.298 345.588 190.317 340.162 198.521 346.294C200.292 347.615 200.367 348.275 206.642 357.589C214.755 369.636 215.739 370.184 216.196 372.766C217.72 381.374 208.818 386.921 206.552 388.332H206.559Z" fill="#FCC3A0" stroke="#F68E76" stroke-width="5" stroke-miterlimit="10"/>
<path d="M206.565 388.32C214.287 383.254 218.399 375.873 215.75 371.836C213.101 367.798 204.693 368.632 196.972 373.698C189.25 378.765 185.138 386.145 187.787 390.183C190.436 394.22 198.843 393.386 206.565 388.32Z" fill="#F68E76"/>
<path d="M121.409 266.638C121.409 262.96 119.525 259.402 116.718 257.031C113.911 254.659 110.248 253.413 106.578 253.18C104.214 253.03 101.849 253.285 99.4927 253.54C97.2785 253.781 95.0719 254.013 92.8578 254.254C92.6852 254.269 92.4975 254.299 92.3624 254.404C92.1222 254.599 92.1448 254.974 92.1973 255.282C93.0154 260.025 95.5973 264.288 98.5319 268.101C101.151 271.501 104.146 274.684 107.816 276.905C111.486 279.127 115.915 280.305 120.125 279.495" fill="#FCC3A0"/>
<path d="M123.285 266.638C123.21 261.256 119.968 256.415 115.345 253.796C112.89 252.407 110.158 251.649 107.366 251.364C104.372 251.056 101.362 251.454 98.3896 251.777C96.851 251.942 95.3199 252.107 93.7812 252.272C93.0307 252.355 92.2126 252.347 91.5371 252.722C90.794 253.143 90.3287 253.938 90.2987 254.794C90.2536 256.122 90.764 257.616 91.1843 258.862C91.6272 260.175 92.1826 261.459 92.813 262.69C94.0815 265.182 95.6951 267.471 97.4139 269.67C99.1327 271.869 100.919 273.888 103.006 275.667C107.899 279.862 114.129 282.452 120.636 281.288C121.634 281.108 122.197 279.892 121.949 278.977C121.664 277.926 120.643 277.483 119.638 277.663C113.311 278.797 107.396 275.066 103.208 270.683C101.024 268.394 99.0576 265.865 97.3914 263.17C96.5808 261.857 95.8227 260.483 95.2448 259.05C94.9671 258.359 94.7269 257.654 94.5168 256.941C94.3967 256.535 94.2916 256.122 94.2015 255.702C94.1565 255.492 94.1115 255.282 94.074 255.072C94.0289 254.914 93.9989 255.004 93.9914 255.327L93.3159 256.002C93.1208 256.122 93.2183 256.13 93.6011 256.025L94.1565 255.965C94.5843 255.92 95.0196 255.875 95.4475 255.83C96.183 255.747 96.9185 255.672 97.6616 255.59C99.2152 255.424 100.776 255.237 102.338 255.117C105.242 254.884 108.102 254.959 110.894 255.882C115.577 257.421 119.48 261.504 119.555 266.615C119.593 269.024 123.345 269.032 123.308 266.615L123.285 266.638Z" fill="#F68E76"/>
<path d="M152.254 280.769C153.748 279.789 153.84 277.289 152.459 275.185C151.079 273.081 148.749 272.17 147.255 273.15C145.762 274.131 145.67 276.63 147.05 278.734C148.43 280.838 150.76 281.749 152.254 280.769Z" fill="#606161"/>
<path d="M78.4928 330.72C76.2486 325.894 72.1206 321.06 66.2963 321.255C63.5793 321.345 61.1551 322.681 59.3312 324.655C57.5074 326.629 55.9312 329.181 55.1957 331.763C54.4601 334.345 54.903 337.362 57.0646 339.156C59.2261 340.95 62.2959 340.732 64.1648 338.616C68.3829 333.82 63.7069 327.56 60.2994 323.86C58.1904 321.563 55.6235 319.304 52.7339 318.065C49.2738 316.587 45.7913 317.435 42.3688 318.583C40.0946 319.349 41.0703 322.974 43.367 322.201C45.4761 321.495 47.8628 320.58 50.1145 321.12C52.1034 321.593 53.8522 322.967 55.3683 324.288C56.967 325.684 58.4231 327.26 59.6765 328.971C60.7798 330.487 62.2734 332.461 62.0933 334.458C62.0032 335.441 61.1701 336.987 59.9917 336.604C58.5206 336.131 58.4606 334.127 58.7758 332.926C59.2487 331.118 60.3445 329.286 61.5228 327.845C62.6111 326.517 64.0222 325.308 65.7785 325.053C70.4544 324.37 73.5692 328.978 75.2654 332.619C75.6932 333.534 77.0142 333.767 77.8323 333.294C78.778 332.746 78.9356 331.65 78.5078 330.727L78.4928 330.72Z" fill="#F68E76"/>
<path d="M100.719 235.668C81.8332 232.32 63.7089 225.223 47.5966 214.804C32.3403 204.933 17.5978 191.603 12.7606 173.436C10.4919 164.9 10.6032 155.637 14.1732 147.461C17.2724 140.363 22.5719 134.336 28.8131 129.816C44.1806 118.686 63.3751 116.888 81.799 117.727C102.723 118.678 123.638 122.684 144.57 119.713C147.122 119.354 149.647 118.874 152.156 118.292C154.835 117.667 153.705 113.541 151.017 114.166C129.965 119.08 108.288 115.167 87.0728 113.746C67.6386 112.445 47.0572 113.275 30.0459 123.84C22.9742 128.232 16.6988 134.114 12.4867 141.339C7.89779 149.241 6.17697 158.479 7.2985 167.537C9.74703 187.356 23.428 202.758 39.0096 214.093C54.9165 225.66 73.2719 233.956 92.4407 238.347C94.8122 238.887 97.2008 239.366 99.5894 239.794C100.728 240 101.892 239.486 102.226 238.296C102.509 237.26 101.875 235.865 100.728 235.659L100.719 235.668Z" fill="#FCC3A0"/>
<path d="M202.761 116.82C208.069 93.0708 211.802 76.3505 212.187 74.2273C212.256 73.8592 212.453 72.5835 213.36 72.164C213.9 71.9158 214.525 72.0527 215.098 72.1897C245.996 79.6723 276.902 87.1463 307.8 94.6289C329.357 99.8427 350.966 105.082 371.804 112.659C330.111 133.908 288.546 155.414 247.528 177.939C244.926 179.369 242.126 180.85 239.164 180.584C237.101 180.405 235.859 179.489 232.246 177.34C230.115 176.073 227.024 174.266 223.154 172.169C244.515 162.948 255.165 158.274 255.122 158.162C255.054 158 231.887 167.665 185.604 187.168C190.553 167.58 195.51 148 200.458 128.412C247.965 123.54 295.463 118.669 342.97 113.789C326.027 113.044 308.399 112.668 290.138 112.77C259.223 112.942 230.029 114.44 202.753 116.82H202.761Z" fill="#B0DEDA"/>
<path d="M204.825 117.393C207.444 105.664 210.073 93.9355 212.667 82.1979C213.189 79.8179 213.737 77.4378 214.208 75.0492C214.233 74.9294 214.251 74.8009 214.276 74.6811C214.31 74.5098 214.473 74.1503 214.447 74.0133C214.362 73.6366 214.533 73.9876 214.473 73.9619L214.037 74.176C214.037 74.3386 219.036 75.3574 219.516 75.4687C223.326 76.3933 227.135 77.3094 230.945 78.234C246.261 81.9411 261.569 85.6481 276.885 89.3552C291.953 93.0023 307.047 96.5895 322.089 100.331C336.789 103.978 351.445 107.89 365.777 112.813C367.601 113.438 369.416 114.08 371.231 114.739L370.717 110.827C350.435 121.16 330.179 131.562 310.009 142.11C289.958 152.589 269.985 163.222 250.14 174.078C247.58 175.473 245.003 177.22 242.203 178.085C241.69 178.247 241.159 178.384 240.628 178.453C240.268 178.495 239.892 178.495 239.532 178.478C239.438 178.478 238.667 178.376 239.138 178.453C238.753 178.384 238.385 178.281 238.017 178.153C237.957 178.136 237.64 178.007 237.965 178.144C237.768 178.059 237.572 177.956 237.375 177.862C235.354 176.835 233.454 175.559 231.493 174.412C229.096 173.008 226.682 171.655 224.242 170.328V174.026C233.445 170.054 242.648 166.09 251.818 162.041C253.23 161.416 254.771 160.876 256.107 160.089C258.256 158.822 256.963 155.517 254.54 156.108C254.36 156.15 254.189 156.228 254.018 156.287C250.816 157.486 247.665 158.856 244.506 160.166C237.375 163.119 230.252 166.107 223.129 169.095C212.102 173.718 201.092 178.358 190.073 182.999C188.395 183.709 186.717 184.411 185.039 185.122L187.676 187.759C191.529 172.52 195.381 157.281 199.234 142.033C200.33 137.692 201.434 133.343 202.53 129.003L200.467 130.578C219.045 128.669 237.623 126.768 256.192 124.859C274.693 122.958 293.203 121.058 311.704 119.166C322.123 118.095 332.551 117.025 342.97 115.955C345.667 115.681 345.769 111.794 342.97 111.674C324.452 110.861 305.908 110.527 287.373 110.673C268.889 110.818 250.414 111.443 231.964 112.548C222.213 113.13 212.478 113.849 202.744 114.697C201.588 114.799 200.604 115.613 200.604 116.837C200.604 117.916 201.588 119.08 202.744 118.977C220.389 117.436 238.077 116.332 255.781 115.664C274.616 114.953 293.468 114.748 312.312 115.039C322.534 115.193 332.748 115.501 342.961 115.947V111.666C324.383 113.575 305.805 115.476 287.236 117.385C268.666 119.294 250.225 121.186 231.724 123.078C221.305 124.148 210.877 125.218 200.458 126.289C199.525 126.383 198.643 126.888 198.395 127.864C194.542 143.103 190.69 158.342 186.837 173.59C185.741 177.93 184.637 182.28 183.541 186.62C183.182 188.033 184.586 189.925 186.178 189.257C200.604 183.179 215.03 177.1 229.473 171.056C236.998 167.905 244.515 164.737 252.066 161.664C252.948 161.304 253.821 160.945 254.703 160.602C254.934 160.517 255.174 160.44 255.396 160.337C256.055 160.046 254.874 160.337 254.557 160.243L253.615 159.695C253.41 159.19 253.196 158.685 252.99 158.179C253.085 157.82 253.187 157.46 253.282 157.101C254.026 156.116 254.283 156.236 253.633 156.553C253.307 156.716 252.982 156.861 252.657 157.007C251.407 157.572 250.157 158.128 248.907 158.676C244.095 160.799 239.275 162.888 234.447 164.986C230.329 166.775 226.202 168.556 222.084 170.337C220.586 170.979 220.783 173.324 222.084 174.035C226.194 176.27 230.175 178.71 234.233 181.038C235.722 181.894 237.246 182.554 238.967 182.733C241.595 182.999 244.138 182.083 246.458 180.953C251.595 178.444 256.543 175.473 261.569 172.751C266.594 170.028 271.705 167.272 276.782 164.549C297.098 153.668 317.517 142.983 338.004 132.427C349.622 126.434 361.257 120.484 372.9 114.551C374.672 113.652 373.996 111.221 372.386 110.639C357.815 105.348 342.876 101.187 327.859 97.3857C312.534 93.5074 297.15 89.886 281.782 86.1618C266.415 82.4376 250.465 78.585 234.806 74.7924C230.928 73.8506 227.05 72.9174 223.163 71.9757C221.219 71.5048 219.285 71.034 217.341 70.5631C215.398 70.0922 213.292 69.3559 211.631 70.8199C210.475 71.8387 210.235 73.2513 209.944 74.664C209.696 75.8368 209.439 77.0097 209.191 78.1826C206.828 88.9956 204.396 99.7999 201.982 110.596C201.563 112.488 201.135 114.388 200.715 116.28C200.116 118.96 204.242 120.107 204.842 117.419L204.825 117.393Z" fill="#5CC6C1"/>
<path d="M254.549 156.227C286.56 144.567 318.571 132.906 350.581 121.246C313.442 141.022 276.303 160.808 239.165 180.584C234.91 177.922 230.663 175.268 226.408 172.605C235.791 167.143 245.166 161.681 254.549 156.219V156.227Z" fill="#5CC6C1"/>
<path d="M208.43 116.777L221.828 125.056L329.606 115.168L323.314 112.085L212 114.397L208.43 116.777Z" fill="#5CC6C1"/>
<path d="M209.688 166.458C209.533 164.335 210.141 162.306 210.629 160.26C211.117 158.214 211.639 155.988 212.145 153.847C212.65 151.707 213.155 149.575 213.66 147.435C213.917 146.33 214.182 145.226 214.439 144.13C214.567 143.582 214.696 143.026 214.833 142.478C214.927 142.093 214.961 141.493 215.175 141.177L214.405 141.947C213.908 142.221 214.071 142.058 214.602 142.067C214.927 142.067 215.261 142.084 215.586 142.101C216.177 142.127 216.768 142.178 217.35 142.247C218.463 142.384 219.559 142.615 220.646 142.897C221.656 143.163 222.735 143.428 223.66 143.916C224.31 144.259 224.55 144.37 224.19 145.029C223.317 146.647 221.194 147.281 219.524 147.58C217.144 148.008 214.645 147.743 212.247 147.555C211.092 147.461 210.107 148.608 210.107 149.695C210.107 150.928 211.092 151.741 212.247 151.835C216.46 152.178 221.125 152.452 224.884 150.157C226.673 149.062 228.274 147.324 228.608 145.192C228.942 143.06 227.666 141.211 225.817 140.226C223.968 139.242 221.742 138.685 219.67 138.309C218.583 138.112 217.478 137.966 216.374 137.88C215.329 137.795 214.114 137.641 213.086 137.906C210.698 138.531 210.595 141.836 210.124 143.831C209.568 146.176 209.02 148.514 208.463 150.859C207.847 153.479 207.23 156.099 206.605 158.719C205.98 161.338 205.219 163.847 205.415 166.467C205.501 167.622 206.34 168.607 207.556 168.607C208.652 168.607 209.782 167.622 209.696 166.467L209.688 166.458Z" fill="#0E5E6A"/>
<path d="M201.306 160.311C206.845 160.311 212.376 160.08 217.889 159.6C219.045 159.498 220.029 158.684 220.029 157.46C220.029 156.381 219.045 155.217 217.889 155.32C212.376 155.799 206.836 156.039 201.306 156.03C198.549 156.03 198.549 160.311 201.306 160.311Z" fill="#0E5E6A"/>
<path d="M185.116 181.612C168.893 178.718 152.438 177.151 135.957 176.98C133.2 176.954 133.2 181.235 135.957 181.261C152.052 181.432 168.122 182.922 183.978 185.747C185.116 185.952 186.281 185.439 186.614 184.249C186.897 183.213 186.263 181.817 185.116 181.612Z" fill="#5CC6C1"/>
<path d="M193.917 152.743C184.765 151.733 175.605 150.723 166.453 149.712C165.306 149.584 164.312 150.791 164.312 151.853C164.312 153.111 165.297 153.865 166.453 153.993C175.605 155.003 184.765 156.013 193.917 157.024C195.065 157.152 196.058 155.945 196.058 154.883C196.058 153.625 195.073 152.871 193.917 152.743Z" fill="#5CC6C1"/>
<path d="M204.636 113.875C190.227 114.226 175.802 113.918 161.419 112.95C160.263 112.873 159.278 113.986 159.278 115.09C159.278 116.315 160.263 117.154 161.419 117.231C175.802 118.198 190.227 118.506 204.636 118.155C207.384 118.087 207.393 113.806 204.636 113.875Z" fill="#5CC6C1"/>
<path d="M207.316 90.879L187.214 91.2043C184.466 91.2471 184.457 95.5278 187.214 95.485L207.316 95.1596C210.064 95.1168 210.072 90.8362 207.316 90.879Z" fill="#5CC6C1"/>
<path d="M214.02 70.486C195.861 70.7599 177.694 69.159 159.869 65.6574C154.861 64.6728 149.887 63.5342 144.938 62.2585C142.267 61.5736 141.129 65.7002 143.8 66.3851C161.616 70.9739 179.911 73.7221 198.292 74.544C203.532 74.7752 208.772 74.8522 214.011 74.7752C216.759 74.7324 216.768 70.4517 214.011 70.4945L214.02 70.486Z" fill="#5CC6C1"/>
</svg>
