<svg width="62" height="61" viewBox="0 0 62 61" fill="none" xmlns="http://www.w3.org/2000/svg">
<path d="M51.5642 18.2467C51.0437 17.4853 49.5491 15.3543 46.7284 13.9901C42.3306 11.8645 38.0841 13.2374 37.3859 13.4764C32.7276 15.0697 30.6497 18.8725 30.1361 19.9182C29.6864 18.8419 27.8355 14.9296 23.2775 13.0768C22.5919 12.7982 18.4399 11.1889 13.921 13.0661C11.0233 14.2708 9.40683 16.3154 8.84121 17.0441C4.1515 23.1132 5.64226 33.3891 9.33719 40.3141C9.33719 40.3141 14.9755 52.1657 28.4668 53.6766C28.6864 53.7024 28.9168 53.7183 29.1447 53.705C29.3685 53.729 29.5977 53.7303 29.8194 53.7146C43.3779 52.96 49.7027 41.446 49.7027 41.446C53.7988 34.7387 55.8933 24.5652 51.5684 18.2449L51.5642 18.2467Z" fill="#F47B4A"/>
<path d="M20.7766 35.1966C21.7483 36.8866 23.1563 38.3659 24.8175 39.3897C27.8854 41.2848 31.682 41.5687 35.0074 40.157C37.0047 39.31 38.7221 37.8805 39.9798 36.1194C40.8504 34.9026 38.9762 33.5306 38.1013 34.7493C36.2881 37.2855 33.2947 38.9224 30.1354 38.7252C28.8204 38.6454 27.5245 38.2835 26.3819 37.6214C25.3951 37.0484 24.6296 36.3889 23.9606 35.6365C23.6733 35.3158 23.4078 34.9754 23.1575 34.6233C23.0761 34.5067 22.999 34.3883 22.9218 34.2699C22.7306 33.9832 23.0633 34.5123 22.92 34.2656C22.6068 33.7229 22.0114 33.3948 21.3885 33.6668C20.8595 33.8978 20.4719 34.6503 20.7869 35.1972L20.7766 35.1966Z" fill="#CB4027"/>
<path d="M24.2124 30.1798C25.5849 29.5804 24.6558 27.4531 23.2833 28.0525C21.9108 28.6519 22.8399 30.7793 24.2124 30.1798Z" fill="#CB4027"/>
<path d="M36.6684 31.0879C38.041 30.4885 37.1119 28.3611 35.7394 28.9606C34.3668 29.56 35.2959 31.6874 36.6684 31.0879Z" fill="#CB4027"/>
</svg>
