<svg width="16" height="16" viewBox="0 0 16 16" fill="none" xmlns="http://www.w3.org/2000/svg">
<path d="M14.85 9.65L13.35 8.15C13.15 7.95 12.85 7.95 12.65 8.15L8 12.8V15H10.2L14.85 10.35C15.05 10.15 15.05 9.85 14.85 9.65ZM9.8 14H9V13.2L11.5 10.7L12.3 11.5L9.8 14ZM13 10.8L12.2 10L13 9.2L13.8 10L13 10.8ZM5 11.5H6V12.5H5V11.5ZM7 9H9V10H7V9ZM5 9H6V10H5V9ZM7 6.5H11V7.5H7V6.5ZM5 6.5H6V7.5H5V6.5Z" fill="#0F5E6A"/>
<path d="M3.5 14V3.5H5V5H11V3.5H12.5V6.5H13.5V3.5C13.5 2.95 13.05 2.5 12.5 2.5H11V2C11 1.45 10.55 1 10 1H6C5.45 1 5 1.45 5 2V2.5H3.5C2.95 2.5 2.5 2.95 2.5 3.5V14C2.5 14.55 2.95 15 3.5 15H6V14H3.5ZM6 2H10V4H6V2Z" fill="#0F5E6A"/>
</svg>
