<svg width="100" height="25" viewBox="0 0 100 25" fill="none" xmlns="http://www.w3.org/2000/svg">
<g clip-path="url(#clip0_388_6734)">
<path d="M30.068 7.10085C30.8359 6.10765 31.63 5.13529 32.4502 4.18555C32.6471 4.00086 32.7865 3.78266 32.8683 3.53006C32.9951 3.28742 33.0527 3.02577 33.0428 2.74511C33.0428 2.24534 32.8225 1.6487 32.4502 1.30466C32.0644 0.947946 31.5581 0.683578 31.0194 0.708023C30.505 0.731562 29.9394 0.899056 29.5886 1.30466C27.4636 3.76274 25.4951 6.3675 23.7172 9.08994C22.0229 11.6838 20.5031 14.3927 19.1713 17.1921C19.0175 17.5153 18.8673 17.8394 18.7189 18.1645C18.1578 17.0255 17.6074 15.882 17.0687 14.7322C15.9401 12.3212 14.8655 9.88667 13.8331 7.43221C13.3888 6.37474 12.9365 5.31455 12.3394 4.33313C11.9644 3.71657 11.5291 3.12717 11.0525 2.58757C10.5948 2.06879 10.0588 1.62426 9.48863 1.23404C8.93197 0.852882 8.30157 0.570406 7.66757 0.349496C7.03987 0.130396 6.35461 0.0208463 5.69093 0.00183355C5.27277 -0.0108416 4.85729 0.0516289 4.44542 0.11591C4.20531 0.15303 3.9688 0.21188 3.74128 0.296079C2.9499 0.588514 2.24936 0.986877 1.64503 1.58985C1.35007 1.8841 1.09107 2.22723 0.862653 2.5749C0.630637 2.9289 0.473261 3.32545 0.318584 3.71838C0.225058 3.95468 0.156712 4.20094 0.115344 4.45173C0.048797 4.86458 -0.0186497 5.2892 0.00473185 5.70929C0.0523942 6.58116 0.269123 7.3634 0.668407 8.1384C0.859955 8.5096 1.12345 8.84006 1.38334 9.16328C1.54072 9.35884 1.71788 9.5372 1.91302 9.69473C2.23137 9.95276 2.54972 10.2099 2.91573 10.3973C3.40135 10.6454 3.93822 10.7513 4.4751 10.6028C4.94452 10.4724 5.45352 10.1076 5.68464 9.66667C5.93284 9.19406 6.05695 8.62096 5.88878 8.09675C5.7323 7.60876 5.42834 7.11895 4.95891 6.87903C4.8447 6.82109 4.73499 6.7559 4.62887 6.68619C4.53445 6.60018 4.44542 6.50964 4.35999 6.41457C4.28445 6.29959 4.2161 6.18008 4.15315 6.05786C4.11358 5.93835 4.08031 5.81703 4.05333 5.6939C4.04793 5.58344 4.04793 5.47208 4.05333 5.36163C4.08121 5.23216 4.11628 5.1036 4.15855 4.97775C4.2206 4.85643 4.28894 4.73873 4.36358 4.62556C4.44632 4.53321 4.53355 4.44539 4.62438 4.3621C4.7197 4.29963 4.81772 4.2435 4.91845 4.19098C5.04884 4.14753 5.18014 4.11222 5.31413 4.08324C5.50298 4.07148 5.69183 4.07329 5.88068 4.08687C6.15407 4.14028 6.42206 4.21724 6.68375 4.31321C6.97602 4.45445 7.2566 4.62013 7.52279 4.80754C7.83124 5.07191 8.11182 5.36706 8.37082 5.68122C9.0219 6.57845 9.51471 7.58069 9.95806 8.59561C10.4877 9.8079 10.9886 11.032 11.5183 12.2443C12.6316 14.7929 13.8007 17.317 15.0238 19.8141C15.7099 21.2147 16.4123 22.6062 17.1317 23.9896C17.2369 24.1272 17.343 24.2649 17.4482 24.4016C17.5849 24.5075 17.7216 24.6143 17.8574 24.7203C18.0184 24.7891 18.1794 24.857 18.3403 24.9258C18.6092 25.0109 18.8781 25.0227 19.147 24.962C19.3295 24.962 19.4995 24.9149 19.6578 24.8226C19.8296 24.7746 19.9779 24.6868 20.1038 24.5609C20.2558 24.4704 20.3772 24.3482 20.4671 24.1951C20.6461 23.9987 20.7666 23.7678 20.8296 23.5025C21.0319 22.9792 21.2423 22.4586 21.4564 21.9408C22.3233 19.8974 23.2864 17.8965 24.3458 15.9472C25.4474 13.9192 26.6498 11.9473 27.9474 10.0415C28.6282 9.04196 29.3359 8.06235 30.0671 7.09994L30.068 7.10085Z" fill="#5CC6C1"/>
<path d="M69.2603 9.92378C69.4078 9.69019 69.4878 9.43759 69.5004 9.16598C69.5607 8.89528 69.549 8.62457 69.4644 8.35387C69.3062 7.86134 69.0022 7.38512 68.5346 7.13614C68.3736 7.06733 68.2126 6.99943 68.0517 6.93062C67.6928 6.83375 67.334 6.83375 66.9761 6.93062C65.8286 7.08816 64.6829 7.28734 63.5714 7.61961C62.8691 7.82875 62.1856 8.10127 61.5201 8.41C61.3034 8.51049 61.0912 8.61914 60.8825 8.73684C60.843 8.44531 60.8007 8.15378 60.7521 7.86315C60.6892 7.59788 60.5687 7.36701 60.3897 7.17055C60.2467 6.94873 60.0579 6.77399 59.8223 6.64543C59.6613 6.57662 59.5003 6.50872 59.3393 6.43991C59.0705 6.35481 58.8016 6.34304 58.5327 6.4037C58.3501 6.4037 58.1802 6.45078 58.0219 6.54312C57.771 6.62551 57.5543 6.76585 57.3708 6.96412C57.0048 7.36611 56.7854 7.85048 56.7782 8.40457C56.7521 10.2787 56.7269 12.1528 56.7008 14.026C56.6963 14.3538 56.6918 14.6815 56.6873 15.0092C56.6586 15.2057 56.6316 15.404 56.6064 15.6023C56.5615 15.9545 56.5327 16.3085 56.5138 16.6625C56.4149 17.0038 56.2998 17.3406 56.1703 17.6719C55.9346 18.188 55.6559 18.6823 55.3276 19.1441C55.039 19.4935 54.7215 19.8177 54.3753 20.1101C54.0767 20.3238 53.7611 20.513 53.4301 20.6723C53.1576 20.7728 52.8789 20.8525 52.5938 20.9086C52.3366 20.9286 52.0785 20.9277 51.8213 20.9068C51.5686 20.8579 51.3204 20.79 51.0776 20.7031C50.8878 20.609 50.7044 20.503 50.5299 20.3835C50.4094 20.2767 50.2961 20.1626 50.1891 20.0422C50.0911 19.8937 50.0038 19.7398 49.9256 19.5805C49.7772 19.1631 49.6801 18.7303 49.6108 18.2921C49.4939 17.2998 49.4427 16.2958 49.3986 15.2981C49.3483 14.1537 49.3321 13.0075 49.3492 11.8622C49.359 11.2112 49.3797 10.5593 49.4112 9.90929C49.422 9.62863 49.3635 9.36698 49.2367 9.12434C49.1549 8.87174 49.0155 8.65354 48.8186 8.46885C48.6351 8.27057 48.4184 8.13024 48.1675 8.04785C47.9265 7.92019 47.6666 7.86225 47.3878 7.87221C46.8644 7.89575 46.3221 8.06867 45.957 8.46885C45.8518 8.60646 45.7457 8.74408 45.6405 8.88079C45.457 9.19858 45.3653 9.54081 45.3644 9.90929C45.2412 12.4824 45.2853 15.0627 45.5011 17.6294C45.5623 18.3537 45.6378 19.0834 45.7844 19.7959C45.8176 19.9562 45.8563 20.1164 45.9004 20.2749C45.6711 20.3428 45.4381 20.398 45.2034 20.4406C44.9058 20.4668 44.6063 20.4704 44.3077 20.4478C44.1054 20.408 43.9058 20.3546 43.7106 20.2867C43.5442 20.2025 43.3833 20.1074 43.2286 20.0024C43.0811 19.872 42.9426 19.7326 42.8131 19.5841C42.653 19.3487 42.5137 19.1006 42.3923 18.8435C42.1405 18.1717 41.984 17.4655 41.8761 16.7557C41.8716 16.7141 41.8662 16.6715 41.8617 16.6299C41.9264 16.0359 41.9678 15.4411 41.9696 14.839C41.9723 14.1383 41.9381 13.4384 41.8914 12.7404C41.868 12.3954 41.8419 12.0514 41.8149 11.7065C41.8257 11.4258 41.7673 11.1641 41.6405 10.9215C41.5586 10.6689 41.4192 10.4507 41.2223 10.266C41.0388 10.0677 40.8221 9.9274 40.5712 9.84501C40.3302 9.71735 40.0703 9.65941 39.7915 9.66937C39.4525 9.68476 39.1063 9.76262 38.805 9.92468C38.135 9.68295 37.4525 9.47562 36.7609 9.31356C35.93 9.1189 35.0945 9.06549 34.2474 9.13067C33.7357 9.17051 33.2177 9.23117 32.7177 9.34977C32.2609 9.45842 31.8211 9.64492 31.3976 9.84501C31.1547 9.95999 30.9227 10.0994 30.706 10.2579C30.3598 10.5114 30.0135 10.7766 29.7123 11.0854C29.4128 11.3923 29.1529 11.74 28.902 12.0858C28.7402 12.3094 28.5945 12.5439 28.4641 12.7884C28.2554 13.1795 28.0855 13.5932 27.9263 14.0061C27.8256 14.2677 27.741 14.5348 27.6718 14.8064C27.5837 15.1559 27.5306 15.509 27.4829 15.8657C27.4299 16.2659 27.384 16.6643 27.3786 17.0681C27.3741 17.3994 27.3912 17.7308 27.4299 18.0594C27.4892 18.5547 27.5513 19.0517 27.6781 19.5352C27.8013 20.0069 27.9892 20.4523 28.1817 20.8996C28.3094 21.1956 28.4596 21.4817 28.6349 21.7515C29.0387 22.3726 29.5225 22.9647 30.1053 23.4238C30.4578 23.7008 30.804 23.9778 31.1988 24.1915C31.4011 24.3011 31.6107 24.3889 31.8229 24.4794C32.0289 24.5672 32.2321 24.656 32.4452 24.7248C32.8823 24.866 33.3391 24.9221 33.7942 24.9728C34.0684 25.0036 34.3454 25.0063 34.6206 24.9801C35.0505 24.9403 35.492 24.885 35.9102 24.7682C36.3293 24.6514 36.7348 24.4731 37.1269 24.2902C37.376 24.1734 37.6161 24.0367 37.8446 23.8828C38.2097 23.6365 38.5604 23.3622 38.8895 23.0698C39.1908 22.8009 39.4669 22.5012 39.7223 22.1843C39.7645 22.2386 39.8077 22.292 39.8509 22.3455C40.0073 22.5401 40.1809 22.7221 40.3689 22.8869C40.6755 23.1558 41.0038 23.4138 41.3509 23.6284C41.7286 23.862 42.1467 24.0358 42.5604 24.1897C42.8203 24.2866 43.0901 24.3572 43.3635 24.4016C43.7844 24.4713 44.216 24.5337 44.6441 24.5383C44.9103 24.541 45.1756 24.5229 45.439 24.4894C45.8392 24.4387 46.2385 24.3889 46.6315 24.2956C46.9193 24.2268 47.2026 24.139 47.4786 24.0313C47.7403 23.9688 47.9678 23.8484 48.1621 23.6709C48.4831 23.9145 48.8249 24.1318 49.1909 24.2956C49.7673 24.5537 50.3366 24.7818 50.9625 24.8733C51.5965 24.9656 52.2071 25.038 52.8447 24.9575C53.2575 24.9049 53.6657 24.8552 54.0668 24.7438C54.2988 24.6795 54.5255 24.5989 54.7476 24.5057C55.3618 24.2495 55.9445 23.9778 56.4823 23.5822C56.5507 23.5315 56.6181 23.4808 56.6856 23.4301C56.7818 23.7352 56.9427 24.0186 57.1721 24.2495C57.3555 24.4477 57.5722 24.5881 57.8232 24.6705C58.0642 24.7981 58.3241 24.8561 58.6028 24.8461C59.1262 24.8226 59.6685 24.6496 60.0336 24.2495C60.3996 23.8475 60.619 23.3631 60.6262 22.809C60.6523 20.9349 60.6775 19.0608 60.7036 17.1876L60.7126 16.5058C60.8142 15.9689 60.8888 15.4284 60.9581 14.8852C60.9851 14.677 61.0075 14.4687 61.0273 14.2596C61.1658 13.9672 61.3268 13.6865 61.5111 13.4212C61.7396 13.1514 61.9905 12.9024 62.2611 12.6761C62.6757 12.3819 63.1209 12.132 63.5822 11.9192C64.6802 11.481 65.8394 11.2139 67.0022 11.0193C67.3511 10.9604 67.7009 10.9088 68.0508 10.8608C68.3143 10.7975 68.5436 10.6761 68.7387 10.496C68.959 10.352 69.1326 10.1619 69.2603 9.92468V9.92378ZM37.3499 18.3799C37.171 18.762 36.9588 19.1269 36.715 19.4709C36.4713 19.7643 36.2034 20.0377 35.9129 20.2848C35.6728 20.4541 35.421 20.6053 35.1584 20.7348C34.9515 20.8091 34.7393 20.8697 34.5235 20.9132C34.34 20.9258 34.1575 20.9258 33.974 20.9141C33.7807 20.8742 33.5909 20.8217 33.4057 20.7565C33.188 20.6488 32.9794 20.5257 32.7798 20.3881C32.5783 20.2142 32.3895 20.025 32.2159 19.8222C32.0414 19.5696 31.8895 19.3034 31.7582 19.0255C31.6233 18.6543 31.5235 18.2722 31.4551 17.8829C31.4101 17.3976 31.411 16.9096 31.4569 16.4243C31.5324 15.9907 31.6467 15.566 31.8004 15.1541C31.9497 14.8363 32.1233 14.5303 32.3229 14.2415C32.4893 14.045 32.6682 13.8621 32.8625 13.6937C33.0172 13.5887 33.1772 13.4937 33.3436 13.4095C33.5909 13.3234 33.8454 13.2601 34.1044 13.2148C34.5388 13.1695 34.9812 13.1505 35.4156 13.1849C35.9417 13.2836 36.4569 13.4475 36.9677 13.6023C37.2142 13.6765 37.4579 13.758 37.7007 13.8449C37.6935 14.4416 37.6998 15.0391 37.7321 15.6358C37.7501 15.9653 37.778 16.294 37.8122 16.6226C37.7115 17.2211 37.564 17.8132 37.3499 18.3799Z" fill="#5CC6C1"/>
<path d="M91.3036 6.22626C88.523 6.22626 86.0437 7.62868 84.451 9.80519C82.8584 7.62777 80.3782 6.22626 77.5985 6.22626C72.8035 6.22626 68.9023 10.3964 68.9023 15.5217C68.9023 20.647 72.8035 24.8171 77.5985 24.8171C80.3791 24.8171 82.8584 23.4147 84.451 21.2382C86.0437 23.4156 88.5239 24.8171 91.3036 24.8171C96.0986 24.8171 99.9997 20.647 99.9997 15.5217C99.9997 10.3964 96.0986 6.22626 91.3036 6.22626ZM77.5985 21.106C74.8368 21.106 72.5894 18.6009 72.5894 15.5226C72.5894 12.4443 74.8368 9.93918 77.5985 9.93918C80.3602 9.93918 82.6075 12.4443 82.6075 15.5226C82.6075 18.6009 80.3602 21.106 77.5985 21.106ZM91.3036 21.106C88.5419 21.106 86.2946 18.6009 86.2946 15.5226C86.2946 12.4443 88.5419 9.93918 91.3036 9.93918C94.0653 9.93918 96.3127 12.4443 96.3127 15.5226C96.3127 18.6009 94.0653 21.106 91.3036 21.106Z" fill="#5CC6C1"/>
<path d="M46.248 4.32585C46.6437 4.69161 47.1302 4.92248 47.6788 4.92248C47.9576 4.93335 48.2175 4.8745 48.4585 4.74684C48.7094 4.66445 48.9261 4.52412 49.1096 4.32585C49.3065 4.14115 49.4459 3.92296 49.5277 3.67036C49.6545 3.42772 49.7121 3.16607 49.7022 2.8854C49.6788 2.35847 49.507 1.81254 49.1096 1.44496C48.7139 1.07919 48.2274 0.848316 47.6788 0.848316C47.4 0.837452 47.1401 0.896301 46.8991 1.02396C46.6482 1.10635 46.4315 1.24668 46.248 1.44496C46.0511 1.62965 45.9117 1.84785 45.8298 2.10044C45.703 2.34308 45.6455 2.60474 45.6554 2.8854C45.6788 3.41233 45.8505 3.95826 46.248 4.32585Z" fill="#5CC6C1"/>
</g>
<defs>
<clipPath id="clip0_388_6734">
<rect width="100" height="25" fill="white"/>
</clipPath>
</defs>
</svg>
