<svg width="18" height="16" viewBox="0 0 18 16" fill="none" xmlns="http://www.w3.org/2000/svg">
<path d="M12.3363 4.24779C12.1829 4.24779 12.0501 4.19174 11.9381 4.07965C11.826 3.96755 11.7699 3.83481 11.7699 3.68142C11.7699 3.38053 11.826 3.09145 11.9381 2.81416C12.0501 2.53687 12.2153 2.29204 12.4336 2.07965L13.1327 1.37168C13.3569 1.14749 13.469 0.879056 13.469 0.566372C13.469 0.412979 13.5251 0.280236 13.6372 0.168142C13.7493 0.0560472 13.882 0 14.0354 0C14.1888 0 14.3215 0.0560472 14.4336 0.168142C14.5457 0.280236 14.6018 0.412979 14.6018 0.566372C14.6018 0.867257 14.5457 1.15634 14.4336 1.43363C14.3215 1.71091 14.1563 1.95575 13.9381 2.16814L13.2389 2.87611C13.0147 3.1003 12.9027 3.36873 12.9027 3.68142C12.9027 3.83481 12.8466 3.96755 12.7345 4.07965C12.6224 4.19174 12.4897 4.24779 12.3363 4.24779ZM8.93805 4.24779C8.78466 4.24779 8.65192 4.19174 8.53982 4.07965C8.42773 3.96755 8.37168 3.83481 8.37168 3.68142C8.37168 3.38053 8.42773 3.09145 8.53982 2.81416C8.65192 2.53687 8.81711 2.29204 9.0354 2.07965L9.73451 1.37168C9.9587 1.14749 10.0708 0.879056 10.0708 0.566372C10.0708 0.412979 10.1268 0.280236 10.2389 0.168142C10.351 0.0560472 10.4838 0 10.6372 0C10.7906 0 10.9233 0.0560472 11.0354 0.168142C11.1475 0.280236 11.2035 0.412979 11.2035 0.566372C11.2035 0.867257 11.1475 1.15634 11.0354 1.43363C10.9233 1.71091 10.7581 1.95575 10.5398 2.16814L9.84071 2.87611C9.61652 3.1003 9.50443 3.36873 9.50443 3.68142C9.50443 3.83481 9.44838 3.96755 9.33628 4.07965C9.22419 4.19174 9.09144 4.24779 8.93805 4.24779ZM16.3009 5.80531C16.5369 5.80531 16.7581 5.84956 16.9646 5.93805C17.1711 6.02655 17.351 6.14749 17.5044 6.30088C17.6578 6.45428 17.7788 6.63422 17.8673 6.84071C17.9558 7.0472 18 7.26844 18 7.50442V10.9027C18 11.1386 17.9558 11.3599 17.8673 11.5664C17.7788 11.7729 17.6578 11.9528 17.5044 12.1062C17.351 12.2596 17.1711 12.3805 16.9646 12.469C16.7581 12.5575 16.5369 12.6018 16.3009 12.6018H15.7965C15.7847 12.6431 15.7758 12.6814 15.7699 12.7168C15.764 12.7522 15.7522 12.7876 15.7345 12.823V13.1681C15.7345 13.5575 15.6608 13.9233 15.5133 14.2655C15.3658 14.6077 15.1622 14.9086 14.9027 15.1681C14.6431 15.4277 14.3422 15.6313 14 15.7788C13.6578 15.9263 13.292 16 12.9027 16H9.50443C9.04425 16 8.61947 15.8968 8.23009 15.6903C7.84071 15.4838 7.51622 15.2094 7.25664 14.8673H2.83186C2.44248 14.8673 2.0767 14.7935 1.73451 14.646C1.39233 14.4985 1.09145 14.2979 0.831858 14.0442C0.572271 13.7906 0.368732 13.4897 0.221239 13.1416C0.0737463 12.7935 0 12.4248 0 12.0354V11.469H2.26549C2.26549 11.0029 2.35398 10.5634 2.53097 10.1504C2.70796 9.73746 2.9528 9.37758 3.26549 9.0708C3.57817 8.76401 3.93805 8.51917 4.34513 8.33628C4.75221 8.15339 5.19174 8.0649 5.66372 8.0708C5.84071 8.0708 6.0118 8.08555 6.17699 8.11504C6.34218 8.14454 6.50737 8.18584 6.67257 8.23894V4.67257H15.7345V5.80531H16.3009ZM5.66372 9.20354C5.35103 9.20354 5.059 9.26254 4.78761 9.38053C4.51622 9.49852 4.27434 9.66077 4.06195 9.86726C3.84956 10.0737 3.68732 10.3127 3.57522 10.5841C3.46313 10.8555 3.40413 11.1504 3.39823 11.469H6.67257V9.45133C6.51917 9.37463 6.35988 9.31563 6.19469 9.27434C6.0295 9.23304 5.85251 9.20944 5.66372 9.20354ZM2.83186 13.7345H6.73451C6.69322 13.5634 6.67257 13.3746 6.67257 13.1681V12.6018H1.23009C1.28909 12.767 1.37168 12.9174 1.47788 13.0531C1.58407 13.1888 1.70501 13.3097 1.84071 13.4159C1.9764 13.5221 2.12979 13.5988 2.30088 13.646C2.47198 13.6932 2.64897 13.7227 2.83186 13.7345ZM6.9292 14.3274V14.3363L6.93805 14.354V14.3451L6.9292 14.3274ZM14.6018 13.1681V5.80531H7.80531V13.1681C7.80531 13.4041 7.84956 13.6254 7.93805 13.8319C8.02655 14.0383 8.14749 14.2183 8.30089 14.3717C8.45428 14.5251 8.63422 14.646 8.84071 14.7345C9.0472 14.823 9.26844 14.8673 9.50443 14.8673H12.9027C13.1386 14.8673 13.3599 14.823 13.5664 14.7345C13.7729 14.646 13.9528 14.5251 14.1062 14.3717C14.2596 14.2183 14.3805 14.0383 14.469 13.8319C14.5575 13.6254 14.6018 13.4041 14.6018 13.1681ZM16.8673 10.9027V7.50442C16.8673 7.35103 16.8112 7.21829 16.6991 7.10619C16.587 6.9941 16.4543 6.93805 16.3009 6.93805H15.7345V11.469H16.3009C16.4543 11.469 16.587 11.413 16.6991 11.3009C16.8112 11.1888 16.8673 11.056 16.8673 10.9027Z" fill="#0F5E6A"/>
</svg>
