<svg width="197" height="194" viewBox="0 0 197 194" fill="none" xmlns="http://www.w3.org/2000/svg">
<path d="M17.3052 86.34L85.3561 17.4621C91.2338 11.5126 100.766 11.5126 106.644 17.4621L174.695 86.3441C177.484 89.1673 175.507 94 171.561 94C121.188 94 70.8116 94 20.4389 94C16.4931 94 14.5161 89.1715 17.3052 86.3441V86.34Z" fill="#0E5E6A"/>
<path d="M22.4891 83.98H169.634C173.459 83.98 176.564 87.0951 176.564 90.932V151.214C176.564 166.404 164.272 178.736 149.131 178.736H42.9925C27.8517 178.736 15.5596 166.404 15.5596 151.214V90.932C15.5596 87.0951 18.6646 83.98 22.4891 83.98Z" fill="#B0DEDA"/>
<path d="M20 88L153 155" stroke="#0E5E6A" stroke-width="5" stroke-miterlimit="10" stroke-linecap="round"/>
<path d="M169 85L36 155" stroke="#0E5E6A" stroke-width="5" stroke-miterlimit="10" stroke-linecap="round"/>
<path d="M171.275 57.4164C178.511 65.115 184.494 73.9585 188.98 83.532C190.249 86.2406 191.386 89.0031 192.403 91.8154C192.593 92.3422 193.106 92.6948 193.677 92.5413C194.181 92.4003 194.59 91.7947 194.4 91.2638C190.704 81.0266 185.391 71.4407 178.693 62.8793C176.816 60.4776 174.827 58.1672 172.743 55.9481C171.829 54.9733 170.37 56.4417 171.28 57.4164H171.275Z" fill="#FCC3A0"/>
<path d="M186.14 65.2316C190.63 69.6533 193.71 75.3568 194.983 81.5331C195.095 82.0806 195.74 82.4 196.257 82.259C196.823 82.1014 197.092 81.5331 196.98 80.9814C195.637 74.4733 192.329 68.4173 187.603 63.7632C186.652 62.8258 185.189 64.2942 186.14 65.2316Z" fill="#FCC3A0"/>
<path d="M30.6219 192.038C21.7615 186.26 13.848 179.059 7.22853 170.796C5.37624 168.482 3.63558 166.08 1.99829 163.604C1.26647 162.496 -0.523797 163.533 0.212157 164.649C6.19902 173.7 13.6164 181.789 22.1419 188.488C24.5441 190.375 27.0166 192.158 29.5759 193.826C30.6964 194.556 31.73 192.76 30.6178 192.034L30.6219 192.038Z" fill="#FCC3A0"/>
<path d="M14.3397 187.965C8.93583 184.73 4.60693 179.91 1.91119 174.207C1.67138 173.701 0.947834 173.568 0.497165 173.833C-0.0196562 174.136 -0.114751 174.746 0.125054 175.252C2.96137 181.258 7.60863 186.348 13.2937 189.753C14.4389 190.438 15.4809 188.646 14.3356 187.961L14.3397 187.965Z" fill="#FCC3A0"/>
<path d="M92.1066 80.5288C93.0699 73.3197 91.6518 65.9488 88.5426 59.4116C85.4334 52.8744 80.538 47.1129 74.514 43.0603C71.5247 41.0486 68.2253 39.4723 64.7729 38.4478C60.6094 37.2117 56.2598 36.8218 52.0053 36.0046C48.0196 35.2373 44.0794 34.051 40.8131 31.5497C38.2 29.5504 36.1782 26.875 34.7146 23.9424C31.6632 17.82 30.9769 10.5362 31.8989 3.81649C32.0147 2.97446 32.1594 2.14072 32.3289 1.31113C32.4406 0.763595 32.1718 0.191176 31.6054 0.033554C31.0927 -0.107477 30.4477 0.207768 30.3319 0.759447C28.9179 7.72802 29.1329 15.2483 31.6178 21.9555C32.8209 25.1951 34.545 28.2397 36.9018 30.7741C39.5024 33.5698 42.7852 35.5318 46.3906 36.7305C50.6079 38.1325 55.0649 38.5473 59.4145 39.3396C63.1728 40.024 66.7947 41.0942 70.1851 42.8861C76.4489 46.1962 81.6378 51.377 85.1936 57.4952C88.77 63.6508 90.6884 70.7811 90.2832 77.9198C90.2336 78.7908 90.1468 79.6619 90.031 80.5288C89.9566 81.0847 90.5602 81.5658 91.0647 81.5658C91.6848 81.5658 92.0239 81.0847 92.0983 80.5288H92.1066Z" fill="#B0DEDA"/>
<path d="M75.4776 74.3898C76.3045 71.0548 77.0984 67.612 76.4699 64.1692C75.9531 61.3444 74.3778 58.8059 72.4222 56.7485C68.3124 52.4388 62.4992 49.8919 56.7852 48.577C53.4321 47.8055 49.9963 47.4198 46.5604 47.2953C45.2291 47.2455 45.2332 49.3195 46.5604 49.3693C52.1958 49.5767 57.9429 50.4892 63.1111 52.8536C67.7088 54.9524 72.6496 58.3911 74.1835 63.4889C75.2089 66.9069 74.32 70.4783 73.4889 73.8381C73.1664 75.1323 75.1593 75.6881 75.4818 74.3898H75.4776Z" fill="#B0DEDA"/>
</svg>
