<svg width="244" height="300" viewBox="0 0 244 300" fill="none" xmlns="http://www.w3.org/2000/svg">
<path d="M1.98391 161.069L105.422 57.6376C114.356 48.7035 128.845 48.7035 137.779 57.6376L241.217 161.075C245.456 165.315 242.451 172.572 236.453 172.572C159.887 172.572 83.3138 172.572 6.74712 172.572C0.749466 172.572 -2.25559 165.321 1.98391 161.075V161.069Z" fill="#0E5E6A"/>
<path d="M140.68 3.61326L24.444 40.0618C18.08 42.0574 14.5386 48.8342 16.5342 55.1983L67.119 216.516C69.1146 222.88 75.8914 226.421 82.2555 224.426L198.492 187.977C204.856 185.981 208.397 179.205 206.402 172.841L155.817 11.523C153.821 5.159 147.045 1.61767 140.68 3.61326Z" fill="#FFF5E7"/>
<path d="M10.6624 157.578H232.544C238.311 157.578 242.993 162.26 242.993 168.027V258.634C242.993 281.465 224.458 300 201.627 300H41.5734C18.7424 300 0.207031 281.465 0.207031 258.634V168.027C0.207031 162.26 4.88919 157.578 10.6562 157.578H10.6624Z" fill="#B0DEDA"/>
<path d="M5.87988 157.578L207.587 263.858" stroke="#0E5E6A" stroke-width="5" stroke-miterlimit="10" stroke-linecap="round"/>
<path d="M232.674 157.578L30.9736 263.858" stroke="#0E5E6A" stroke-width="5" stroke-miterlimit="10" stroke-linecap="round"/>
<path d="M46.2128 82.6258C50.2902 88.2245 54.6981 93.5737 59.4239 98.6299C60.7955 100.101 62.9963 97.888 61.6309 96.4229C57.0859 91.5599 52.8277 86.4351 48.9062 81.0485C48.4136 80.3689 47.5533 80.0322 46.7739 80.4874C46.1006 80.8801 45.7141 81.9338 46.2128 82.6196V82.6258Z" fill="#FCC3A0"/>
<path d="M47.821 99.4777C52.4346 93.293 56.9609 87.0335 61.9299 81.1294C62.4723 80.4872 62.5596 79.5583 61.9299 78.9224C61.375 78.3675 60.2715 78.274 59.7228 78.9224C54.5855 85.0322 49.8972 91.5099 45.1277 97.9004C44.6227 98.5737 45.0155 99.6398 45.6888 100.033C46.4868 100.5 47.316 100.151 47.821 99.4715V99.4777Z" fill="#FCC3A0"/>
<path d="M43.8493 92.7507C47.2908 91.6909 50.7822 90.5749 54.3795 90.1696C57.9644 89.7644 61.6241 89.8267 65.1154 88.8043C67.0357 88.2369 66.2189 85.2319 64.2862 85.7992C60.8759 86.803 57.3035 86.672 53.8059 87.1272C50.1151 87.601 46.5676 88.6546 43.0264 89.7519C41.1124 90.3442 41.9291 93.3493 43.8556 92.757L43.8493 92.7507Z" fill="#FCC3A0"/>
<path d="M75.6699 73.3862C79.7473 78.9848 84.1551 84.3341 88.8809 89.3903C90.2525 90.8617 92.4533 88.6484 91.0879 87.1833C86.5429 82.3203 82.2847 77.1955 78.3632 71.8088C77.8707 71.1293 77.0103 70.7926 76.231 71.2477C75.5576 71.6405 75.1711 72.6942 75.6699 73.38V73.3862Z" fill="#FCC3A0"/>
<path d="M77.279 90.2382C81.8926 84.0535 86.4189 77.794 91.3879 71.8899C91.9303 71.2477 92.0176 70.3188 91.3879 69.6829C90.833 69.128 89.7295 69.0345 89.1808 69.6829C84.0435 75.7927 79.3552 82.2704 74.5857 88.6609C74.0807 89.3342 74.4735 90.4003 75.1468 90.7931C75.9449 91.2607 76.774 90.9116 77.279 90.232V90.2382Z" fill="#FCC3A0"/>
<path d="M73.3073 83.5049C76.7488 82.445 80.2402 81.329 83.8375 80.9238C87.4224 80.5185 91.0821 80.5809 94.5734 79.5584C96.4937 78.9911 95.677 75.986 93.7442 76.5534C90.3339 77.5571 86.7615 77.4262 83.2639 77.8813C79.5731 78.3551 76.0256 79.4088 72.4844 80.5061C70.5704 81.0984 71.3871 84.1034 73.3136 83.5111L73.3073 83.5049Z" fill="#FCC3A0"/>
<path d="M107.049 63.5417C111.126 69.1403 115.534 74.4896 120.26 79.5458C121.631 81.0172 123.832 78.8039 122.467 77.3388C117.922 72.4758 113.664 67.351 109.742 61.9644C109.25 61.2848 108.389 60.9481 107.61 61.4033C106.937 61.796 106.55 62.8497 107.049 63.5355V63.5417Z" fill="#FCC3A0"/>
<path d="M108.657 80.3939C113.271 74.2092 117.797 67.9497 122.766 62.0455C123.308 61.4034 123.395 60.4744 122.766 59.8385C122.211 59.2836 121.107 59.1901 120.559 59.8385C115.421 65.9484 110.733 72.4261 105.964 78.8165C105.459 79.4899 105.851 80.556 106.525 80.9487C107.323 81.4163 108.152 81.0672 108.657 80.3876V80.3939Z" fill="#FCC3A0"/>
<path d="M104.686 73.6668C108.128 72.6069 111.619 71.4909 115.216 71.0857C118.801 70.6804 122.461 70.7428 125.952 69.7203C127.873 69.1529 127.056 66.1479 125.123 66.7152C121.713 67.719 118.14 67.5881 114.643 68.0432C110.952 68.517 107.405 69.5707 103.863 70.6679C101.949 71.2602 102.766 74.2653 104.692 73.673L104.686 73.6668Z" fill="#FCC3A0"/>
<path d="M136.613 54.271C140.691 59.8696 145.098 65.2188 149.824 70.2751C151.196 71.7464 153.397 69.5332 152.031 68.068C147.486 63.2051 143.228 58.0803 139.307 52.6936C138.814 52.014 137.954 51.6774 137.174 52.1325C136.501 52.5253 136.114 53.5789 136.613 54.2647V54.271Z" fill="#FCC3A0"/>
<path d="M138.22 71.123C142.834 64.9383 147.36 58.6788 152.329 52.7747C152.872 52.1325 152.959 51.2036 152.329 50.5676C151.774 50.0128 150.671 49.9192 150.122 50.5676C144.985 56.6775 140.297 63.1552 135.527 69.5456C135.022 70.219 135.415 71.2851 136.088 71.6779C136.886 72.1454 137.715 71.7963 138.22 71.1167V71.123Z" fill="#FCC3A0"/>
<path d="M134.25 64.3897C137.691 63.3298 141.183 62.2138 144.78 61.8086C148.365 61.4033 152.024 61.4657 155.516 60.4432C157.436 59.8758 156.619 56.8708 154.687 57.4381C151.276 58.4419 147.704 58.311 144.206 58.7661C140.515 59.2399 136.968 60.2936 133.427 61.3908C131.513 61.9831 132.329 64.9882 134.256 64.3959L134.25 64.3897Z" fill="#FCC3A0"/>
<path d="M139.787 26.9525L39.2256 58.4857L41.2701 65.0058L141.831 33.4726L139.787 26.9525Z" fill="#FCC3A0"/>
</svg>
