<svg width="384" height="314" viewBox="0 0 384 314" fill="none" xmlns="http://www.w3.org/2000/svg">
<path d="M413.195 42.5905C451.905 50.9966 472.117 117.29 472.971 163.69C473.935 216.1 450.948 283.176 413.056 290.1C401.337 292.239 393.371 291.319 362.654 269.888C318.42 239.033 265.957 220.905 223.576 187.558C213.391 179.546 202.941 166.688 208.589 155.041C211.413 149.225 217.505 145.846 223.23 142.82C255.099 125.959 285.33 105.92 318.066 90.8044C391.012 57.1315 391.553 37.882 413.209 42.5836L413.195 42.5905Z" fill="#FFF5E7"/>
<g clip-path="url(#clip0_2012_7459)">
<path d="M152.874 61.3437C138.782 66.7038 122.721 63.0455 108.966 58.9718C73.1504 48.3673 38.7443 35.5367 6.21019 20.6382C3.78149 19.5232 0.749041 18.3772 -2.0002 19.4262C-3.41806 19.9651 -4.40517 20.998 -5.28362 21.999C-19.6738 38.4512 -21.7997 58.3427 -29.6643 76.7406C-35.1942 89.6532 -43.7421 102.254 -45.3905 115.506C-45.9057 119.601 -45.6859 123.858 -43.1666 127.328C-40.7164 130.708 -36.3505 132.982 -32.1113 135.158C-4.92171 149.12 23.6693 163.481 57.5991 166.074C72.0945 167.179 87.0156 166.065 101.706 164.105C103.071 163.921 104.512 163.71 105.567 162.999C106.871 162.128 107.234 160.761 107.558 159.515C111.977 142.438 124.809 126.818 135.468 110.94C146.126 95.063 154.973 77.3795 150.515 60.8893" fill="#FCC3A0"/>
<path d="M151.87 59.4903C142.139 63.1192 131.48 62.1856 121.985 60.1196C111.606 57.8719 101.71 54.5463 91.8822 51.385C72.0609 45.0112 52.7094 37.9504 33.9177 30.1984C29.2019 28.2546 24.5261 26.2721 19.8889 24.2428C15.2518 22.2135 10.6848 19.8763 5.84615 18.0243C3.68341 17.1946 1.12517 16.611 -1.4368 17.137C-3.99878 17.6631 -5.95234 19.1465 -7.426 20.8272C-10.2871 24.0772 -12.737 27.5176 -14.814 31.038C-23.0399 44.9756 -25.6438 59.8935 -31.4473 74.2518C-34.5077 81.834 -38.7085 89.1877 -42.1642 96.6931C-45.6199 104.198 -48.7984 112.476 -48.3537 120.376C-48.122 124.474 -46.4406 128.343 -42.8918 131.328C-39.7033 134 -35.6178 135.966 -31.672 137.985C-23.6204 142.117 -15.5178 146.208 -7.14964 150.013C9.38225 157.537 27.0665 163.996 46.5891 166.928C57.2518 168.531 68.2429 168.839 79.3404 168.287C84.968 168.008 90.5983 167.506 96.2182 166.847C99.0337 166.517 102.038 166.326 104.774 165.586C107.509 164.845 109.126 163.135 109.885 161.117C110.545 159.36 110.892 157.548 111.483 155.777C112.105 153.909 112.83 152.053 113.647 150.208C115.307 146.456 117.283 142.776 119.457 139.143C123.831 131.814 128.97 124.701 133.947 117.561C143.937 103.218 153.641 87.8722 154.424 71.9773C154.616 68.0846 154.307 64.2379 153.309 60.4879C153.025 59.4188 151.851 58.6239 150.253 58.8486C148.856 59.0453 147.477 60.1912 147.763 61.2684C151.706 76.1755 144.725 91.7424 135.819 105.834C126.857 120.007 115.483 133.511 108.803 148.315C107.144 151.992 105.785 155.717 104.794 159.482C104.637 160.059 104.535 160.868 104.017 161.371C103.499 161.875 102.387 161.932 101.666 162.033C98.882 162.425 96.0776 162.753 93.2808 163.056C82.2172 164.257 71.0875 164.821 60.1464 164.142C40.8782 162.955 22.9819 157.734 6.6453 151.044C-1.63189 147.648 -9.59822 143.885 -17.424 139.995C-21.3863 138.02 -25.3187 136.015 -29.2523 134.003C-33.1859 131.99 -36.9157 130.223 -39.6173 127.474C-42.3188 124.725 -43.0694 120.8 -42.7849 117.159C-42.4954 113.311 -41.518 109.449 -40.192 105.653C-37.584 98.151 -33.5062 90.8892 -29.9346 83.5661C-26.4724 76.4323 -23.816 69.1966 -21.4639 61.8879C-19.1118 54.5791 -17.09 47.8218 -14.0489 40.9128C-12.5553 37.5076 -10.8309 34.1361 -8.77665 30.8589C-7.73017 29.1969 -6.61261 27.5581 -5.38842 25.9538C-4.3268 24.5628 -3.23481 22.9027 -1.72317 21.7381C-0.211528 20.5735 1.74545 21.2252 3.24175 21.8176C5.49005 22.6931 7.59798 23.7788 9.76884 24.748C14.2328 26.7521 18.7355 28.7093 23.257 30.639C41.5772 38.416 60.4329 45.5713 79.7507 52.0657C89.3613 55.2907 99.0781 58.3849 108.922 61.2543C118.766 64.1236 128.398 66.4516 138.94 66.0525C144.071 65.8603 149.14 64.9815 153.891 63.2038C157.191 61.9696 155.193 58.2611 151.871 59.4984L151.87 59.4903Z" fill="#F68E76"/>
<path d="M226.105 146.422C257.61 145.278 289.125 144.134 320.629 142.991C321.819 142.943 323.123 142.933 324.056 143.677C325.036 144.449 325.322 145.802 325.531 147.031C329.215 168.741 331.851 190.622 333.422 212.589C335.011 234.719 335.382 257.762 326.607 278.147C325.941 279.691 325.16 281.292 323.751 282.198C322.2 283.198 320.23 283.151 318.393 283.075C291.447 281.921 264.501 280.768 237.565 279.615C236.385 279.567 235.157 279.501 234.11 278.958C230.817 277.233 231.388 272.42 232.359 268.817C239.44 242.314 240.982 214.696 242.486 187.296C242.876 180.149 243.257 172.887 241.582 165.93C239.907 158.973 235.833 152.244 229.427 149.08" fill="#FFF5E7"/>
<path d="M226.106 148.804C242.096 148.223 258.087 147.641 274.077 147.06C282.072 146.774 290.067 146.479 298.062 146.193C302.098 146.05 306.134 145.897 310.179 145.754L316.118 145.535C317.965 145.468 319.878 145.24 321.715 145.364C322.981 145.449 323 146.364 323.2 147.498C323.552 149.471 323.866 151.463 324.18 153.445C324.799 157.295 325.389 161.155 325.941 165.024C327.055 172.772 328.016 180.539 328.863 188.326C330.481 203.336 331.899 218.489 331.928 233.603C331.956 247.842 330.433 262.232 325.122 275.546C324.589 276.889 324.066 278.462 323.133 279.587C322.2 280.711 320.744 280.749 319.383 280.73C315.509 280.663 311.626 280.406 307.752 280.244C299.795 279.901 291.838 279.567 283.881 279.224C275.923 278.881 267.966 278.548 260.009 278.205C255.993 278.033 251.976 277.862 247.959 277.69C245.989 277.604 244.019 277.518 242.049 277.433C240.078 277.347 238.232 277.414 236.366 277.166C233.882 276.842 233.806 274.669 234.044 272.401C234.368 269.246 235.529 266.111 236.243 263.033C237.994 255.551 239.336 247.984 240.402 240.37C242.544 225.045 243.6 209.597 244.466 194.158C245.256 180.158 247.255 164.138 237.537 152.568C235.624 150.291 233.254 148.375 230.608 147.041C227.962 145.707 225.468 149.776 228.209 151.158C241.487 157.867 240.764 175.174 240.069 187.773C239.203 203.536 238.318 219.318 236.357 234.995C235.386 242.781 234.111 250.539 232.454 258.21C231.655 261.918 230.617 265.558 229.789 269.246C229.142 272.115 228.799 275.307 230.094 278.052C231.693 281.435 235.148 281.912 238.498 282.055C242.591 282.226 246.693 282.407 250.786 282.579C258.981 282.932 267.176 283.284 275.362 283.627C283.547 283.97 291.752 284.333 299.938 284.676C304.03 284.847 308.133 285.028 312.225 285.2C314.272 285.286 316.318 285.381 318.374 285.467C320.154 285.533 322 285.533 323.685 284.876C327.264 283.475 328.568 279.729 329.862 276.423C331.157 273.116 332.261 269.637 333.146 266.139C334.974 258.935 335.944 251.52 336.392 244.106C337.296 228.867 336.021 213.523 334.612 198.351C333.118 182.207 331.043 166.101 328.425 150.1C327.864 146.679 327.721 142.133 323.742 140.904C321.991 140.37 320.03 140.637 318.231 140.703L312.054 140.932C303.821 141.228 295.588 141.533 287.355 141.828C270.965 142.419 254.584 143.019 238.194 143.61C234.158 143.753 230.122 143.906 226.077 144.048C223.022 144.163 223.012 148.928 226.077 148.814L226.106 148.804Z" fill="#FCC3A0"/>
<path d="M284.214 175.946C291.486 176.299 298.767 177.938 305.43 180.892C307.723 181.912 311.14 183.16 311.102 186.162C311.064 189.164 308.542 191.251 306.172 192.633C302.488 194.778 298.491 196.455 294.646 198.313C293.58 198.828 293.066 200.601 293.789 201.573C299.043 208.606 304.716 216.078 306.315 224.931C307.485 231.431 305.896 239.417 300.394 243.591C296.72 246.383 291.866 246.955 287.564 245.478C286.346 245.059 284.966 245.955 284.633 247.146C284.271 248.452 285.07 249.662 286.298 250.081C291.095 251.73 296.492 251.253 300.966 248.871C304.668 246.889 307.543 243.524 309.208 239.703C312.968 231.097 311.426 221.729 307.343 213.543C304.773 208.396 301.337 203.765 297.91 199.171L297.054 202.43C300.947 200.553 305.02 198.866 308.742 196.655C312.092 194.663 315.081 191.699 315.709 187.687C316.337 183.675 314.196 180.158 310.636 178.147C307.076 176.137 302.85 174.65 298.834 173.525C294.074 172.191 289.144 171.429 284.204 171.19C281.139 171.038 281.149 175.803 284.204 175.956L284.214 175.946Z" fill="#FCC3A0"/>
<path d="M225.307 144.944C211.448 174.65 190.318 200.915 164.296 220.814C160.907 223.406 157.043 226.78 157.671 231.002C158.004 233.241 159.594 235.062 161.079 236.777C180.153 258.63 194.982 284.19 204.5 311.608C233.283 279.93 265.463 251.339 300.319 226.504C308.39 220.757 316.595 215.201 324.447 209.159C325.722 208.177 327.141 206.843 326.864 205.242C326.665 204.079 325.618 203.278 324.637 202.602C293.313 181.045 255.536 168.913 227.734 142.962" fill="#FFF5E7"/>
<path d="M223.25 143.744C217.616 155.79 210.81 167.274 202.958 177.995C195.105 188.716 186.254 198.532 176.526 207.472C171.662 211.941 166.494 215.954 161.373 220.118C158.956 222.082 156.652 224.426 155.653 227.447C154.539 230.821 155.853 234.051 157.937 236.71C160.022 239.369 162.42 241.942 164.591 244.62C166.761 247.298 168.864 250.014 170.901 252.788C175.013 258.382 178.868 264.167 182.446 270.114C189.576 281.95 195.639 294.435 200.474 307.386C201.073 308.997 201.654 310.617 202.215 312.237C202.777 313.857 204.909 314.696 206.194 313.285C219.091 299.104 232.654 285.533 246.846 272.649C260.99 259.802 275.743 247.622 291.057 236.196C298.986 230.287 307.114 224.674 315.176 218.937C317.222 217.478 319.269 216.011 321.287 214.515C323.304 213.018 325.341 211.694 327.102 210.035C328.863 208.377 329.815 206.223 328.958 203.946C328.102 201.668 325.779 200.477 323.895 199.209C309.294 189.422 293.513 181.607 278.008 173.392C262.75 165.31 247.522 156.781 234.291 145.592C232.635 144.191 231.017 142.752 229.437 141.275C227.191 139.188 223.822 142.552 226.068 144.649C238.727 156.428 253.508 165.529 268.633 173.764C283.709 181.979 299.205 189.45 313.853 198.428C315.709 199.562 317.546 200.724 319.364 201.906C320.249 202.478 321.125 203.059 322 203.65C322.676 204.108 323.971 204.67 324.39 205.413C324.608 205.785 324.466 205.899 324.133 206.28C323.485 207.033 322.61 207.605 321.82 208.206C319.811 209.721 317.793 211.217 315.757 212.685C307.809 218.431 299.7 223.949 291.79 229.763C276.656 240.894 262.027 252.731 247.997 265.225C233.901 277.776 220.386 290.994 207.527 304.822C205.956 306.509 204.395 308.206 202.844 309.912L206.822 310.96C197.732 284.819 183.96 260.431 166.266 239.16C165.209 237.892 164.143 236.634 163.058 235.386C162.049 234.232 160.85 233.022 160.288 231.564C159.337 229.105 161.05 226.894 162.725 225.255C164.962 223.063 167.598 221.281 170.035 219.318C172.595 217.25 175.108 215.124 177.564 212.942C187.453 204.146 196.438 194.377 204.481 183.866C213.437 172.162 221.128 159.497 227.381 146.136C227.924 144.973 227.705 143.562 226.525 142.876C225.497 142.276 223.812 142.562 223.269 143.734L223.25 143.744Z" fill="#CB4027"/>
<path d="M214.55 197.675C222.127 198.304 229.798 197.513 237.099 195.388L234.415 191.89C225.02 204.07 210.048 210.293 196.123 215.649C194.924 216.106 194.096 217.25 194.458 218.584C194.772 219.728 196.18 220.709 197.389 220.252C212.637 214.391 228.266 207.615 238.526 194.311C239.84 192.605 237.67 190.279 235.842 190.813C228.913 192.833 221.755 193.529 214.56 192.929C213.275 192.824 212.18 194.101 212.18 195.311C212.18 196.693 213.275 197.589 214.56 197.694L214.55 197.675Z" fill="#CB4027"/>
<path d="M241.516 204.451C243.772 204.841 245.018 206.519 246.018 208.568C246.503 209.559 246.865 210.607 247.198 211.665C247.56 212.837 248.359 214.534 247.836 215.725C247.465 216.583 246.437 217.107 245.666 217.517C244.276 218.25 242.782 218.813 241.306 219.356C238.127 220.528 234.872 221.462 231.55 222.148C228.229 222.834 225.002 223.216 221.68 223.387C218.358 223.559 214.78 223.664 211.382 224.312C209.925 224.588 208.25 224.883 207.127 225.932C205.633 227.314 205.766 229.525 207.127 230.945C208.069 231.936 209.316 232.689 210.335 233.613C211.448 234.614 212.495 235.691 213.485 236.815C217.664 241.618 220.414 247.518 221.575 253.769C221.813 255.037 223.336 255.752 224.507 255.437C225.83 255.075 226.401 253.779 226.173 252.502C225.059 246.536 222.527 240.808 218.882 235.967C217.026 233.508 214.951 231.231 212.571 229.267C212.105 228.886 211.41 228.076 210.849 227.914L210.601 227.695C210.953 229.105 210.83 229.706 210.23 229.506C210.506 229.544 211.087 229.258 211.363 229.191C213.019 228.791 214.694 228.581 216.388 228.448C219.919 228.171 223.451 228.133 226.972 227.695C230.542 227.247 234.082 226.57 237.547 225.589C241.011 224.607 244.286 223.444 247.455 221.939C250.349 220.566 252.814 218.212 252.728 214.781C252.69 213.085 252.119 211.379 251.586 209.778C251.053 208.177 250.472 206.709 249.673 205.299C248.188 202.659 245.856 200.381 242.772 199.848C241.506 199.628 240.212 200.181 239.841 201.515C239.527 202.659 240.231 204.232 241.506 204.451H241.516Z" fill="#CB4027"/>
<path d="M234.072 156.6C234.71 156.285 234.596 156.809 234.187 156.076C233.93 155.609 233.825 155.008 233.673 154.484C233.282 153.093 232.892 151.673 232.702 150.243C232.369 147.622 232.835 145.202 234.881 143.458C236.728 141.885 239.374 140.951 241.715 140.351C242.877 140.046 244.276 139.808 245.37 140.322C246.37 140.799 246.674 141.494 246.57 142.333C246.417 143.61 247.778 144.716 248.949 144.716C250.367 144.716 251.176 143.62 251.329 142.333C251.757 138.836 248.578 135.91 245.351 135.405C241.944 134.871 238.413 136.215 235.357 137.616C232.521 138.921 229.97 140.98 228.733 143.906C227.343 147.193 227.809 150.834 228.657 154.198C229.113 156.018 229.542 158.02 230.77 159.497C232.197 161.222 234.463 161.679 236.452 160.707C237.604 160.145 237.918 158.496 237.309 157.448C236.623 156.266 235.215 156.028 234.053 156.59L234.072 156.6Z" fill="#B0DEDA"/>
<path d="M262.588 152.73C259.999 152.788 258.01 150.634 257.03 148.242C256.468 146.869 255.954 145.24 255.821 143.753C255.716 142.533 256.639 141.809 257.572 141.161C260.009 139.474 263.293 138.34 266.272 138.454C268.632 138.54 270.84 139.808 271.421 141.923C272.24 144.878 276.827 143.62 276.009 140.656C275.143 137.539 272.639 135.3 269.641 134.261C266.31 133.108 262.512 133.784 259.305 135.004C256.097 136.224 252.585 138.006 251.395 141.294C250.738 143.115 251.186 145.116 251.633 146.927C252.042 148.585 252.623 150.234 253.46 151.73C255.297 155.037 258.695 157.572 262.588 157.486C265.644 157.419 265.653 152.654 262.588 152.721V152.73Z" fill="#B0DEDA"/>
<path d="M284.594 153.379C283.843 153.359 282.938 152.997 282.367 152.492C281.558 151.768 281.025 150.977 280.74 150.081C280.416 149.061 280.368 148.08 280.606 146.955C280.892 145.65 281.377 144.592 282.11 143.467C282.777 142.438 283.624 141.399 284.633 140.646C284.909 140.437 285.537 140.113 285.708 140.065C285.822 140.027 286.669 139.912 286.174 139.941C286.403 139.931 286.622 139.941 286.841 139.941C287.126 139.97 287.136 139.96 286.879 139.931C287.031 139.96 287.174 139.989 287.317 140.027C287.536 140.084 287.754 140.151 287.964 140.227C287.555 140.074 288.335 140.418 288.421 140.475C288.611 140.589 288.811 140.713 288.992 140.846C288.649 140.58 289.287 141.17 289.354 141.228C289.715 141.561 289.306 141.066 289.534 141.447C289.582 141.523 289.991 142.295 289.81 141.866C289.925 142.142 290.001 142.438 290.058 142.733C290.324 143.991 291.8 144.725 292.989 144.401C294.293 144.039 294.922 142.733 294.655 141.466C294.084 138.75 291.971 136.691 289.458 135.71C286.945 134.728 283.966 135.214 281.749 136.92C277.009 140.56 274.02 147.441 276.885 153.102C278.37 156.018 281.311 158.067 284.604 158.163C285.889 158.201 286.984 157.038 286.984 155.78C286.984 154.455 285.898 153.436 284.604 153.398L284.594 153.379Z" fill="#B0DEDA"/>
<path d="M310.255 153.626C307.951 152.492 305.486 151.339 303.801 149.319C303.135 148.528 302.64 147.584 302.431 146.545C302.221 145.507 302.535 144.21 302.954 143.076C303.373 141.942 303.839 140.732 304.534 139.798C304.553 139.769 304.839 139.55 304.715 139.626C304.515 139.741 305.134 139.522 304.829 139.56C305.429 139.474 305.772 139.598 306.333 139.741C307.409 139.998 308.675 140.341 309.588 140.713C310.588 141.123 311.321 141.599 312.053 142.495C312.872 143.496 314.576 143.343 315.423 142.495C316.403 141.513 316.241 140.122 315.423 139.121C313.805 137.149 311.33 136.167 308.941 135.5C306.247 134.737 303.116 134.175 301.041 136.586C300.175 137.597 299.632 138.826 299.099 140.036C298.471 141.466 297.929 142.886 297.719 144.439C297.319 147.422 298.386 150.167 300.261 152.454C302.24 154.875 305.105 156.381 307.866 157.734C309.017 158.296 310.435 158.048 311.121 156.876C311.73 155.828 311.425 154.189 310.264 153.617L310.255 153.626Z" fill="#B0DEDA"/>
<path d="M256.011 165.177L249.853 168.503C248.759 169.094 248.321 170.704 248.996 171.762C249.71 172.877 251.081 173.249 252.252 172.62C254.308 171.514 256.354 170.399 258.41 169.294C259.504 168.703 259.942 167.092 259.267 166.035C258.553 164.92 257.182 164.548 256.011 165.177Z" fill="#FCC3A0"/>
<path d="M277.017 177.795C275.352 179.062 273.696 180.32 272.03 181.588C271.754 181.74 271.525 181.941 271.364 182.198C271.154 182.427 271.011 182.693 270.935 183.008C270.783 183.58 270.85 184.342 271.173 184.847C271.497 185.352 271.992 185.8 272.591 185.943C273.191 186.086 273.924 186.077 274.428 185.705C276.094 184.437 277.75 183.179 279.416 181.912C279.692 181.759 279.92 181.559 280.082 181.302C280.292 181.073 280.434 180.806 280.511 180.492C280.663 179.92 280.596 179.158 280.273 178.653C279.949 178.148 279.454 177.7 278.854 177.557C278.255 177.414 277.522 177.423 277.017 177.795Z" fill="#FCC3A0"/>
<path d="M301.546 190.26C301.517 190.384 301.489 190.499 301.451 190.613C301.422 190.708 301.279 191.061 301.451 190.67C301.622 190.279 301.451 190.642 301.422 190.708C301.374 190.794 301.327 190.88 301.27 190.966C301.213 191.051 301.155 191.137 301.108 191.223C300.87 191.604 301.489 190.784 301.184 191.128C301.051 191.28 300.918 191.442 300.765 191.585C300.451 191.9 300.118 192.195 299.775 192.471C299.614 192.605 299.442 192.738 299.28 192.872C299.052 193.053 299.728 192.529 299.414 192.767C299.319 192.843 299.214 192.919 299.119 192.995C297.339 194.368 295.702 195.855 294.274 197.599C293.865 198.104 293.579 198.609 293.579 199.285C293.579 199.867 293.836 200.572 294.274 200.972C295.15 201.773 296.796 202.002 297.643 200.972C298.338 200.124 299.081 199.314 299.88 198.561C300.28 198.18 300.689 197.818 301.108 197.465C301.317 197.294 301.536 197.113 301.746 196.951C302.05 196.712 301.746 196.941 301.622 197.046C301.717 196.96 301.822 196.893 301.926 196.817C303.735 195.416 305.619 193.891 306.143 191.528C306.409 190.318 305.781 188.888 304.477 188.593C303.269 188.316 301.841 188.955 301.546 190.26Z" fill="#FCC3A0"/>
<path d="M326.417 142.819C326.636 143.181 326.598 144.068 326.112 144.315C326.074 144.334 325.646 144.363 325.646 144.382C325.636 144.516 325.884 144.658 325.96 144.744C326.588 145.573 327.093 146.526 327.597 147.432C328.625 149.281 329.529 151.206 330.291 153.178C331.909 157.353 333.041 161.708 333.946 166.082C335.897 175.527 337.172 185.143 338.686 194.663C341.884 214.724 345.082 234.785 348.28 254.846C348.508 256.247 348.727 257.658 348.956 259.059C349.146 260.221 349.289 260.765 349.232 261.899C349.213 262.289 349.203 262.385 349.07 262.785C348.994 263.014 348.813 263.157 349.022 262.976C349.298 262.737 349.527 262.985 349.07 262.794C348.613 262.604 348.156 262.413 347.709 262.242C346.557 261.822 345.282 261.756 344.187 262.385C342.959 263.08 342.436 264.281 342.017 265.568C341.132 268.303 340.266 271.048 339.38 273.783L341.046 272.115C334.298 274.25 327.787 277.128 321.677 280.692L324.932 283.951C326.931 280.968 331.09 280.006 334.003 278.186C337.429 276.041 339.733 272.83 341.132 269.084C342.531 265.339 342.95 261.184 343.14 257.191C343.368 252.359 343.387 247.499 343.492 242.667C343.73 232.031 343.997 221.395 344.187 210.76C344.273 205.604 344.406 200.439 344.311 195.283C344.216 190.127 343.816 185.362 342.426 180.625C341.037 175.889 338.495 171.553 336.192 167.188C334.06 163.157 332.09 158.925 332.09 154.265C332.09 151.596 328.101 151.006 327.416 153.636C326.322 157.801 327.216 162.003 328.539 166.006C329.862 170.009 331.261 174.078 332.404 178.195C334.65 186.305 336.306 194.606 337.258 202.974C337.8 207.748 338.134 212.551 338.267 217.355C338.352 220.414 343.111 220.423 343.026 217.355C342.569 200.553 339.618 183.808 334.203 167.893C332.803 163.786 330.852 159.297 332.004 154.903L327.331 154.274C327.331 163.118 332.937 170.237 336.401 177.966C340.342 186.763 339.628 196.855 339.504 206.252C339.361 216.668 339.095 227.085 338.857 237.492C338.743 242.667 338.628 247.842 338.505 253.016C338.419 256.876 338.362 260.784 337.505 264.567C336.649 268.351 334.926 272.039 331.452 274.164C327.683 276.48 323.409 277.681 320.82 281.55C319.459 283.58 322.096 285.962 324.075 284.809C329.082 281.883 334.336 279.425 339.809 277.538C341.379 276.994 343.321 276.794 343.968 275.05C344.511 273.602 344.92 272.086 345.386 270.609C345.624 269.866 345.862 269.132 346.1 268.389C346.148 268.236 346.862 266.349 346.785 266.282L346.843 266.216L346.062 266.683C346.062 266.683 346.214 266.673 346.319 266.797C346.633 267.159 347.623 267.369 348.108 267.493C350.716 268.141 352.887 266.53 353.657 264.071C354.428 261.613 353.743 259.059 353.362 256.638C352.363 250.396 351.373 244.153 350.374 237.902C348.384 225.417 346.395 212.923 344.396 200.439C343.397 194.196 342.407 187.954 341.408 181.702C340.494 176.003 339.666 170.276 338.486 164.624C337.21 158.506 335.449 152.464 332.651 146.85C331.433 144.411 329.938 140.923 327.207 139.912C324.066 138.75 320.43 142.057 322.305 145.23C323.866 147.87 327.978 145.469 326.417 142.829V142.819Z" fill="#FCC3A0"/>
<path d="M259.629 165.12C276.99 163.957 294.417 163.862 311.788 164.843C316.737 165.12 321.686 165.491 326.626 165.949C327.911 166.063 329.006 164.767 329.006 163.566C329.006 162.184 327.911 161.298 326.626 161.184C309.294 159.592 291.876 159.068 274.486 159.621C269.527 159.783 264.578 160.031 259.629 160.355C258.344 160.44 257.249 161.384 257.249 162.737C257.249 163.957 258.344 165.205 259.629 165.12Z" fill="#FCC3A0"/>
<path d="M176.002 220.461C175.888 224.197 174.67 227.8 172.5 230.973C171.919 231.821 172.148 233.175 172.871 233.861C174.08 235.014 175.574 235.281 177.192 235.233C178.81 235.186 180.285 235.119 181.837 235.052C185.045 234.928 188.243 234.804 191.45 234.68C192.735 234.633 193.83 233.623 193.83 232.298C193.83 231.049 192.745 229.868 191.45 229.915C188.576 230.03 185.701 230.135 182.827 230.249C181.39 230.306 179.952 230.363 178.515 230.411C177.915 230.43 177.316 230.478 176.716 230.468C176.631 230.468 175.983 230.411 176.393 230.478C176.24 230.449 176.088 230.411 175.945 230.363C176.059 230.373 176.155 230.42 176.24 230.487L176.611 233.375C179.219 229.572 180.619 225.055 180.761 220.461C180.799 219.175 179.638 218.079 178.382 218.079C177.059 218.079 176.04 219.175 176.002 220.461Z" fill="#CB4027"/>
<path d="M146.668 70.3518C150.047 66.311 155.729 64.8243 160.983 65.2055C172.347 66.0441 182.532 75.4027 184.331 86.6769C184.978 90.7273 184.483 95.2827 181.637 98.237C180.914 98.9899 179.99 99.6475 178.943 99.7333C176.916 99.8953 175.393 98.0083 174.184 96.3786C169.064 89.4979 162.487 83.7226 155.015 79.5293C151.722 77.6805 148.01 75.8983 146.392 72.477" fill="#FCC3A0"/>
<path d="M131.152 2.86843L121.701 5.17354C112.906 7.31859 107.513 16.1962 109.655 25.0022L147.042 178.681C149.185 187.487 158.051 192.887 166.846 190.742L176.297 188.436C185.092 186.291 190.485 177.414 188.342 168.608L150.955 14.9292C148.813 6.12317 139.947 0.72338 131.152 2.86843Z" fill="#F47B4A" stroke="#CB4027" stroke-width="5" stroke-miterlimit="10"/>
<path d="M81.1553 67.5118C95.5276 61.6984 111.803 59.5731 126.633 64.0904C129.888 65.0816 133.048 66.3777 136.189 67.7024C145.488 71.6097 154.825 75.803 162.668 82.1596C183.208 98.8184 184.655 121.129 184.074 123.73C183.655 125.598 182.827 127.228 182.827 127.228C182.827 127.228 182.066 128.715 180.971 130.02C179.249 132.05 173.966 134.785 166.751 135.052C157.795 135.386 150.742 131.736 147.23 129.553C149.714 134.709 149.895 138.683 149.647 141.266C149.6 141.733 149.59 141.676 148.895 145.526C147.258 154.56 147.363 154.694 146.868 155.399C144.945 158.106 140.367 160.536 137.302 160.745C136.865 160.774 135.637 160.831 134.932 161.679C134.39 162.337 134.466 163.29 134.523 164.148C135.285 174.593 128.746 185.181 119.056 189.145C113.755 191.318 107.682 191.68 102.895 194.835C98.2022 197.923 95.3467 203.307 90.5591 206.252C85.3908 209.435 78.7758 209.235 72.9412 207.586C55.466 202.631 43.7207 186.715 33.3365 171.8C31.1093 168.598 28.8344 165.301 27.9302 161.498C26.3883 155.037 29.0533 148.385 31.6613 142.276C36.7249 130.411 41.798 118.527 47.9562 107.186C51.1353 101.315 54.7997 95.8259 58.4071 90.2222C60.6914 86.6769 62.1001 82.6647 64.6319 79.2815C68.8199 73.6778 74.7591 70.1135 81.1553 67.5213V67.5118Z" fill="#FCC3A0"/>
<path d="M64.5554 85.6477C71.7796 72.6771 86.7706 66.1966 100.981 64.7004C116.695 63.0421 132.81 66.4825 146.658 74.0304C160.745 81.7117 173.537 94.0914 179.182 109.378C181.675 116.125 183.103 125.103 176.583 129.934C171.529 133.68 164.381 133.908 158.537 132.05C150.646 129.534 144.165 123.759 137.597 118.946C130.297 113.6 122.292 109.368 113.688 106.528C111.546 105.823 109.367 105.204 107.168 104.679C104.189 103.955 102.923 108.549 105.902 109.273C115.125 111.503 123.872 115.334 131.753 120.642C139.111 125.598 145.707 131.821 153.93 135.367C160.935 138.388 168.95 138.95 176.012 135.757C179.201 134.318 182.008 131.907 183.769 128.857C186.13 124.769 186.415 119.994 185.721 115.42C184.331 106.328 179.381 97.7796 173.785 90.651C168.188 83.5224 161.897 78.0045 154.673 73.2775C140.51 64.0142 123.425 59.0585 106.502 59.5636C90.7968 60.0306 73.7309 65.4437 63.7559 78.2713C62.5281 79.8533 61.4145 81.4925 60.4341 83.2365C58.9398 85.9145 63.0516 88.3256 64.5459 85.6381L64.5554 85.6477Z" fill="#F68E76"/>
<path d="M143.613 129.353C145.83 134.652 147.306 140.36 147.134 146.145C147.077 148.166 146.83 150.024 146.183 151.959C145.945 152.664 145.83 152.988 145.355 153.779C145.278 153.912 144.698 154.722 145.012 154.322C144.774 154.618 144.507 154.884 144.222 155.142C142.661 156.543 140.805 157.639 139.044 158.096C138.93 158.125 138.501 158.296 138.397 158.239C138.368 158.22 139.139 158.239 138.778 158.182C138.159 158.077 137.416 158.172 136.788 158.144C136.027 158.115 135.237 158.077 134.494 158.277C133.152 158.63 132.153 159.592 131.858 160.965C131.563 162.337 132.182 163.395 132.676 164.605C132.486 164.138 132.781 165.101 132.81 165.272C132.952 166.006 132.791 164.824 132.848 165.615C132.857 165.787 132.867 165.968 132.876 166.139C132.905 167.14 132.819 168.131 132.648 169.094C131.772 173.916 129.64 178.738 126.318 182.369C123.52 185.429 119.837 187.849 116.077 189.193C115.23 189.498 114.364 189.755 113.488 189.965C113.107 190.06 112.727 190.136 112.336 190.213C112.155 190.251 111.965 190.279 111.784 190.308C111.289 190.394 112.089 190.289 111.47 190.346C110.823 190.403 110.176 190.451 109.519 190.422C109.291 190.413 108.491 190.241 109.233 190.422C108.758 190.308 108.263 190.222 107.777 190.175C103.104 189.66 99.9152 193.882 97.7166 197.389C95.8986 200.277 93.3002 202.135 89.8737 203.326C85.9332 204.699 81.8594 205.204 77.6905 205.051C73.5216 204.899 69.3622 203.65 65.3646 201.563C60.4342 198.98 56.0464 195.531 51.9441 191.795C47.8418 188.059 43.6824 183.951 39.9894 179.644C36.5915 175.689 33.441 171.286 31.5374 166.397C30.1858 162.909 29.4434 159.221 29.5291 155.485C29.5386 154.903 29.5767 154.322 29.6338 153.741C29.6623 153.436 29.7004 153.131 29.7289 152.826C29.6528 153.436 29.8146 152.311 29.8432 152.13C30.1097 150.615 30.4809 149.119 30.9187 147.641C33.5838 138.731 38.0477 130.316 42.3689 122.11C47.4897 112.37 53.0958 102.878 59.1303 93.6721C60.9006 90.9655 62.7091 88.2875 64.5556 85.6382C65.2885 84.5803 64.7459 82.9888 63.699 82.3788C62.5187 81.6831 61.1767 82.1692 60.4438 83.2365C53.4861 93.2623 47.0328 103.631 41.1602 114.324C36.2393 123.273 31.4422 132.45 27.8253 142.019C25.4839 148.213 24.1799 154.465 25.1793 161.069C26.9211 172.601 35.0971 181.931 43.0543 189.87C47.2898 194.091 51.6776 198.17 56.5318 201.668C60.9577 204.851 66.0309 207.758 71.38 209.016C75.7108 210.035 80.2509 210.026 84.6387 209.416C89.0266 208.806 93.4144 207.567 96.9932 205.032C98.6969 203.822 100.144 202.402 101.286 200.639C102.285 199.095 103.104 197.646 104.37 196.369C105.636 195.092 106.511 194.778 108.11 195.035C109.709 195.292 111.394 195.159 113.05 194.892C122.321 193.386 130.63 186.839 134.571 178.376C136.579 174.059 138.387 168.703 137.369 163.89C137.255 163.366 137.074 162.88 136.855 162.385C136.788 162.223 136.474 161.698 136.579 161.803L136.503 161.527C136.427 162.127 136.179 162.566 135.751 162.861C135.722 162.842 135.989 162.861 136.055 162.871C136.826 163.014 137.788 162.975 138.578 162.937C139.948 162.871 141.195 162.432 142.442 161.88C146.63 160.021 149.685 156.991 150.97 152.578C152.398 147.67 152.065 142.285 151.084 137.33C150.456 134.147 149.457 131.059 148.21 128.066C147.715 126.885 146.639 126.027 145.278 126.399C144.165 126.704 143.118 128.133 143.613 129.334V129.353Z" fill="#F68E76"/>
<path d="M136.408 161.136C130.659 148.099 119.837 137.358 106.759 131.726C105.579 131.221 104.208 131.373 103.504 132.584C102.914 133.584 103.171 135.328 104.361 135.843C116.81 141.199 126.823 151.129 132.296 163.538C132.82 164.719 134.533 164.986 135.551 164.395C136.76 163.69 136.922 162.318 136.408 161.136Z" fill="#F68E76"/>
<path d="M109.053 191.232C103.942 175.136 88.2843 167.016 74.0738 160.278C72.9126 159.726 71.5039 159.954 70.8186 161.136C70.2095 162.175 70.5046 163.843 71.6753 164.396C84.5818 170.514 99.7822 177.766 104.465 192.5C105.388 195.407 109.986 194.168 109.053 191.232Z" fill="#F68E76"/>
<path d="M153.958 188.955C153.873 190.022 154.549 190.68 156.1 192.548C159.317 196.417 176.069 217.24 178.011 218.27C178.439 218.498 178.772 218.384 178.772 218.384C179.229 218.222 179.438 217.612 179.524 217.364C181.342 211.856 184.93 192.519 187.652 184.066C187.833 183.494 188.033 182.922 187.824 182.312C185.911 176.67 154.51 181.96 153.958 188.955Z" fill="#FFE6C2"/>
<path d="M170.93 210.255C171.653 209.54 173.642 207.758 176.802 207.195C179.353 206.748 181.409 207.31 182.38 207.653C181.695 211.141 181.047 213.99 180.543 216.125C180.315 217.097 179.991 218.346 179.163 218.584C178.287 218.832 177.297 217.793 176.46 216.897C175.032 215.353 173.119 213.161 170.93 210.264V210.255Z" fill="#CB4027"/>
</g>
<defs>
<clipPath id="clip0_2012_7459">
<rect width="411" height="314" fill="white" transform="translate(-57)"/>
</clipPath>
</defs>
</svg>
