<svg width="282" height="225" viewBox="0 0 282 225" fill="none" xmlns="http://www.w3.org/2000/svg">
<path d="M244.693 57.688L123.753 32.4356C117.709 31.1735 111.785 35.0503 110.523 41.0947L80.8455 183.23C79.5834 189.275 83.4602 195.198 89.5046 196.46L210.445 221.712C216.489 222.974 222.412 219.097 223.675 213.053L253.352 70.9175C254.615 64.8731 250.738 58.95 244.693 57.688Z" fill="#B0DEDA" stroke="#0E5E6A" stroke-width="5" stroke-miterlimit="10"/>
<path d="M233.839 73.7443L130.238 52.1124C125.495 51.1221 120.848 54.164 119.857 58.9067L96.5416 170.572C95.5513 175.315 98.5933 179.962 103.336 180.952L206.937 202.584C211.68 203.575 216.327 200.533 217.317 195.79L240.633 84.1247C241.623 79.3821 238.581 74.7346 233.839 73.7443Z" fill="#FFF5E7" stroke="#FCC3A0" stroke-width="5" stroke-miterlimit="10"/>
<path d="M127.381 82.6827C129.738 86.5852 132.094 90.4877 134.457 94.3915C135.008 95.3041 136.622 95.3036 137.048 94.2579C139.956 87.0872 142.872 79.9119 145.78 72.7412C146.084 71.9889 145.899 71.11 145.129 70.716C144.458 70.3736 143.415 70.6097 143.104 71.3666C140.196 78.5373 137.281 85.7127 134.373 92.8834L136.965 92.7498C134.608 88.8473 132.252 84.9448 129.889 81.0411C128.886 79.3839 126.377 81.0314 127.374 82.6873L127.381 82.6827Z" fill="#FCC3A0"/>
<path d="M120.002 118.02C122.359 121.922 124.715 125.825 127.078 129.728C127.629 130.641 129.243 130.64 129.67 129.595C132.578 122.424 135.493 115.249 138.401 108.078C138.705 107.326 138.521 106.447 137.75 106.053C137.08 105.71 136.036 105.947 135.725 106.704C132.817 113.874 129.902 121.05 126.994 128.22L129.586 128.087C127.229 124.184 124.873 120.282 122.511 116.378C121.507 114.721 118.998 116.368 119.995 118.024L120.002 118.02Z" fill="#FCC3A0"/>
<path d="M112.877 152.14C115.234 156.042 117.59 159.945 119.953 163.848C120.504 164.761 122.118 164.761 122.545 163.715C125.453 156.544 128.368 149.369 131.276 142.198C131.58 141.446 131.396 140.567 130.625 140.173C129.955 139.831 128.911 140.067 128.6 140.824C125.692 147.994 122.777 155.17 119.869 162.34L122.461 162.207C120.104 158.304 117.748 154.402 115.386 150.498C114.382 148.841 111.873 150.488 112.87 152.144L112.877 152.14Z" fill="#FCC3A0"/>
<path d="M152.151 90.5532C168.219 93.0371 184.219 95.9915 200.115 99.4149C204.6 100.382 209.077 101.384 213.547 102.422C215.431 102.858 216.044 99.9192 214.16 99.4829C198.324 95.8021 182.38 92.5774 166.35 89.8253C161.827 89.0464 157.3 88.3098 152.766 87.6085C150.865 87.3157 150.239 90.2521 152.153 90.5474L152.151 90.5532Z" fill="#FCC3A0"/>
<path d="M143.567 125.252C159.635 127.736 175.635 130.691 191.531 134.114C196.016 135.081 200.493 136.083 204.963 137.121C206.847 137.557 207.46 134.618 205.576 134.182C189.74 130.501 173.796 127.277 157.766 124.525C153.243 123.746 148.716 123.009 144.182 122.308C142.281 122.015 141.655 124.951 143.569 125.247L143.567 125.252Z" fill="#FCC3A0"/>
<path d="M136.954 163.332C153.022 165.815 169.022 168.77 184.918 172.193C189.402 173.16 193.88 174.163 198.349 175.2C200.233 175.636 200.847 172.698 198.963 172.261C183.127 168.58 167.183 165.356 151.153 162.604C146.629 161.825 142.103 161.088 137.569 160.387C135.667 160.094 135.042 163.03 136.955 163.326L136.954 163.332Z" fill="#FCC3A0"/>
<path d="M210.963 61.3558L160.173 50.7509C158.872 50.4791 157.596 51.314 157.324 52.6158L155.94 59.2459C155.668 60.5476 156.503 61.8232 157.805 62.095L208.594 72.6998C209.896 72.9716 211.172 72.1367 211.443 70.835L212.828 64.2049C213.1 62.9032 212.265 61.6276 210.963 61.3558Z" fill="#0E5E6A" stroke="#B0DEDA" stroke-width="5" stroke-miterlimit="10"/>
<path d="M215.484 39.7015L164.695 29.0966C163.393 28.8248 162.118 29.6597 161.846 30.9615L158.072 49.0355C157.8 50.3372 158.635 51.6128 159.937 51.8846L210.726 62.4895C212.028 62.7613 213.304 61.9264 213.575 60.6247L217.349 42.5506C217.621 41.2489 216.786 39.9733 215.484 39.7015Z" fill="#0E5E6A" stroke="#B0DEDA" stroke-width="5" stroke-miterlimit="10"/>
<path d="M42.7592 36.3232L28.011 37.501C26.7483 37.6018 25.8064 38.7073 25.9072 39.97L33.9105 140.184C34.0114 141.447 35.1168 142.389 36.3796 142.288L51.1277 141.11C52.3905 141.009 53.3324 139.904 53.2315 138.641L45.2282 38.427C45.1274 37.1643 44.0219 36.2223 42.7592 36.3232Z" fill="#FFF5E7" stroke="#FCC3A0" stroke-width="5" stroke-miterlimit="10"/>
<path d="M35.6885 42.9549C41.123 42.5208 45.4047 40.6174 45.2518 38.7034C45.099 36.7895 40.5695 35.5897 35.135 36.0237C29.7005 36.4577 25.4188 38.3612 25.5717 40.2751C25.7245 42.1891 30.254 43.3889 35.6885 42.9549Z" fill="#FCC3A0" stroke="#FFF5E7" stroke-width="5" stroke-miterlimit="10"/>
<path d="M38.1275 147.916C40.3796 151.349 42.6962 154.385 44.9455 157.038C46.4108 155.044 48.0773 152.38 49.4927 149.038C50.5826 146.462 51.2704 144.079 51.7102 142.06C46.2552 142.51 40.8061 142.961 35.3511 143.411C36.1972 144.882 37.1218 146.387 38.1263 147.922L38.1275 147.916Z" fill="#FCC3A0"/>
<path d="M36.8756 148.741C38.9673 151.914 41.2391 154.958 43.6935 157.863C44.2497 158.519 45.431 158.913 46.066 158.046C49.4937 153.351 51.9268 148.044 53.1865 142.363C53.3946 141.425 52.5866 140.478 51.6249 140.559C46.1699 141.009 40.7208 141.46 35.2658 141.909C34.0991 142.003 33.5375 143.254 34.1062 144.231C34.9895 145.759 35.92 147.266 36.8815 148.742C37.9418 150.362 40.4511 148.715 39.3966 147.096C38.4293 145.618 37.5047 144.113 36.6214 142.585L35.4619 144.907C40.9169 144.457 46.366 144.006 51.821 143.556L50.2594 141.752C49.1255 146.889 46.9574 151.779 43.8491 156.031L46.2217 156.213C43.7673 153.309 41.4955 150.264 39.4037 147.092C38.3422 145.478 35.8283 147.118 36.8886 148.738L36.8756 148.741Z" fill="#0E5E6A"/>
<path d="M107.933 150.217C107.094 154.072 104.667 157.301 101.822 159.78C98.9774 162.259 95.4324 164.494 91.8399 165.866C88.2474 167.239 84.4855 167.815 80.896 166.802C77.9305 165.962 75.2701 163.824 73.6958 161.035C72.9517 159.72 72.4616 158.226 72.3703 156.673C72.2791 155.121 72.4339 153.153 73.6173 152.118C74.8007 151.083 76.7086 151.647 77.8213 152.45C78.9987 153.297 79.8183 154.658 80.2462 156.097C81.2402 159.458 79.7773 162.894 77.316 165.171C74.4586 167.819 70.6996 168.654 67.0715 168.534C63.4434 168.414 59.5413 167.373 56.1532 165.831C52.7652 164.289 49.8487 162.288 47.6243 159.37C47.0612 158.633 46.5607 157.841 46.1058 157.023C45.1959 155.385 42.8367 157.064 43.7412 158.7C48.0577 166.478 56.9256 170.525 65.1506 171.384C69.5828 171.849 74.2687 171.208 78.0324 168.308C81.3369 165.753 83.8262 161.543 83.3053 157.116C82.8158 152.947 79.9978 148.948 75.8659 148.625C73.4915 148.442 71.3014 149.666 70.3181 152.086C69.4776 154.149 69.4003 156.427 69.7936 158.576C70.526 162.563 73.1525 165.872 76.2997 167.94C79.8325 170.26 84.204 170.743 88.3072 169.95C92.7009 169.101 96.8643 167.038 100.609 164.391C104.354 161.744 107.737 158.433 109.593 154.122C110.05 153.052 110.414 151.932 110.658 150.793C111.069 148.903 108.343 148.334 107.932 150.223L107.933 150.217Z" fill="#0E5E6A"/>
<path d="M224.666 69.1552C223.811 73.1723 220.799 76.0827 217.776 78.1933C214.504 80.4852 210.787 82.2424 207.029 82.9299C203.271 83.6173 199.564 83.2603 196.36 81.2419C193.877 79.6746 191.425 76.9052 191.252 73.5138C191.174 72.0254 191.515 70.0786 193.151 69.8006C194.787 69.5226 196.433 70.4368 197.521 71.7191C198.493 72.8605 199.095 74.4828 199.036 76.1084C198.978 77.7339 198.06 79.3581 196.963 80.5274C194.158 83.5302 189.821 84.25 186.225 83.9532C183.293 83.7091 180.468 82.8002 177.673 81.9284C170.869 79.8145 164.208 77.2215 157.682 74.2947C156.625 73.8223 155.566 73.3313 154.517 72.8424C153.866 72.541 153.071 72.7798 152.707 73.5381C152.379 74.2301 152.581 75.2292 153.235 75.5376C160.846 79.0956 168.641 82.2322 176.617 84.7379C179.796 85.7331 182.991 86.762 186.34 86.9461C190.779 87.192 195.675 86.0736 199.029 82.3268C200.501 80.6836 201.507 78.532 201.671 76.2475C201.824 74.1448 201.167 71.9835 200.051 70.3702C198.798 68.5567 197.011 67.2268 194.934 66.8788C192.653 66.4946 190.202 67.3877 189.18 69.9835C187.528 74.1656 189.445 78.6755 192.064 81.4737C195.083 84.6924 199.154 86.1804 203.366 86.244C207.847 86.3088 212.32 84.7093 216.371 82.4145C220.158 80.2671 224.014 77.3244 226.114 73.0396C226.629 71.9941 227.013 70.8536 227.254 69.7016C227.654 67.81 225.066 67.2695 224.665 69.161L224.666 69.1552Z" fill="#B0DEDA"/>
<path d="M277.677 13.7238L271.784 8.77229C270.814 7.95744 269.367 8.08316 268.552 9.05309L228.642 56.5583C227.828 57.5282 227.953 58.9751 228.923 59.7899L234.817 64.7415C235.787 65.5563 237.234 65.4306 238.049 64.4607L277.958 16.9554C278.773 15.9855 278.647 14.5387 277.677 13.7238Z" fill="#FFF5E7" stroke="#FCC3A0" stroke-width="5" stroke-miterlimit="10"/>
<path d="M278.372 16.4449C279.154 15.513 277.644 12.9558 274.999 10.7331C272.353 8.51035 269.573 7.4639 268.791 8.39575C268.008 9.32759 269.518 11.8849 272.164 14.1076C274.809 16.3303 277.589 17.3767 278.372 16.4449Z" fill="#FCC3A0" stroke="#FFF5E7" stroke-width="5" stroke-miterlimit="10"/>
<path d="M226.553 62.5783C226.039 65.127 225.734 67.5291 225.57 69.7275C227.118 69.4804 229.06 69.021 231.183 68.1392C232.821 67.463 234.19 66.6938 235.29 65.9789C232.626 63.7542 229.968 61.5308 227.304 59.3061C227.031 60.3472 226.78 61.4355 226.553 62.5783Z" fill="#FCC3A0"/>
<path d="M225.083 62.272C224.614 64.6339 224.288 67.0194 224.099 69.4213C224.063 69.9168 224.105 70.3057 224.44 70.6948C224.726 71.0305 225.203 71.3019 225.667 71.2269C229.394 70.6189 232.941 69.2923 236.112 67.237C236.899 66.7267 237.041 65.4867 236.294 64.8645C233.63 62.6398 230.972 60.4164 228.309 58.1917C227.41 57.4399 226.122 57.8824 225.833 58.9999C225.545 60.1173 225.299 61.1763 225.083 62.272C224.917 63.0655 225.446 63.8814 226.245 64.0483C227.045 64.2152 227.861 63.6863 228.022 62.8857C228.244 61.7912 228.497 60.6969 228.772 59.6135L226.297 60.4216C228.961 62.6463 231.619 64.8697 234.283 67.0944L234.465 64.7218C233.054 65.6355 231.603 66.3875 230.037 66.9808C229.211 67.2929 228.37 67.5649 227.513 67.7909C226.656 68.0168 226.2 68.1119 225.476 68.2306L227.038 70.0349C227.227 67.633 227.553 65.2475 228.022 62.8857C228.181 62.0909 227.658 61.2763 226.859 61.1094C226.06 60.9425 225.244 61.4714 225.083 62.272Z" fill="#0E5E6A"/>
<path opacity="0.85" d="M139.186 110.666C140.338 110.906 141.468 110.167 141.708 109.015C141.949 107.862 141.21 106.733 140.057 106.492C138.905 106.252 137.776 106.991 137.535 108.143C137.294 109.296 138.034 110.425 139.186 110.666Z" fill="#F47B4A"/>
</svg>
