<svg width="384" height="504" viewBox="0 0 384 504" fill="none" xmlns="http://www.w3.org/2000/svg">
<path d="M70.8126 472.04C31.9341 484.512 -20.1717 435.935 -44.7735 395.083C-72.5625 348.94 -86.5029 277.399 -56.232 251.706C-46.8687 243.762 -39.2841 240.476 -0.849843 243.714C54.4935 248.372 110.645 237.463 165.615 245.295C178.825 247.174 194.76 253.231 195.702 266.507C196.169 273.138 192.466 279.286 188.91 284.929C169.122 316.36 152.428 349.776 130.968 380.101C83.1456 447.666 92.5527 465.076 70.8038 472.054L70.8126 472.04Z" fill="#FFF5E7"/>
<path d="M81.1373 115.499C83.7661 108.898 86.9872 102.527 90.7429 96.4815C91.1747 95.7843 91.6125 95.0959 92.0578 94.409C92.2923 94.0447 92.5343 93.6817 92.7674 93.3248C92.8758 93.168 92.9782 93.0022 93.0866 92.8454C93.636 92.024 92.6203 93.5206 93.1832 92.7095C94.193 91.2426 95.2225 89.7949 96.2864 88.3693C98.3907 85.5598 100.612 82.8268 102.937 80.1986C105.262 77.5704 107.77 74.9617 110.351 72.4982C111.603 71.3016 112.888 70.1345 114.187 68.9778C114.893 68.3485 113.766 69.345 114.216 68.9523C114.402 68.7949 114.581 68.6361 114.767 68.4787C115.057 68.2254 115.354 67.981 115.652 67.7292C116.388 67.1056 117.137 66.4923 117.885 65.8865C123.365 61.4759 129.209 57.5057 135.348 54.0552C136.229 53.5599 137.117 53.0735 138.011 52.5959C138.437 52.3685 138.86 52.1484 139.293 51.9224C139.51 51.8094 139.725 51.7038 139.941 51.5908C140.131 51.4958 140.92 51.0755 140.105 51.5064C141.797 50.6025 143.589 49.8257 145.35 49.0507C149.057 47.4205 152.852 45.977 156.713 44.7158C158.613 44.0988 159.811 41.7491 159.05 39.8816C158.289 38.0141 156.221 36.908 154.187 37.569C140.26 42.1005 127.111 49.1281 115.551 58.0813C103.752 67.2205 93.6088 78.2284 85.4648 90.6921C81.047 97.4601 77.3005 104.65 74.3113 112.139C73.5788 113.976 74.0389 116.349 76.0296 117.216C77.7907 117.986 80.3621 117.474 81.1448 115.5L81.1373 115.499Z" fill="#FCC3A0"/>
<path d="M93.1288 57.6132C96.2362 53.768 99.5977 50.1335 103.198 46.7456C104.102 45.8994 105.018 45.0709 105.94 44.2512C106.261 43.965 105.79 44.3846 105.763 44.4026C105.875 44.3082 105.988 44.2063 106.1 44.1118C106.325 43.9155 106.548 43.7266 106.781 43.5318C107.274 43.1165 107.767 42.7013 108.266 42.2949C110.181 40.7309 112.147 39.2231 114.169 37.7877C118.242 34.884 122.51 32.2569 126.93 29.9215C127.459 29.6442 127.985 29.3744 128.512 29.1046C128.642 29.0368 128.779 28.9704 128.909 28.9026C128.875 28.9192 128.315 29.1981 128.702 29.0096C129.011 28.8602 129.321 28.7034 129.638 28.5555C130.753 28.0199 131.874 27.4932 133.006 26.9917C135.269 25.9886 137.565 25.0611 139.892 24.2092C142.495 23.2557 145.141 22.4031 147.807 21.6468C149.14 21.2687 150.484 20.9158 151.837 20.5956C152.514 20.4317 153.189 20.2753 153.863 20.1263C154.01 20.0926 154.155 20.0663 154.301 20.0325C154.732 19.9373 154.493 19.9688 154.204 20.0526C154.582 19.9473 154.989 19.8939 155.369 19.8198C157.317 19.4359 159.148 17.9409 158.879 15.7428C158.657 13.9012 156.875 11.8462 154.781 12.2639C144.304 14.3361 134.296 17.7799 124.763 22.573C115.462 27.2485 106.916 33.1955 99.2047 40.1518C94.9404 43.9919 90.9906 48.1701 87.3911 52.6238C86.1407 54.1682 86.0821 56.6509 87.7354 57.9711C89.2881 59.2102 91.7862 59.2712 93.1199 57.6192L93.1288 57.6132Z" fill="#FCC3A0"/>
<path d="M144.696 289.845C137.362 290.08 130.029 290.307 122.696 290.512C118.466 290.633 114.235 290.747 110.005 290.822C108.877 290.845 107.742 290.875 106.607 290.845C106.44 290.845 106.274 290.83 106.115 290.822C105.623 290.807 106.228 290.648 106.463 290.875C106.44 290.853 106.039 290.769 106.047 290.762L106.599 290.974L107.742 294.688C107.636 294.514 108.083 294.324 107.689 294.718C107.848 294.559 108.007 294.392 108.166 294.233C108.605 293.786 109.051 293.346 109.498 292.899C111.095 291.3 112.699 289.693 114.296 288.094C121.402 280.977 128.508 273.852 135.614 266.735H130.264C131.27 267.667 132.239 268.637 133.17 269.646C133.775 270.297 134.358 270.972 134.926 271.662C135.069 271.828 135.206 272.003 135.342 272.177C135.41 272.268 135.478 272.351 135.554 272.442C135.811 272.761 135.296 272.101 135.312 272.124C135.592 272.586 135.97 273.003 136.288 273.443C137.529 275.194 138.634 277.043 139.542 278.983C139.663 279.241 139.754 279.605 139.92 279.825C139.92 279.817 139.64 279.135 139.799 279.537C139.845 279.658 139.898 279.787 139.951 279.908C140.163 280.454 140.359 280.999 140.541 281.56C140.904 282.697 141.199 283.857 141.404 285.032C141.426 285.168 141.449 285.305 141.472 285.449C141.57 286.002 141.381 285.433 141.457 285.274C141.366 285.486 141.547 286.176 141.563 286.404C141.608 287.078 141.631 287.753 141.616 288.427C141.6 289.14 141.532 289.845 141.479 290.557C141.54 289.746 141.404 290.997 141.358 291.232C141.267 291.702 141.161 292.164 141.048 292.626C140.571 294.551 141.661 296.825 143.689 297.288C145.717 297.75 147.836 296.696 148.343 294.642C149.759 288.897 149.282 282.872 147.034 277.399C145.15 272.814 142.456 268.728 139.171 265.022C138.044 263.749 136.848 262.536 135.607 261.376C134.108 259.982 131.747 259.883 130.256 261.376C123.597 268.054 116.937 274.724 110.27 281.401C108.673 283 107.069 284.607 105.472 286.207C103.701 287.98 101.294 289.776 100.636 292.3C100.136 294.241 100.961 296.333 102.634 297.409C103.678 298.083 104.783 298.296 106.001 298.387C106.592 298.432 107.182 298.425 107.772 298.425C116.687 298.379 125.61 298.015 134.517 297.742C137.907 297.636 141.298 297.53 144.688 297.424C146.663 297.363 148.563 295.726 148.472 293.634C148.381 291.542 146.807 289.776 144.688 289.845H144.696Z" fill="#FCC3A0"/>
<path d="M348.136 286.422C389.398 228.7 379.619 150.912 326.294 112.676C272.97 74.4413 196.292 90.2386 155.03 147.961C113.769 205.683 123.548 283.472 176.872 321.707C230.197 359.942 306.874 344.145 348.136 286.422Z" fill="#0E5E6A"/>
<path d="M311.513 97.1386C260.339 60.4543 185.327 77.6217 143.969 135.49C102.603 193.359 110.549 270.017 161.723 306.701C212.896 343.386 287.909 326.218 329.267 268.35C370.632 210.481 362.679 133.83 311.513 97.1386ZM306.162 251.781C275.709 294.385 220.487 307.027 182.814 280.014C145.142 253.001 139.292 196.573 169.745 153.969C200.198 111.365 255.42 98.7227 293.093 125.736C330.765 152.749 336.615 209.177 306.162 251.781Z" fill="#B0DEDA" stroke="#0E5E6A" stroke-width="5" stroke-miterlimit="10"/>
<path d="M307.697 256.582C338.151 213.979 332.3 157.545 294.629 130.534C256.957 103.522 201.73 116.162 171.276 158.765C140.822 201.368 146.673 257.802 184.344 284.813C222.016 311.825 277.243 299.185 307.697 256.582Z" fill="#0E5E6A"/>
<path d="M300.403 249.393C328.408 210.217 323.571 158.713 289.6 134.355C255.63 109.998 205.389 122.01 177.385 161.186C149.381 200.361 154.217 251.866 188.188 276.223C222.159 300.581 272.399 288.569 300.403 249.393Z" fill="#FFF5E7"/>
<path d="M249.057 211.751C251.456 207.589 250.493 202.534 246.906 200.46C243.319 198.386 238.467 200.078 236.068 204.24C233.668 208.402 234.632 213.457 238.219 215.531C241.806 217.605 246.658 215.913 249.057 211.751Z" fill="#0E5E6A"/>
<path d="M215.151 54.8004C243.349 56.7028 271.539 58.6052 299.737 60.5076C300.675 53.3224 301.061 39.9523 292.721 26.1881C288.347 18.965 280.704 6.3377 265.947 4.07904C252.218 1.97954 240.602 10.1047 236.069 13.2804C215.893 27.4008 215.174 49.8965 215.151 54.8004Z" fill="#FFF5E7"/>
<path d="M215.152 58.5899C237.144 60.0755 259.136 61.5535 281.128 63.039C287.334 63.4559 293.532 63.8728 299.737 64.2972C301.962 64.4488 303.272 62.4251 303.521 60.5075C305.118 48.1228 302.583 35.3363 296.181 24.5963C291.012 15.9255 284.7 7.21679 275.218 2.97233C268.679 0.0391033 261.649 -0.67336 254.603 0.615137C248.889 1.66109 243.418 4.10166 238.484 7.12584C233.981 9.89232 229.66 13.0908 226.019 16.926C222.152 21.0113 218.936 25.7484 216.628 30.8721C213.404 38.0119 211.603 45.7429 211.383 53.5875C211.376 53.9892 211.368 54.391 211.361 54.7927C211.353 56.7785 213.109 58.6733 215.144 58.5824C217.18 58.4914 218.921 56.9149 218.928 54.7927C218.928 53.8831 218.959 52.9736 219.012 52.0641C219.049 51.4047 219.102 50.7377 219.163 50.0783C219.193 49.7524 219.224 49.4264 219.261 49.1005C219.284 48.9035 219.307 48.714 219.329 48.5169C219.345 48.4184 219.352 48.3199 219.367 48.2137C219.428 47.7059 219.292 48.767 219.292 48.7595C219.927 44.8788 220.737 41.0891 222.077 37.3752C222.266 36.8598 222.455 36.352 222.659 35.8442C222.727 35.685 223.06 34.8967 222.803 35.4728C222.546 36.0488 222.773 35.5486 222.833 35.4046C222.909 35.2302 222.985 35.0559 223.06 34.8892C223.552 33.7901 224.082 32.7063 224.65 31.6452C225.217 30.5841 225.883 29.4472 226.564 28.386C226.905 27.8555 227.253 27.3325 227.616 26.8171C227.79 26.5746 227.964 26.332 228.138 26.0895C228.237 25.9531 228.343 25.809 228.441 25.6726C228.471 25.6347 228.986 24.9602 228.615 25.4377C228.244 25.9152 228.88 25.1117 228.971 24.9981C229.19 24.7252 229.417 24.4523 229.644 24.1795C230.114 23.6338 230.59 23.088 231.082 22.5651C232.066 21.504 233.103 20.4883 234.185 19.5257C234.73 19.0406 235.282 18.5707 235.842 18.1084C235.979 17.9947 236.97 17.2292 236.244 17.7825C236.561 17.5399 236.887 17.2974 237.212 17.0624C237.984 16.5016 238.779 15.9558 239.566 15.4177C241.329 14.2202 243.138 13.0908 245.015 12.0828C246.15 11.4688 247.308 10.8928 248.481 10.3698C248.602 10.3168 248.723 10.2637 248.836 10.2107C249.457 9.93779 248.746 10.2334 248.662 10.2864C248.957 10.1121 249.336 10.0136 249.661 9.88474C250.342 9.61946 251.039 9.37692 251.735 9.14954C253.142 8.68719 254.573 8.30822 256.018 8.02021C256.351 7.95199 256.692 7.89136 257.032 7.83072C257.237 7.79283 258.47 7.52755 257.502 7.74735C258.273 7.57302 259.136 7.5806 259.923 7.54271C261.558 7.46691 263.162 7.57302 264.797 7.70187C265.38 7.74735 264.176 7.59576 264.759 7.69429C264.91 7.71703 265.062 7.73977 265.206 7.76251C265.584 7.82314 265.962 7.89136 266.333 7.96715C267.067 8.11874 267.786 8.29307 268.505 8.49771C269.156 8.68719 269.807 8.89942 270.442 9.1268C270.738 9.23291 271.025 9.3466 271.313 9.46029C271.956 9.71041 271.222 9.39966 271.139 9.3845C271.335 9.41482 271.562 9.57398 271.737 9.65736C272.94 10.2182 274.105 10.8549 275.225 11.5674C275.755 11.9009 276.27 12.2571 276.777 12.6285C276.943 12.7497 277.367 12.962 277.473 13.1439C277.261 12.7725 276.966 12.7422 277.291 13.0074C277.45 13.1363 277.609 13.2651 277.768 13.394C278.729 14.1898 279.652 15.0387 280.53 15.9255C281.408 16.8123 282.195 17.6839 282.975 18.6086C283.338 19.0406 283.694 19.4878 284.049 19.935C284.405 20.3822 283.542 19.2605 284.14 20.0487C284.314 20.2837 284.488 20.5186 284.662 20.7536C285.904 22.4438 287.054 24.2022 288.151 25.9834C289.695 28.477 291.171 31.0085 292.382 33.684C292.465 33.8735 292.889 34.8588 292.616 34.1994C292.79 34.6163 292.957 35.0332 293.116 35.4576C293.433 36.2762 293.721 37.1099 293.993 37.9437C294.493 39.4823 294.924 41.0436 295.272 42.6277C295.431 43.3554 295.583 44.083 295.711 44.8106C295.772 45.1441 295.825 45.4776 295.878 45.8111C295.908 46.0006 295.938 46.19 295.961 46.3795C296.037 46.8873 296.067 46.7964 295.961 46.3492C296.264 47.6604 296.264 49.1384 296.324 50.48C296.445 52.8523 296.4 55.2398 296.218 57.6122C296.143 58.5748 296.037 59.5298 295.916 60.4848L299.7 56.6951C277.708 55.2095 255.715 53.7315 233.723 52.246C227.518 51.8291 221.32 51.4122 215.114 50.9878C213.131 50.8514 211.239 52.8296 211.33 54.7775C211.429 56.9452 212.995 58.4232 215.114 58.5672L215.152 58.5899Z" fill="#FCC3A0"/>
<path d="M366.659 77.4772C383.588 100.594 400.518 123.704 417.447 146.821C423.546 142.925 434.013 134.618 439.098 119.285C441.77 111.236 446.431 97.1761 438.538 84.2684C431.197 72.255 417.409 68.4729 412.028 66.9949C388.084 60.4236 370.428 74.347 366.667 77.4848L366.659 77.4772Z" fill="#FFF5E7"/>
<path d="M363.398 79.3951C376.596 97.4189 389.802 115.443 403 133.459C406.731 138.552 410.455 143.638 414.185 148.731C415.359 150.331 417.493 151.286 419.362 150.088C427.997 144.555 435.269 136.839 439.78 127.57C442.3 122.378 444.169 116.701 445.425 111.062C446.886 104.49 447.272 97.6084 445.531 91.0446C443.791 84.4809 439.924 78.4856 434.785 74.0592C430.517 70.3832 425.643 67.7228 420.414 65.6916C410.122 61.6972 398.989 60.3102 388.145 62.6977C379.684 64.5622 371.806 68.5869 365.033 73.9455C364.684 74.226 364.336 74.5064 363.996 74.7868C362.467 76.0602 362.581 78.8494 363.996 80.1455C365.623 81.6386 367.719 81.5022 369.346 80.1455C369.679 79.8726 370.012 79.5998 370.345 79.3345C370.436 79.2587 370.534 79.1905 370.625 79.1147C370.943 78.8646 369.717 79.8044 370.3 79.3724C370.557 79.1753 370.822 78.9782 371.079 78.7888C372.343 77.8641 373.637 76.9924 374.977 76.1739C376.672 75.1355 378.428 74.1881 380.229 73.3468C380.721 73.1118 381.213 72.892 381.712 72.6722C382.476 72.3311 381.114 72.9147 381.735 72.6646C382.053 72.5358 382.37 72.4069 382.688 72.2856C383.793 71.8536 384.913 71.4595 386.041 71.1108C388.538 70.3302 391.081 69.7617 393.669 69.3752C394.358 69.269 393.563 69.4055 393.465 69.4055C393.631 69.4055 393.836 69.36 394.01 69.3373C394.328 69.2994 394.645 69.269 394.971 69.2387C395.712 69.1705 396.462 69.1175 397.211 69.0796C398.717 69.0113 400.223 69.0189 401.721 69.0947C402.425 69.1326 403.129 69.1857 403.833 69.2539C404.241 69.2918 404.65 69.3448 405.059 69.3903C405.263 69.4131 405.747 69.3827 404.983 69.3752C405.187 69.3752 405.407 69.4358 405.604 69.4661C407.269 69.7238 408.918 70.0725 410.553 70.5045C412.188 70.9365 413.641 71.3534 415.162 71.846C416.1 72.1492 417.023 72.4751 417.947 72.8162C418.431 72.9981 418.915 73.1876 419.392 73.3847C419.491 73.4226 419.589 73.468 419.687 73.5059C420.134 73.6803 418.938 73.18 419.377 73.3771C419.68 73.5135 419.982 73.6424 420.285 73.7788C422.487 74.7793 424.622 75.9389 426.635 77.288C427.164 77.6443 427.679 78.0081 428.186 78.3871C428.292 78.4628 428.39 78.5386 428.496 78.622C428.905 78.9252 427.944 78.1748 428.345 78.5007C428.648 78.7509 428.95 78.9934 429.253 79.2435C430.275 80.1076 431.243 81.0323 432.151 82.01C432.621 82.5178 433.075 83.0332 433.506 83.5638C433.529 83.5941 433.779 83.8594 433.771 83.8897C433.801 83.8139 433.355 83.3288 433.695 83.7912C433.945 84.1322 434.195 84.4809 434.437 84.8295C435.383 86.2166 436.223 87.6794 436.927 89.2029C436.995 89.3544 437.063 89.5136 437.131 89.6652C437.381 90.1958 436.934 89.1346 437.131 89.6804C437.26 90.0366 437.411 90.3928 437.54 90.7566C437.827 91.56 438.077 92.3862 438.289 93.2124C438.486 93.9703 438.652 94.7358 438.788 95.5089C438.849 95.8576 438.932 96.2214 438.963 96.5776C438.955 96.4488 438.872 95.759 438.947 96.4791C438.97 96.7292 439 96.9793 439.023 97.237C439.159 98.7226 439.19 100.216 439.137 101.701C439.114 102.429 439.061 103.149 439 103.877C438.963 104.256 438.925 104.635 438.879 105.013C438.864 105.157 438.841 105.294 438.826 105.438C438.766 105.931 438.947 104.68 438.826 105.408C437.994 110.516 436.556 115.556 434.717 120.392C434.566 120.786 434.407 121.173 434.255 121.567C434.195 121.718 433.968 122.234 434.278 121.521C434.217 121.665 434.157 121.802 434.096 121.946C433.771 122.689 433.43 123.416 433.067 124.136C432.401 125.478 431.675 126.781 430.895 128.062C430.184 129.222 429.42 130.359 428.617 131.458C428.413 131.731 428.163 132.011 427.989 132.299C428.042 132.216 428.519 131.632 428.103 132.148C428.019 132.246 427.944 132.352 427.861 132.451C427.444 132.974 427.013 133.489 426.574 133.997C425.038 135.771 423.38 137.438 421.617 138.992C420.83 139.689 420.013 140.349 419.188 141.008C418.825 141.296 419.869 140.493 419.498 140.765C419.422 140.819 419.347 140.879 419.271 140.94C419.074 141.091 418.878 141.235 418.681 141.379C418.302 141.66 417.924 141.933 417.538 142.206C416.887 142.66 416.229 143.1 415.555 143.532L420.732 144.889C407.533 126.865 394.328 108.841 381.129 90.8248C377.398 85.7315 373.675 80.6457 369.944 75.5524C368.779 73.9607 366.607 73.0057 364.768 74.1956C363.194 75.2113 362.157 77.6746 363.413 79.38L363.398 79.3951Z" fill="#FCC3A0"/>
<path d="M207.569 337.352C210.725 344.871 213.896 352.39 217.089 359.893C218.732 363.759 220.366 367.624 222.069 371.46C223.03 373.635 224.022 375.893 226.474 376.742C228.093 377.303 229.902 376.704 231.135 375.605C232.157 374.688 232.641 373.43 233.111 372.18C233.943 369.944 234.775 367.7 235.6 365.457C239.271 355.55 242.949 345.637 246.619 335.73C246.929 334.889 246.717 333.547 246.241 332.812C245.673 331.925 244.947 331.471 243.978 331.069C235.918 327.726 226.504 326.044 217.99 328.598C214.479 329.652 211.398 331.402 208.545 333.669C206.986 334.912 207.153 337.754 208.545 339.027C210.195 340.543 212.239 340.354 213.896 339.027C213.366 339.452 214.448 338.633 214.554 338.557C214.925 338.3 215.303 338.057 215.689 337.822C216.431 337.375 217.203 336.996 217.975 336.617C218.701 336.261 217.407 336.807 218.232 336.511C218.626 336.367 219.012 336.223 219.405 336.087C220.185 335.829 220.972 335.617 221.766 335.442C222.107 335.366 222.455 335.298 222.803 335.238C223.015 335.2 224.12 334.972 223.129 335.169C223.885 335.018 224.71 335.01 225.482 334.98C226.912 334.919 228.343 334.965 229.766 335.094C230.136 335.124 230.5 335.169 230.87 335.207C231.294 335.26 231.234 335.253 230.674 335.177C230.855 335.2 231.029 335.23 231.203 335.26C231.809 335.359 232.414 335.465 233.02 335.586C234.215 335.829 235.404 336.124 236.577 336.465C238.408 336.996 240.202 337.64 241.957 338.368L239.316 333.707C236.213 342.082 233.111 350.457 230 358.832C229.213 360.954 228.426 363.077 227.639 365.199C227.268 366.199 226.897 367.207 226.527 368.208C226.33 368.739 226.133 369.269 225.936 369.8C225.883 369.936 225.755 370.451 225.671 370.505L225.868 370.05C225.815 370.163 225.762 370.27 225.702 370.376L225.641 370.482C225.959 369.966 226.436 369.625 227.056 369.459L228.434 369.815C229.758 370.406 230.167 370.474 229.652 370.012C229.743 370.103 230.099 370.747 229.826 370.201C229.758 370.065 229.667 369.929 229.599 369.792C229.463 369.534 229.342 369.262 229.213 368.996C228.986 368.504 228.767 368.011 228.547 367.518C224.99 359.492 221.623 351.382 218.21 343.294C218.088 343.014 217.975 342.734 217.854 342.453C217.725 342.15 217.301 341.134 217.824 342.385C217.612 341.877 217.392 341.369 217.18 340.862C216.809 339.99 216.446 339.118 216.083 338.247C215.674 337.276 215.266 336.299 214.857 335.329C214.448 334.358 214.047 333.608 213.116 333.062C212.307 332.585 211.111 332.388 210.203 332.683C208.455 333.252 206.737 335.389 207.562 337.345L207.569 337.352Z" fill="#FCC3A0"/>
<path d="M376.376 203.311C376.626 205.031 376.868 206.752 377.111 208.472C377.224 209.276 377.33 210.072 377.444 210.875C377.534 211.504 377.375 210.344 377.459 210.974C377.481 211.155 377.504 211.345 377.534 211.527C377.602 212.02 377.663 212.512 377.724 213.005C378.162 216.453 378.556 219.91 378.836 223.373C379.381 230.013 379.562 236.69 378.987 243.338C378.927 244.058 378.851 244.785 378.775 245.505C378.73 245.892 378.685 246.278 378.639 246.673C378.617 246.839 378.594 247.006 378.579 247.173C378.685 246.369 378.579 247.165 378.556 247.324C378.329 248.871 378.064 250.409 377.746 251.933C377.118 254.98 376.293 257.989 375.249 260.914C375.007 261.596 374.757 262.263 374.492 262.938C374.431 263.089 374.371 263.249 374.303 263.4C374.265 263.499 373.993 264.143 374.174 263.711C374.341 263.317 374.121 263.825 374.106 263.87C374.015 264.075 373.924 264.279 373.834 264.477C373.198 265.894 372.502 267.281 371.745 268.638C370.988 269.994 370.201 271.275 369.354 272.541C368.93 273.17 368.498 273.792 368.052 274.406C367.863 274.671 367.666 274.929 367.469 275.186C367.34 275.361 367.212 275.535 367.076 275.702C367.287 275.429 367.295 275.421 367.076 275.702C362.777 281.068 357.805 285.782 352.598 290.262C351.092 291.558 351.168 294.309 352.598 295.62C354.203 297.098 356.344 297 357.949 295.62C362.686 291.543 367.287 287.268 371.298 282.455C375.612 277.271 379.063 271.662 381.598 265.409C386.661 252.941 387.486 239.078 386.585 225.784C386.025 217.575 384.845 209.427 383.672 201.295C383.392 199.324 380.788 198.073 379.018 198.649C376.868 199.347 376.074 201.204 376.376 203.311Z" fill="#FCC3A0"/>
<path d="M400.049 219.311C400.11 219.705 400.17 220.099 400.215 220.493C400.2 220.372 400.11 219.659 400.2 220.372C400.223 220.569 400.253 220.766 400.276 220.963C400.374 221.751 400.458 222.54 400.533 223.328C400.685 224.904 400.806 226.488 400.881 228.073C401.04 231.286 401.048 234.515 400.904 237.729C400.836 239.313 400.73 240.897 400.586 242.473C400.518 243.216 400.443 243.951 400.367 244.694C400.321 245.088 400.276 245.482 400.231 245.877C400.208 246.074 400.178 246.271 400.155 246.468C400.034 247.438 400.231 245.93 400.155 246.491C399.701 249.681 399.133 252.857 398.407 255.995C397.68 259.133 396.848 262.15 395.864 265.174C395.372 266.682 394.85 268.183 394.297 269.668C394.017 270.411 393.737 271.154 393.442 271.889C393.314 272.215 393.185 272.533 393.049 272.852C392.973 273.034 392.897 273.215 392.822 273.405C392.648 273.837 393.087 272.791 392.799 273.458C390.271 279.332 387.259 284.994 383.733 290.33C382.749 291.815 381.735 293.278 380.675 294.718C380.411 295.074 380.146 295.438 379.873 295.787C379.752 295.946 379.631 296.105 379.51 296.257C379.813 295.855 379.707 295.999 379.465 296.31C378.92 297.015 378.36 297.704 377.792 298.394C375.491 301.183 373.039 303.851 370.451 306.383C369.036 307.77 368.96 310.37 370.451 311.742C371.942 313.113 374.288 313.22 375.802 311.742C385.299 302.449 393.026 291.3 398.482 279.18C404.067 266.781 407.443 253.524 408.336 239.942C408.828 232.363 408.434 224.791 407.329 217.287C407.042 215.316 404.453 214.066 402.675 214.642C400.526 215.339 399.724 217.196 400.034 219.303L400.049 219.311Z" fill="#FCC3A0"/>
<path d="M96.1996 329.008C91.1743 324.001 86.5928 318.546 82.5214 312.734C82.0513 312.065 81.5917 311.394 81.1364 310.717C80.8942 310.359 80.6563 309.995 80.4204 309.641C80.319 309.481 80.2072 309.322 80.1059 309.161C79.568 308.336 80.5422 309.853 80.0191 309.019C79.07 307.519 78.1462 306.009 77.2563 304.476C75.5055 301.448 73.8711 298.344 72.3738 295.187C70.8765 292.03 69.469 288.715 68.2235 285.39C67.6181 283.777 67.0528 282.145 66.5023 280.504C66.2025 279.613 66.6733 281.034 66.49 280.469C66.4188 280.237 66.3434 280.011 66.2723 279.779C66.1541 279.415 66.0465 279.048 65.9327 278.677C65.65 277.76 65.3821 276.835 65.1205 275.914C63.2291 269.18 61.8857 262.289 61.1355 255.335C61.0281 254.337 60.9312 253.336 60.8448 252.333C60.8035 251.856 60.7684 251.383 60.7314 250.9C60.7128 250.658 60.7006 250.42 60.682 250.179C60.6695 249.969 60.5945 249.084 60.6692 249.996C60.5059 248.098 60.4984 246.159 60.4802 244.25C60.4437 240.23 60.6132 236.204 60.9759 232.191C61.158 230.217 59.4725 228.196 57.4579 228.149C55.4432 228.103 53.6129 229.547 53.4189 231.66C52.0937 246.13 53.3669 260.881 57.0342 274.948C60.7784 289.306 66.8902 302.898 75.1265 315.246C79.6006 321.947 84.7265 328.204 90.4256 333.89C91.8234 335.284 94.1841 335.805 95.7646 334.337C97.1647 333.039 97.7078 330.495 96.2039 329.001L96.1996 329.008Z" fill="#FCC3A0"/>
<path d="M47.7726 295.171C45.466 290.82 43.4529 286.321 41.7605 281.702C41.3395 280.544 40.9396 279.383 40.5502 278.219C40.4135 277.814 40.6134 278.409 40.6193 278.44C40.5766 278.301 40.5277 278.158 40.485 278.019C40.3933 277.736 40.3079 277.458 40.2205 277.169C40.0335 276.556 39.8465 275.943 39.67 275.327C38.9882 272.965 38.3781 270.579 37.8565 268.17C36.7948 263.313 36.0637 258.388 35.6606 253.44C35.6141 252.849 35.5739 252.263 35.5337 251.676C35.5226 251.531 35.5157 251.38 35.5046 251.235C35.5063 251.273 35.542 251.893 35.5212 251.466C35.5057 251.126 35.4841 250.781 35.4729 250.435C35.4204 249.207 35.3784 247.978 35.3636 246.75C35.3342 244.292 35.3868 241.836 35.5212 239.38C35.6713 236.633 35.9306 233.887 36.2864 231.161C36.4643 229.798 36.6695 228.436 36.9083 227.078C37.0245 226.396 37.1471 225.72 37.2758 225.047C37.3026 224.9 37.3355 224.758 37.3622 224.611C37.4444 224.182 37.379 224.412 37.3424 224.707C37.3946 224.322 37.5058 223.93 37.5874 223.555C38.0022 221.63 37.3509 219.371 35.2266 218.746C33.4481 218.219 30.8594 219.027 30.4179 221.099C28.1935 231.455 27.4136 241.928 28.0594 252.503C28.689 262.819 30.7829 272.953 34.1329 282.726C35.9791 288.128 38.2597 293.378 40.9312 298.417C41.8567 300.167 44.1133 301.204 45.9767 300.222C47.7261 299.299 48.7662 297.049 47.7746 295.181L47.7726 295.171Z" fill="#FCC3A0"/>
<path d="M245.423 207.995C245.907 191.222 246.278 174.449 246.528 157.675C246.596 152.885 246.656 148.087 246.709 143.297C246.732 140.857 242.948 140.857 242.925 143.297C242.751 160.078 242.449 176.851 242.032 193.624C241.911 198.415 241.783 203.205 241.646 208.003C241.578 210.443 245.362 210.443 245.43 208.003L245.423 207.995Z" fill="#0E5E6A"/>
<path d="M239.997 208.442C230.113 217.068 219.95 225.359 209.491 233.265C206.509 235.523 203.497 237.744 200.47 239.942C199.645 240.541 199.237 241.587 199.789 242.534C200.266 243.353 201.545 243.815 202.377 243.216C213.199 235.357 223.756 227.133 234.003 218.538C236.917 216.097 239.8 213.619 242.668 211.125C243.44 210.451 243.357 209.132 242.668 208.442C241.904 207.677 240.769 207.768 239.989 208.442H239.997Z" fill="#0E5E6A"/>
<path d="M351.932 141.349C352.099 141.145 352.984 140.463 352.265 140.933C352.606 140.713 352.954 140.508 353.31 140.311C354.165 139.841 355.028 139.394 355.89 138.939C357.654 137.999 359.417 137.059 361.18 136.12C364.654 134.27 368.12 132.421 371.594 130.571C375.067 128.722 378.465 126.903 381.901 125.084C383.528 124.22 385.17 123.379 386.843 122.613C386.971 122.552 388.258 121.999 387.516 122.31C387.94 122.136 388.364 121.961 388.795 121.802C389.658 121.476 390.528 121.188 391.406 120.93C393.306 120.377 394.683 118.24 394.047 116.269C393.412 114.298 391.429 113.025 389.393 113.624C383.437 115.367 378.004 118.581 372.555 121.476C367.106 124.372 361.317 127.464 355.694 130.45C354.15 131.269 352.606 132.095 351.062 132.913C349.518 133.732 347.732 134.566 346.567 135.983C345.311 137.514 344.963 139.864 346.567 141.342C347.952 142.615 350.578 142.979 351.917 141.342L351.932 141.349Z" fill="#FCC3A0"/>
<path d="M253.633 73.8774C253.83 70.4439 253.709 67.0029 253.278 63.5922C253.149 62.5462 252.945 61.6897 252.173 60.9091C251.514 60.2497 250.44 59.757 249.494 59.8025C248.548 59.8479 247.503 60.1663 246.815 60.9091C246.187 61.5988 245.581 62.6144 245.71 63.5922C246.141 67.0029 246.262 70.4439 246.065 73.8774C245.952 75.8632 247.889 77.7581 249.849 77.6671C251.999 77.5686 253.512 75.9996 253.633 73.8774Z" fill="#FCC3A0"/>
</svg>
