<svg width="16" height="17" viewBox="0 0 16 17" fill="none" xmlns="http://www.w3.org/2000/svg">
<path fill-rule="evenodd" clip-rule="evenodd" d="M8 1.18605C7.81144 1.18605 7.62473 1.22184 7.45053 1.29138C7.27633 1.36091 7.11804 1.46284 6.98471 1.59133C6.85138 1.71982 6.74562 1.87236 6.67346 2.04024C6.6013 2.20812 6.56416 2.38805 6.56416 2.56977C6.56416 2.75148 6.6013 2.93141 6.67346 3.09929C6.74562 3.26718 6.85138 3.41972 6.98471 3.54821C7.11804 3.6767 7.27633 3.77862 7.45053 3.84816C7.62473 3.9177 7.81144 3.95349 8 3.95349C8.38081 3.95349 8.74602 3.8077 9.01529 3.54821C9.28456 3.28871 9.43584 2.93675 9.43584 2.56977C9.43584 2.20278 9.28456 1.85083 9.01529 1.59133C8.74602 1.33183 8.38081 1.18605 8 1.18605ZM5.33345 2.56977C5.33345 1.88822 5.61439 1.23459 6.11446 0.752667C6.61454 0.270742 7.29279 0 8 0C8.70721 0 9.38546 0.270742 9.88554 0.752667C10.3856 1.23459 10.6666 1.88822 10.6666 2.56977C10.6666 3.25131 10.3856 3.90494 9.88554 4.38687C9.38546 4.86879 8.70721 5.13953 8 5.13953C7.29279 5.13953 6.61454 4.86879 6.11446 4.38687C5.61439 3.90494 5.33345 3.25131 5.33345 2.56977ZM8 6.73674C7.76408 6.73414 7.52827 6.74788 7.29439 6.77786L6.56252 6.89647C4.9109 7.16451 3.69249 8.55851 3.69249 10.2C3.69295 10.6207 3.5862 11.0351 3.38163 11.4068C3.17705 11.7785 2.88091 12.0961 2.51921 12.3317L2.43716 12.3863C2.22816 12.5222 2.00101 12.6302 1.76191 12.7073L0.812613 13.0157C0.657897 13.066 0.48877 13.055 0.34244 12.9852C0.196111 12.9154 0.0845638 12.7924 0.0323388 12.6433C-0.0198863 12.4942 -0.00851146 12.3312 0.0639611 12.1901C0.136434 12.0491 0.264067 11.9416 0.418784 11.8913L1.36972 11.5829C1.50428 11.5392 1.63063 11.4791 1.74878 11.4027L1.83247 11.3481C2.02681 11.2209 2.18581 11.0498 2.29553 10.8496C2.40525 10.6494 2.46233 10.4264 2.46177 10.2C2.46177 7.98842 4.10519 6.09233 6.3574 5.72702L7.08763 5.60842C7.3897 5.56611 7.69479 5.54707 8 5.55149C8.30521 5.54707 8.6103 5.56611 8.91237 5.60842L9.6426 5.72702C11.8956 6.09233 13.5382 7.98842 13.5382 10.2C13.5382 10.6633 13.7762 11.0935 14.1684 11.3481L14.2512 11.4027C14.3699 11.4791 14.4965 11.5392 14.6311 11.5829L15.5812 11.8913C15.7359 11.9416 15.8636 12.0491 15.936 12.1901C16.0085 12.3312 16.0199 12.4942 15.9677 12.6433C15.9154 12.7924 15.8039 12.9154 15.6576 12.9852C15.5112 13.055 15.3421 13.066 15.1874 13.0157L14.2381 12.7073C13.9993 12.6301 13.7724 12.5221 13.5637 12.3863L13.4808 12.3317C13.1191 12.0961 12.8229 11.7785 12.6184 11.4068C12.4138 11.0351 12.3071 10.6207 12.3075 10.2C12.3075 8.55851 11.0891 7.16451 9.4383 6.89647L8.70643 6.77786C8.47253 6.74814 8.23672 6.73467 8.00082 6.73753M5.45734 11.3078C5.50582 11.2455 5.56657 11.193 5.6361 11.1533C5.70564 11.1136 5.7826 11.0875 5.8626 11.0765C5.9426 11.0655 6.02406 11.0698 6.10235 11.0891C6.18063 11.1084 6.25419 11.1424 6.31884 11.1892C6.38349 11.2359 6.43795 11.2944 6.47913 11.3614C6.5203 11.4285 6.54737 11.5026 6.5588 11.5797C6.57023 11.6568 6.56579 11.7353 6.54573 11.8108C6.52568 11.8862 6.4904 11.9571 6.44191 12.0194L5.68379 12.9943L5.66574 13.0173C5.57903 13.1327 5.48591 13.2436 5.38678 13.3493C5.15558 13.5828 4.87335 13.7638 4.56056 13.8791C4.43338 13.925 4.30129 13.9566 4.13391 13.9977L4.10519 14.004L2.63325 14.3591C2.45241 14.4035 2.29458 14.51 2.18931 14.6585C2.08405 14.807 2.03859 14.9874 2.06143 15.1659C2.08426 15.3444 2.17384 15.5088 2.31339 15.6282C2.45293 15.7477 2.63287 15.814 2.8195 15.8147H3.38071C4.64917 15.8147 5.88317 15.4186 6.8981 14.6848L8.45126 13.5605C8.51591 13.5137 8.58948 13.4797 8.66776 13.4604C8.74604 13.4411 8.8275 13.4368 8.9075 13.4478C8.9875 13.4588 9.06446 13.4849 9.134 13.5246C9.20353 13.5643 9.26428 13.6168 9.31277 13.6791C9.36125 13.7414 9.39653 13.8123 9.41658 13.8877C9.43664 13.9631 9.44108 14.0417 9.42965 14.1187C9.41822 14.1958 9.39115 14.27 9.34998 14.337C9.30881 14.404 9.25434 14.4626 9.18969 14.5093L8.44798 15.0454L8.85083 15.1917C9.28897 15.3498 9.48671 15.421 9.68526 15.4811C10.2827 15.6607 10.9008 15.7687 11.5256 15.8029C11.7332 15.814 11.944 15.814 12.4117 15.814H13.1821C13.3687 15.813 13.5485 15.7465 13.6879 15.627C13.8273 15.5076 13.9167 15.3432 13.9395 15.1647C13.9622 14.9863 13.9167 14.806 13.8114 14.6575C13.7061 14.5091 13.5483 14.4027 13.3676 14.3583L12.159 14.0665L12.0917 14.0507C11.7012 13.9566 11.3935 13.8831 11.1186 13.7297C11.0363 13.6835 10.9569 13.6329 10.8807 13.5779C10.628 13.3928 10.4376 13.1485 10.1972 12.8378L10.1554 12.7848L9.55891 12.0186C9.51042 11.9563 9.47514 11.8854 9.45509 11.81C9.43503 11.7345 9.43059 11.656 9.44202 11.5789C9.45345 11.5018 9.48052 11.4277 9.52169 11.3606C9.56287 11.2936 9.61733 11.2351 9.68198 11.1884C9.74663 11.1416 9.82019 11.1076 9.89847 11.0883C9.97676 11.069 10.0582 11.0647 10.1382 11.0757C10.2182 11.0867 10.2952 11.1128 10.3647 11.1525C10.4343 11.1922 10.495 11.2447 10.5435 11.307L11.14 12.0732C11.4419 12.4614 11.5264 12.5618 11.6249 12.6338C11.6593 12.658 11.6954 12.6809 11.7332 12.7026C11.8398 12.7619 11.9687 12.7982 12.4577 12.916L13.6662 13.207C14.139 13.3212 14.5522 13.5979 14.8279 13.9852C15.1037 14.3724 15.2231 14.8435 15.1636 15.3097C15.1041 15.7759 14.8698 16.205 14.5049 16.5163C14.14 16.8276 13.6695 16.9997 13.1821 17H12.392C11.9498 17 11.7028 17 11.4567 16.9866C10.7305 16.947 10.0121 16.8214 9.31769 16.6126C9.08303 16.5414 8.85248 16.4584 8.43814 16.3089L7.26321 15.8843C6.10879 16.612 4.75933 16.9997 3.37989 17H2.81868C2.3313 16.9997 1.86086 16.8276 1.49591 16.5163C1.13097 16.205 0.896699 15.7759 0.837203 15.3097C0.777706 14.8435 0.897088 14.3724 1.17287 13.9852C1.44866 13.5979 1.86183 13.3212 2.3346 13.207L3.80572 12.8528C4.01494 12.8022 4.07155 12.788 4.12078 12.7698C4.26272 12.7176 4.39154 12.6353 4.49656 12.5294C4.53266 12.4922 4.56876 12.4487 4.6984 12.2819L5.45734 11.3078Z" fill="#0F5E6A"/>
</svg>
