<svg width="384" height="379" viewBox="0 0 384 379" fill="none" xmlns="http://www.w3.org/2000/svg">
<path d="M301.609 72.2277C298.029 61.7559 301.714 49.2394 310.4 42.3455C314.848 38.82 320.968 36.723 326.285 38.7413C332.128 40.9563 335.181 47.1817 337.694 52.8829C342.103 26.487 364.884 4.19332 391.455 0.248351C393.744 -0.092411 396.258 -0.262808 398.219 0.969177C399.943 2.05699 400.877 4.03604 401.483 5.97576C404.299 15.0715 401.496 25.1633 396.271 33.1319C391.047 41.1004 383.624 47.3652 376.32 53.4989C381.887 45.3469 389.809 38.8069 398.89 34.875C400.93 33.9838 403.259 33.2236 405.339 34.0231C408.155 35.0978 409.234 38.4923 409.576 41.4805C410.3 47.7715 409.339 54.246 406.839 60.0782C415.801 50.183 430.027 46.9327 443.398 46.3298C451.584 45.9629 459.954 46.4216 467.666 49.2132C475.378 52.0048 482.406 57.3522 485.84 64.7703C487.88 69.1871 488.078 75.3994 483.919 77.942C482.011 79.1085 479.642 79.1871 477.391 79.2265C420.407 80.2487 363.252 81.2579 306.584 75.216" fill="#B0DEDA"/>
<path d="M-37.3911 371.228C-40.9707 360.756 -37.2859 348.239 -28.6 341.346C-24.1518 337.82 -18.0323 335.723 -12.7155 337.741C-6.87231 339.956 -3.81913 346.182 -1.30551 351.883C3.1032 325.487 25.8838 303.193 52.4545 299.248C54.7444 298.908 57.2581 298.737 59.2189 299.969C60.943 301.057 61.8773 303.036 62.4827 304.976C65.299 314.071 62.4958 324.163 57.2712 332.132C52.0465 340.1 44.6241 346.365 37.3201 352.499C42.8869 344.347 50.8094 337.807 59.8901 333.875C61.9299 332.984 64.2593 332.224 66.3387 333.023C69.155 334.098 70.2342 337.492 70.5763 340.481C71.3001 346.772 70.3394 353.246 67.839 359.078C76.8011 349.183 91.0274 345.933 104.398 345.33C112.584 344.963 120.954 345.422 128.666 348.213C136.378 351.005 143.406 356.352 146.84 363.77C148.88 368.187 149.078 374.399 144.919 376.942C143.011 378.108 140.642 378.187 138.391 378.226C81.4072 379.249 24.2519 380.258 -32.4165 374.216" fill="#B0DEDA"/>
<path d="M82.9181 115.195L222.584 40.3259C234.648 33.8594 249.588 38.4438 255.948 50.5639L329.587 190.888C332.605 196.639 327.19 203.237 321.006 201.339C242.057 177.113 163.102 152.885 84.1534 128.659C77.9692 126.762 77.185 118.268 82.9116 115.193L82.9181 115.195Z" fill="#0E5E6A"/>
<path d="M293.498 82.9346L166.993 44.1154C160.067 41.9901 152.726 45.8912 150.597 52.8289L96.6336 228.688C94.5047 235.625 98.3938 242.972 105.32 245.098L231.825 283.917C238.751 286.042 246.092 282.141 248.221 275.204L302.184 99.3447C304.313 92.407 300.424 85.0599 293.498 82.9346Z" fill="#FFF5E7"/>
<path d="M92.0237 114.016L322.444 184.722C328.433 186.56 331.801 192.923 329.96 198.921L301.039 293.171C293.751 316.919 268.586 330.293 244.877 323.018L78.6638 272.014C54.9543 264.738 41.622 239.551 48.9095 215.803L77.8307 121.553C79.6715 115.555 86.0284 112.176 92.0172 114.014L92.0237 114.016Z" fill="#B0DEDA"/>
<path d="M84.0986 117.052L262.605 287.316" stroke="#0E5E6A" stroke-width="5" stroke-miterlimit="10" stroke-linecap="round"/>
<path d="M327.211 192.684L79.2113 231.231" stroke="#0E5E6A" stroke-width="5" stroke-miterlimit="10" stroke-linecap="round"/>
<path d="M160.285 95.7795C160.49 103.307 161.166 110.823 162.288 118.271C162.421 119.177 163.484 119.73 164.323 119.534C165.271 119.307 165.719 118.401 165.587 117.495C164.505 110.33 163.871 103.117 163.677 95.8766C163.619 93.7089 160.227 93.5904 160.292 95.7815L160.285 95.7795Z" fill="#FCC3A0"/>
<path d="M151.03 111.928C159.101 109.175 167.145 106.3 175.364 104.011C177.456 103.426 176.697 100.127 174.592 100.709C166.375 102.991 158.323 105.871 150.258 108.626C149.395 108.921 148.771 109.709 148.995 110.665C149.188 111.49 150.161 112.222 151.03 111.928Z" fill="#FCC3A0"/>
<path d="M152.004 103.35C155.747 104.52 159.535 105.682 163.013 107.53C166.491 109.378 169.707 111.663 173.473 112.897C175.546 113.575 176.541 110.333 174.468 109.654C170.797 108.457 167.683 106.117 164.278 104.377C160.682 102.543 156.846 101.309 153.006 100.109C150.925 99.4568 149.93 102.699 152.011 103.352L152.004 103.35Z" fill="#FCC3A0"/>
<path d="M192.347 105.618C192.551 113.146 193.228 120.662 194.35 128.109C194.482 129.016 195.545 129.569 196.385 129.372C197.333 129.145 197.781 128.24 197.648 127.333C196.567 120.168 195.932 112.955 195.738 105.715C195.681 103.547 192.289 103.429 192.353 105.62L192.347 105.618Z" fill="#FCC3A0"/>
<path d="M183.092 121.766C191.162 119.013 199.207 116.139 207.425 113.85C209.518 113.264 208.759 109.966 206.653 110.547C198.437 112.83 190.384 115.709 182.32 118.464C181.457 118.76 180.833 119.548 181.057 120.503C181.25 121.329 182.222 122.06 183.092 121.766Z" fill="#FCC3A0"/>
<path d="M184.066 113.188C187.809 114.358 191.596 115.52 195.074 117.368C198.552 119.216 201.769 121.502 205.534 122.735C207.607 123.414 208.602 120.171 206.529 119.493C202.859 118.295 199.744 115.956 196.339 114.216C192.744 112.381 188.907 111.147 185.067 109.948C182.987 109.295 181.992 112.538 184.072 113.19L184.066 113.188Z" fill="#FCC3A0"/>
<path d="M226.5 116.098C226.705 123.626 227.381 131.142 228.503 138.589C228.636 139.496 229.699 140.049 230.538 139.852C231.486 139.625 231.934 138.72 231.801 137.813C230.72 130.648 230.086 123.436 229.892 116.195C229.834 114.028 226.442 113.909 226.506 116.1L226.5 116.098Z" fill="#FCC3A0"/>
<path d="M217.244 132.246C225.315 129.493 233.359 126.619 241.578 124.33C243.67 123.744 242.911 120.446 240.806 121.027C232.589 123.31 224.536 126.189 216.472 128.944C215.609 129.24 214.985 130.028 215.209 130.983C215.402 131.809 216.375 132.54 217.244 132.246Z" fill="#FCC3A0"/>
<path d="M218.212 123.667C221.955 124.836 225.743 125.999 229.221 127.846C232.699 129.694 235.915 131.98 239.681 133.213C241.754 133.892 242.749 130.649 240.676 129.971C237.005 128.773 233.891 126.434 230.486 124.694C226.89 122.86 223.054 121.626 219.214 120.426C217.133 119.773 216.138 123.016 218.219 123.669L218.212 123.667Z" fill="#FCC3A0"/>
<path d="M258.671 125.97C258.876 133.498 259.552 141.014 260.674 148.461C260.807 149.368 261.87 149.921 262.709 149.725C263.657 149.497 264.105 148.592 263.972 147.685C262.891 140.52 262.256 133.308 262.063 126.067C262.005 123.9 258.613 123.781 258.677 125.972L258.671 125.97Z" fill="#FCC3A0"/>
<path d="M249.416 142.119C257.487 139.366 265.531 136.491 273.75 134.202C275.842 133.616 275.083 130.318 272.978 130.9C264.761 133.182 256.708 136.061 248.644 138.816C247.781 139.112 247.157 139.9 247.381 140.856C247.574 141.681 248.547 142.412 249.416 142.119Z" fill="#FCC3A0"/>
<path d="M250.39 133.541C254.133 134.711 257.921 135.873 261.399 137.721C264.877 139.568 268.093 141.854 271.858 143.087C273.931 143.766 274.926 140.524 272.853 139.845C269.183 138.648 266.068 136.308 262.664 134.568C259.068 132.734 255.232 131.5 251.392 130.3C249.311 129.647 248.316 132.89 250.397 133.543L250.39 133.541Z" fill="#FCC3A0"/>
<path d="M322.854 278.407C334.078 276.529 345.876 278.411 355.947 283.708C356.758 284.135 357.768 284.005 358.289 283.185C358.752 282.462 358.585 281.275 357.769 280.84C346.852 275.092 334.258 273.058 322.084 275.098C319.933 275.46 320.713 278.758 322.856 278.401L322.854 278.407Z" fill="#FCC3A0"/>
<path d="M324.439 295.682C334.996 298.354 344.728 303.831 352.443 311.542C353.983 313.079 356.479 310.786 354.934 309.241C346.813 301.122 336.565 295.252 325.434 292.44C323.33 291.908 322.322 295.146 324.439 295.682Z" fill="#FCC3A0"/>
<path d="M315.594 314.44C320.217 324.31 324.832 334.177 329.457 344.04C330.386 346.022 333.372 344.419 332.453 342.448C327.831 332.578 323.215 322.711 318.591 312.848C317.661 310.867 314.676 312.47 315.594 314.44Z" fill="#FCC3A0"/>
<path d="M79.0217 75.4267C74.6742 67.0393 68.1837 59.818 60.3383 54.5652C58.1114 53.0729 55.7729 51.7592 53.3548 50.6128C52.5315 50.2253 51.5475 50.2923 51.0124 51.1358C50.5724 51.8309 50.6983 53.083 51.5325 53.4809C62.0062 58.4333 70.6837 66.7231 76.0317 77.0211C77.0373 78.9617 80.0337 77.3693 79.0282 75.4287L79.0217 75.4267Z" fill="#FCC3A0"/>
<path d="M63.1272 83.2225C54.1642 76.0017 43.3196 71.4038 31.943 69.7861C31.0401 69.6581 30.2221 70.5921 30.197 71.4359C30.1669 72.4342 30.9335 73.0527 31.8429 73.1827C42.6154 74.7144 52.842 79.2717 61.3049 86.0906C62.0147 86.6632 63.1948 86.2803 63.6473 85.5676C64.1824 84.7242 63.8415 83.8036 63.1272 83.2225Z" fill="#FCC3A0"/>
<path d="M50.9113 101.053C40.251 103.288 29.5971 105.525 18.9348 107.766C16.8005 108.211 17.5724 111.514 19.7067 111.069C30.367 108.834 41.0209 106.596 51.6832 104.355C53.8175 103.91 53.0456 100.608 50.9113 101.053Z" fill="#FCC3A0"/>
<path d="M278.333 103.336L168.889 69.7522L166.708 76.86L276.152 110.444L278.333 103.336Z" fill="#FCC3A0"/>
</svg>
