<svg width="15" height="15" viewBox="0 0 15 15" fill="none" xmlns="http://www.w3.org/2000/svg">
<path d="M7.5 0C3.35775 0 0 3.35775 0 7.5C0 11.6423 3.35775 15 7.5 15C11.6423 15 15 11.6423 15 7.5C15 3.35775 11.6423 0 7.5 0ZM6.0555 1.29C7.00581 1.06892 7.99419 1.06892 8.9445 1.29L7.5015 2.15475L6.0555 1.29ZM4.683 1.77975L6.939 3.12975V4.7745L4.84575 6.2955L3.31275 5.76525L2.8725 3.11475C3.3921 2.56595 4.00514 2.11392 4.683 1.77975ZM1.9425 4.37625L2.211 5.994L1.14 7.065C1.20324 6.12005 1.47746 5.20128 1.9425 4.37625ZM1.2165 8.57925L2.96175 6.834L4.49175 7.36275L5.3025 9.8625L4.575 11.0438L2.10525 10.8983C1.65958 10.191 1.35809 9.40309 1.2165 8.57925ZM3.06825 12.0817L4.49625 12.1658L5.0025 13.3673C4.28421 13.0609 3.62907 12.6251 3.06825 12.0817ZM6.39675 13.7797L5.50875 11.673L6.231 10.4977H8.76L9.444 11.6835L8.664 13.7685C7.91484 13.9061 7.14724 13.9099 6.39675 13.7797ZM10.0192 13.3575L10.4445 12.2197L11.697 12.2985C11.1962 12.737 10.6299 13.0943 10.0185 13.3575M12.6675 11.232L10.3995 11.0895L9.696 9.8715L10.5112 7.36275L12.021 6.84075L13.755 8.73075C13.5772 9.63319 13.2062 10.4865 12.6675 11.232ZM13.866 7.18875L12.786 6.01125L13.0575 4.37775C13.5425 5.23889 13.8194 6.20153 13.866 7.18875ZM12.1275 3.11625L11.6857 5.76675L10.1558 6.2955L8.0625 4.7745V3.129L10.314 1.779C10.9932 2.11376 11.6073 2.56609 12.1275 3.11625ZM5.59875 7.1385L7.5 5.757L9.40125 7.1385L8.67525 9.3735H6.32475L5.59875 7.1385Z" fill="#0F5E6A"/>
</svg>
