<svg width="384" height="387" viewBox="0 0 384 387" fill="none" xmlns="http://www.w3.org/2000/svg">
<path d="M156.978 31.2543C166.905 11.6285 205.383 10.0728 230.457 16.1293C258.78 22.9708 291.641 44.7443 290.074 66.0859C289.591 72.6857 287.98 76.837 272.164 90.3403C249.393 109.786 232.314 135.438 208.463 153.535C202.733 157.884 194.357 161.698 188.88 157.026C186.143 154.693 185.18 150.941 184.352 147.441C179.735 127.944 173.179 108.882 169.621 89.1615C161.698 45.2271 151.419 42.2318 156.974 31.2511L156.978 31.2543Z" fill="#FFF5E7"/>
<path d="M372.58 88.0895C405.46 95.2312 422.628 151.553 423.353 190.973C424.172 235.499 404.647 292.485 372.462 298.368C362.508 300.186 355.743 299.403 329.652 281.196C292.081 254.983 247.52 239.582 211.523 211.251C202.871 204.444 193.996 193.52 198.793 183.625C201.192 178.684 206.366 175.813 211.228 173.242C238.297 158.918 263.975 141.893 291.781 129.051C353.739 100.443 354.199 84.0892 372.592 88.0836L372.58 88.0895Z" fill="#FFF5E7"/>
<path d="M214.704 317.492C204.647 335.734 167.949 336.115 144.252 329.691C117.484 322.435 86.8512 300.958 88.9981 280.861C89.6611 274.645 91.3227 270.773 106.801 258.476C129.087 240.767 146.141 217.04 169.415 200.634C175.006 196.692 183.1 193.328 188.175 197.892C190.71 200.171 191.512 203.739 192.193 207.066C195.994 225.597 201.653 243.772 204.438 262.484C210.637 304.172 220.336 307.289 214.708 317.495L214.704 317.492Z" fill="#FFF5E7"/>
<path d="M0.0472221 279.567C-32.8326 272.425 -49.9944 216.104 -50.7252 176.684C-51.5444 132.157 -32.0193 75.171 0.165089 69.2882C10.1192 67.4705 16.8849 68.2529 42.9754 86.46C80.5464 112.673 125.107 128.074 161.105 156.406C169.756 163.212 178.632 174.136 173.834 184.031C171.436 188.973 166.261 191.843 161.399 194.414C134.33 208.739 108.652 225.763 80.847 238.605C18.8887 267.213 18.429 283.567 0.0354309 279.573L0.0472221 279.567Z" fill="#FFF5E7"/>
<path d="M341.899 243.535C343.703 264.837 347.286 285.979 348.618 307.316C349.95 328.652 348.948 350.495 341.852 370.661C337.744 358.472 339.106 345.224 338.281 332.394C336.548 305.545 325.085 278.837 330.654 252.512C331.644 247.818 334.255 242.359 339.059 242.164C340.055 242.123 341.363 242.894 340.909 243.776" fill="#4A494A"/>
<path d="M340.425 243.535C341.887 260.701 344.486 277.737 346.142 294.88C347.798 312.022 348.411 327.623 346.449 343.906C345.37 352.872 343.419 361.749 340.425 370.273H343.266C340.367 361.578 340.237 352.378 340.095 343.306C340.025 338.718 339.936 334.129 339.53 329.558C339.123 324.952 338.463 320.364 337.685 315.805C336.135 306.722 334.102 297.733 332.587 288.65C331.102 279.749 330.153 270.696 330.831 261.672C331.131 257.665 331.591 253.453 333 249.665C333.96 247.076 335.799 244.017 338.681 243.664C338.952 243.629 339.223 243.606 339.477 243.717C339.524 243.735 339.706 243.829 339.689 243.847C339.547 243.976 339.701 242.853 339.483 243.394C339.188 244.129 339.807 245.012 340.514 245.206C341.357 245.435 342.028 244.918 342.329 244.176C343.237 241.917 340.396 240.553 338.587 240.741C336.777 240.929 335.074 241.764 333.725 243.047C331.073 245.565 329.8 249.3 329.098 252.795C327.212 262.189 327.401 271.813 328.568 281.285C329.752 290.938 331.833 300.451 333.654 309.998C335.463 319.499 336.836 328.994 337.072 338.671C337.314 348.318 337.013 358.131 339.406 367.561C339.706 368.743 340.048 369.908 340.437 371.067C340.909 372.479 342.795 372.444 343.278 371.067C348.688 355.637 350.586 339.194 350.604 322.911C350.621 305.992 348.594 289.167 346.549 272.396C345.376 262.789 344.203 253.189 343.378 243.547C343.313 242.753 342.748 242.076 341.905 242.076C341.162 242.076 340.367 242.753 340.431 243.547L340.425 243.535Z" fill="#444445"/>
<path d="M224.478 153.276C224.26 152.129 223.606 148.899 221.024 145.887C216.999 141.193 211.377 140.634 210.445 140.558C204.234 140.046 199.896 143.405 198.77 144.358C198.794 142.881 198.629 137.405 194.28 132.945C193.625 132.275 189.624 128.304 183.43 128.192C179.457 128.122 176.546 129.675 175.521 130.233C167.005 134.898 163.527 147.576 164.305 157.482C164.305 157.482 164.842 174.089 179.729 182.678C179.97 182.819 180.23 182.955 180.501 183.055C180.748 183.196 181.013 183.313 181.279 183.408C197.391 189.402 210.563 179.248 210.563 179.248C218.714 173.542 226.299 162.8 224.484 153.276H224.478Z" fill="#F47B4A"/>
<path d="M180.17 157.341C180.441 159.794 181.325 162.224 182.734 164.253C185.333 168.007 189.594 170.26 194.167 170.307C196.913 170.336 199.63 169.548 201.982 168.142C203.608 167.171 202.129 164.63 200.497 165.601C197.108 167.624 192.806 168.007 189.24 166.177C187.755 165.418 186.435 164.342 185.445 162.994C184.59 161.83 184.036 160.677 183.641 159.465C183.47 158.947 183.335 158.418 183.223 157.882C183.187 157.706 183.158 157.529 183.128 157.353C183.052 156.923 183.17 157.706 183.128 157.347C183.04 156.559 182.516 155.876 181.655 155.876C180.924 155.876 180.093 156.553 180.182 157.347L180.17 157.341Z" fill="#CB4027"/>
<path d="M186.701 153.264C188.598 153.264 188.598 150.323 186.701 150.323C184.803 150.323 184.803 153.264 186.701 153.264Z" fill="#CB4027"/>
<path d="M200.692 160.63C202.59 160.63 202.59 157.688 200.692 157.688C198.794 157.688 198.794 160.63 200.692 160.63Z" fill="#CB4027"/>
<path d="M324.92 240.853C319.227 239.576 313.663 237.776 308.235 235.64C292.529 229.464 277.955 220.439 265.431 209.139C261.971 206.015 258.636 202.697 254.722 200.167C250.733 197.585 246.1 195.773 242.977 192.19C242.051 191.132 241.285 189.931 240.266 188.961C239.299 188.037 238.144 187.337 236.995 186.649C230.76 182.902 224.53 179.16 218.295 175.413C215.79 173.907 213.215 172.377 210.345 171.842C207.474 171.307 204.186 171.971 202.341 174.23C201.003 175.872 200.479 178.001 200.726 181.402C201.351 190.061 205.842 196.714 206.979 198.356C215.519 210.703 220.599 211.368 228.803 223.457C231.479 227.399 236.718 235.27 234.225 238.605C233.53 239.535 230.217 240.458 223.617 242.264C219.697 243.335 219.438 243.535 218.631 243.982C214.552 246.259 214.906 252.271 216.627 256.612C217.423 258.618 218.401 260.807 217.676 262.836C217.305 263.878 216.521 264.713 215.79 265.548C207.492 275.008 203.585 288.15 205.37 300.592C206.148 306.016 208.111 311.522 212.189 315.187C214.865 317.587 218.336 319.052 221.913 319.416C223.505 319.575 225.178 319.54 226.616 320.246C228.054 320.952 229.127 322.752 228.379 324.164C239.146 329.27 253.732 322.958 257.351 311.622C258.954 316.569 259.207 321.946 261.459 326.64C263.704 331.329 269.067 335.265 273.935 333.423C278.385 331.741 280.029 326.299 280.212 321.558C280.389 316.816 279.758 311.781 281.945 307.563C282.864 305.786 284.502 304.145 286.506 304.11C288.144 304.08 289.583 305.11 290.944 306.016C302.094 313.387 317.082 314.569 329.257 309.045C331.638 307.963 333.937 306.639 336.483 306.051C344.592 304.18 352.183 310.063 359.968 312.998C361.348 313.516 362.927 313.94 364.253 313.298C365.261 312.81 365.897 311.798 366.445 310.816C372.981 299.027 373.459 284.955 373.783 271.49C373.83 269.554 373.871 267.566 373.252 265.731C372.852 264.531 372.186 263.442 371.708 262.272C369.828 257.695 370.612 252.447 368.561 247.924C366.716 243.859 363.976 243.929 359.868 243.9C348.164 243.812 336.394 243.435 324.932 240.858L324.92 240.853Z" fill="#FCC3A0"/>
<path d="M38.1013 103.444C44.2128 102.102 50.3479 100.755 56.5833 100.232C61.1802 99.8433 64.7104 99.9139 72.4014 100.261C87.8895 100.967 95.6335 101.32 99.3759 101.902C105.977 102.932 115.601 106.397 134.855 113.327C139.175 114.88 145.61 117.274 153.36 121.845C155.735 123.251 157.863 124.657 159.873 126.074C163.149 128.386 177.412 138.763 177.518 148.535C177.535 149.923 177.577 153.882 174.948 156.118C173.652 157.224 172.184 157.471 171.465 157.612C162.978 159.259 154.421 155.771 146.483 152.353C151.628 161.741 154.551 172.342 154.934 183.037C155.111 187.914 153.826 194.026 149.076 195.191C145.899 195.973 142.557 194.026 139.357 194.673C137.312 195.085 135.603 196.508 133.576 197.008C129.615 197.991 125.543 195.102 123.675 191.479C121.806 187.855 121.553 183.655 121.064 179.607C119.891 169.948 117.127 160.488 112.919 151.711C111.841 154.323 111.157 156.594 110.715 158.288C109.831 161.694 109.206 164.183 109.471 167.401C109.689 169.977 109.908 169.66 110.408 172.242C111.092 175.778 111.181 180.496 107.821 181.808C106.937 182.155 105.953 182.172 105.093 182.572C104.038 183.061 103.325 184.043 102.541 184.896C100.407 187.22 97.2955 188.808 94.1483 188.537C91.0012 188.267 87.9955 185.831 87.6301 182.702C87.4121 180.825 88.0722 178.784 87.194 177.107C86.7225 176.201 85.8739 175.566 85.0547 174.96C75.1124 167.607 65.1701 160.259 55.2278 152.906C54.5559 152.406 53.8487 151.894 53.0236 151.758C52.1278 151.606 51.2202 151.923 50.3656 152.229C41.2896 155.494 32.2137 158.759 23.2909 162.418C20.3324 163.63 17.3915 164.889 14.4507 166.148C11.3566 167.471 7.27242 169.195 5.9287 169.789C1.93291 171.56 -3.81913 174.807 -10.9326 181.26C-11.1271 169.483 -10.2548 159.635 -9.29419 152.347C-8.66358 147.588 -6.75998 137.928 -0.613072 119.333C0.347566 116.427 1.05479 113.044 3.87777 111.379C7.87945 109.026 13.8967 108.756 18.3699 107.773C24.947 106.326 31.5241 104.885 38.1013 103.438V103.444Z" fill="#FCC3A0"/>
<path d="M5.98144 113.35C15.7116 109.72 25.7128 106.832 35.8909 104.773C48.6444 102.196 61.6631 100.949 74.676 101.126C79.5852 101.19 84.5122 101.414 89.392 101.926C89.9283 101.985 90.4705 102.049 91.0068 102.114C91.1954 102.138 91.384 102.161 91.5667 102.185C91.6669 102.196 91.773 102.214 91.8732 102.226C91.5313 102.179 91.7199 102.208 91.9262 102.232C92.433 102.302 92.9399 102.373 93.4467 102.449C100.271 103.461 107.037 104.902 113.703 106.691C123.309 109.267 132.744 112.603 141.685 116.974C151.073 121.562 159.919 127.292 167.475 134.54C170.987 137.911 174.459 141.905 175.702 146.723C176.28 148.958 176.227 151.182 175.626 153.359C175.319 154.459 174.83 155.523 174.017 156.347C173.928 156.435 173.474 156.841 173.628 156.724C173.604 156.741 173.581 156.759 173.557 156.776C173.498 156.824 173.433 156.865 173.368 156.906C173.203 157.012 173.021 157.094 172.856 157.194C172.59 157.353 173.245 157.076 172.844 157.194C172.696 157.241 172.555 157.294 172.402 157.335C172.249 157.377 172.095 157.418 171.942 157.447C171.818 157.471 171.282 157.559 171.535 157.524C171.789 157.488 171.205 157.553 171.076 157.565C170.828 157.582 170.575 157.594 170.327 157.594C169.72 157.606 169.119 157.577 168.518 157.524C167.587 157.447 167.381 157.412 166.497 157.259C164.481 156.912 162.489 156.4 160.526 155.823C154.539 154.053 148.698 151.682 143.046 149.041C141.213 148.188 139.416 147.27 137.595 146.399C136.393 145.823 135.155 145.258 133.858 144.923C129.715 143.864 125.313 144.905 121.435 146.435C119.095 147.358 116.744 148.317 114.209 148.494C111.174 148.711 108.098 148.111 105.304 146.917C103.118 145.976 101.055 144.693 99.1929 143.211C98.5741 142.717 97.7136 142.605 97.1066 143.211C96.5938 143.723 96.4819 144.793 97.1066 145.293C101.757 148.994 107.349 151.623 113.408 151.476C116.137 151.411 118.694 150.664 121.211 149.67C123.727 148.676 126.067 147.752 128.69 147.535C129.668 147.452 130.658 147.435 131.637 147.511C131.784 147.523 131.931 147.541 132.073 147.552C131.949 147.541 131.967 147.529 132.261 147.582C132.556 147.635 132.833 147.694 133.116 147.77C133.717 147.929 134.3 148.141 134.878 148.376C134.571 148.247 134.966 148.417 135.061 148.458C135.208 148.523 135.361 148.594 135.509 148.658C135.874 148.829 136.239 148.999 136.599 149.176C141.709 151.658 146.842 154.029 152.158 156.053C156.766 157.812 161.534 159.471 166.432 160.2C168.665 160.536 171.117 160.794 173.315 160.118C175.749 159.371 177.37 157.253 178.219 154.912C180.046 149.858 178.672 144.399 175.897 139.981C173.38 135.969 169.932 132.645 166.39 129.545C162.053 125.757 157.35 122.392 152.417 119.421C143.17 113.85 133.139 109.603 122.879 106.303C115.005 103.767 106.949 101.785 98.8039 100.337C94.9142 99.6492 91.0068 99.0727 87.07 98.755C73.0081 97.602 58.846 98.1373 44.8961 100.208C33.6337 101.879 22.5245 104.573 11.7335 108.185C9.5411 108.92 7.36641 109.691 5.2035 110.497C4.46092 110.773 3.94819 111.491 4.17214 112.309C4.36662 113.021 5.23296 113.615 5.98733 113.338L5.98144 113.35Z" fill="#F68E76"/>
<path d="M91.6908 137.852C96.8593 144.405 101.291 151.558 104.892 159.088C106.696 162.853 108.399 166.73 109.342 170.813C109.796 172.789 110.037 174.801 109.961 176.831C109.902 178.478 109.595 180.078 108.081 180.972C105.411 182.549 101.71 181.79 98.9574 180.86C95.7101 179.766 92.781 177.86 90.0288 175.866C87.1174 173.754 84.3534 171.454 81.4302 169.365C78.1593 167.024 74.6173 165.159 71.0989 163.23C64.3155 159.518 56.0175 154.241 55.6108 145.605C55.5224 143.723 52.5757 143.711 52.6641 145.605C53.053 153.947 59.6714 159.959 66.3959 163.947C70.1795 166.195 74.1694 168.077 77.8587 170.477C81.0648 172.566 84.0174 175.013 87.0703 177.319C90.1231 179.625 93.229 181.725 96.7533 183.166C100.083 184.531 104.132 185.378 107.668 184.325C109.418 183.802 111.069 182.749 111.953 181.107C113.019 179.148 113.025 176.707 112.872 174.542C112.548 169.924 110.98 165.559 109.153 161.347C105.635 153.247 101.162 145.558 95.8751 138.487C95.1915 137.575 94.4961 136.669 93.7888 135.775C93.2938 135.151 92.2212 135.257 91.7025 135.775C91.0837 136.393 91.2075 137.228 91.7025 137.857L91.6908 137.852Z" fill="#F68E76"/>
<path d="M110.515 149.994C110.291 154.459 109.484 158.853 108.14 163.118C107.568 164.93 110.415 165.701 110.981 163.9C112.401 159.394 113.22 154.712 113.462 149.994C113.503 149.199 112.754 148.523 111.988 148.523C111.157 148.523 110.556 149.199 110.515 149.994Z" fill="#F68E76"/>
<path d="M104.02 182.408C101.515 185.184 97.9081 187.608 94.0066 187.384C93.9006 187.378 93.7886 187.367 93.6825 187.361C93.7414 187.367 93.9359 187.408 93.6589 187.361C93.5352 187.337 93.4055 187.314 93.2817 187.284C92.9989 187.214 92.716 187.12 92.4508 186.996C91.5962 186.596 90.9067 185.967 90.3055 185.249C89.8399 184.696 89.2152 183.766 88.8145 182.937C88.3489 181.984 88.0542 180.949 87.8597 179.913C87.5474 178.272 87.5768 176.566 87.7831 174.913C87.8833 174.125 87.0346 173.442 86.3097 173.442C85.4316 173.442 84.9366 174.119 84.8364 174.913C84.2942 179.196 85.2253 183.519 87.9187 186.949C89.1681 188.537 90.9008 189.873 92.9399 190.208C95.5331 190.632 98.1969 189.943 100.519 188.808C102.641 187.773 104.527 186.237 106.1 184.496C107.367 183.09 105.287 181.007 104.014 182.413L104.02 182.408Z" fill="#F68E76"/>
<path d="M54.4967 149.311C50.4361 151.582 45.9276 152.776 41.4839 154.041C37.0402 155.306 32.3608 156.9 27.9289 158.712C19.0297 162.347 10.5313 166.848 2.22735 171.666C-2.44619 174.378 -7.06079 177.184 -11.6695 179.99L-9.50659 180.866C-10.809 171.56 -10.1726 162.053 -8.51059 152.835C-6.84863 143.617 -4.11994 134.252 -1.22624 125.163C-0.45419 122.733 0.276605 120.274 1.13705 117.874C1.66747 116.397 2.4513 114.509 4.06022 113.938C4.8087 113.674 5.30964 112.932 5.09159 112.127C4.89121 111.403 4.03076 110.832 3.27639 111.097C-0.819587 112.544 -1.8038 117.339 -2.98839 121.004C-4.52659 125.774 -6.04122 130.563 -7.40851 135.387C-10.1313 144.993 -12.3119 154.818 -12.9543 164.801C-13.3197 170.43 -13.1311 176.06 -12.3531 181.643C-12.2176 182.596 -10.9151 182.967 -10.1902 182.519C-2.00418 177.537 6.19367 172.554 14.6921 168.113C23.1905 163.671 31.848 159.889 40.9947 157.23C46.0985 155.741 51.3083 154.453 55.9819 151.835C57.6379 150.911 56.1528 148.37 54.4967 149.294V149.311Z" fill="#F68E76"/>
<path d="M143.795 152.506C148.062 157.465 151.315 163.483 152.995 169.901C153.979 173.66 154.25 177.466 154.179 181.337C154.121 184.631 154.362 188.373 152.5 191.255C150.808 193.867 146.83 195.373 144.072 193.455C142.805 192.579 142.08 191.061 141.532 189.667C140.819 187.843 140.2 185.984 139.469 184.167C137.849 180.155 135.998 176.243 134.053 172.378C132.179 168.654 130.311 164.906 128.201 161.312C126.863 159.03 125.402 156.771 123.575 154.847C121.17 152.317 118.212 150.253 115.094 148.688C113.402 147.841 111.911 150.376 113.609 151.229C116.485 152.67 119.184 154.523 121.418 156.853C121.724 157.177 122.025 157.506 122.307 157.847C122.437 158.006 122.567 158.159 122.696 158.318C122.72 158.341 122.979 158.677 122.785 158.43C122.897 158.577 123.003 158.724 123.115 158.871C123.958 160.018 124.718 161.224 125.443 162.447C127.594 166.071 129.48 169.86 131.378 173.625C133.423 177.672 135.385 181.772 137.035 185.996C138.373 189.42 139.222 193.626 142.404 195.879C145.787 198.279 150.673 197.297 153.549 194.573C156.425 191.849 156.908 188.043 157.038 184.355C157.179 180.296 157.215 176.266 156.519 172.254C155.117 164.177 151.203 156.618 145.876 150.429C145.357 149.829 144.326 149.9 143.789 150.429C143.188 151.029 143.271 151.906 143.789 152.512L143.795 152.506Z" fill="#F68E76"/>
<path d="M111.292 151.7C116.591 158.782 118.094 167.642 119.502 176.154C120.227 180.537 120.928 184.943 122.095 189.231C122.702 191.467 123.492 193.679 124.948 195.514C126.291 197.208 128.272 198.42 130.399 198.844C135.356 199.832 140.306 196.756 141.532 191.832C141.992 189.996 139.151 189.208 138.691 191.049C137.831 194.497 134.371 196.785 130.859 195.932C126.698 194.926 125.49 190.749 124.582 187.078C122.578 179.001 122.013 170.63 119.714 162.618C118.441 158.2 116.602 153.906 113.838 150.205C113.361 149.57 112.565 149.246 111.823 149.676C111.198 150.041 110.815 151.047 111.292 151.688V151.7Z" fill="#F68E76"/>
<path d="M344.999 241.9C327.843 243.788 311.336 236.87 296.855 228.346C281.621 219.38 267.553 208.544 253.538 197.826C246.49 192.438 239.447 187.043 232.257 181.849C228.662 179.254 225.037 176.707 221.354 174.236C218.16 172.095 214.783 169.883 210.922 169.207C209.172 168.901 207.333 168.871 205.648 169.501C203.78 170.201 202.247 171.53 201.269 173.272C199.46 176.501 199.312 180.537 199.801 184.119C200.75 191.061 204.434 197.42 208.595 202.938C212.543 208.174 217.069 212.88 221.831 217.386C224.018 219.457 226.275 221.569 227.984 224.016C230.035 226.952 231.332 230.299 232.092 233.787C232.44 235.376 232.652 236.976 232.752 238.599C232.87 240.482 235.817 240.494 235.699 238.599C235.268 231.552 232.882 224.822 228.143 219.528C225.963 217.098 223.493 214.939 221.154 212.668C218.814 210.398 216.427 207.833 214.229 205.262C210.221 200.567 206.449 195.373 204.251 189.537C203.031 186.296 202.306 182.878 202.577 179.407C202.825 176.242 204.068 172.624 207.604 172.001C211.14 171.377 214.576 173.366 217.317 175.078C220.935 177.348 224.43 179.848 227.907 182.319C235.062 187.408 242.058 192.714 249.036 198.044C262.897 208.633 276.717 219.351 291.557 228.563C305.737 237.364 321.761 245.053 338.793 245.153C340.868 245.165 342.943 245.053 345.005 244.829C345.795 244.741 346.479 244.217 346.479 243.359C346.479 242.629 345.801 241.8 345.005 241.888L344.999 241.9Z" fill="#F68E76"/>
<path d="M267.382 240.158C261.694 240.57 255.978 240.541 250.296 239.994C247.468 239.717 244.656 239.352 241.822 239.135C236.959 238.758 232.05 238.57 227.182 238.911C224.89 239.07 222.473 239.241 220.328 240.117C217.44 241.294 215.301 243.37 214.264 246.324C212.331 251.806 214.623 257.86 218.224 262.083C222.108 266.637 227.795 269.231 233.394 271.002C238.993 272.772 245.228 274.155 251.275 273.302C254.764 272.808 258.129 271.855 261.641 271.625C264.677 271.431 267.735 271.566 270.77 271.602C276.122 271.666 281.467 271.696 286.818 271.684C288.433 271.684 290.048 271.672 291.663 271.66C293.561 271.649 293.561 268.707 291.663 268.719C286.317 268.754 280.972 268.754 275.627 268.713C271.637 268.684 267.641 268.549 263.651 268.607C260.704 268.649 257.781 269.049 254.893 269.613C252.978 269.99 251.122 270.449 249.324 270.572C246.43 270.772 243.542 270.49 240.708 269.902C235.032 268.725 229.121 266.907 224.306 263.595C220.098 260.695 216.615 256.012 216.533 250.741C216.497 248.365 217.175 245.835 219.031 244.235C220.746 242.759 222.939 242.276 225.125 242.035C229.929 241.5 234.814 241.629 239.629 241.923C242.376 242.094 245.122 242.335 247.857 242.664C252.754 243.259 257.681 243.482 262.614 243.341C264.205 243.294 265.796 243.212 267.388 243.1C268.183 243.041 268.861 242.464 268.861 241.629C268.861 240.876 268.183 240.1 267.388 240.158H267.382Z" fill="#F68E76"/>
<path d="M218.03 261.942C211.7 266.26 208.848 273.625 206.791 280.696C204.392 288.938 202.206 298.074 204.899 306.527C207.05 313.269 212.343 319.558 219.715 320.481C221.631 320.723 223.611 320.54 225.403 319.805C227.194 319.069 228.732 317.699 229.835 316.01C230.996 314.24 231.738 312.198 232.516 310.239C233.347 308.139 234.119 306.016 234.838 303.874C236.205 299.774 237.131 295.509 238.692 291.474C239.96 288.197 241.851 285.061 245.087 283.438C246.778 282.585 245.293 280.049 243.602 280.896C237.531 283.95 235.528 291.074 233.83 297.103C232.652 301.286 231.284 305.41 229.687 309.451C228.455 312.563 227.159 316.316 223.587 317.328C220.405 318.234 216.993 317.105 214.37 315.269C211.747 313.434 209.909 310.81 208.612 307.992C205.265 300.692 206.732 292.268 208.712 284.814C210.645 277.555 212.95 268.966 219.527 264.478C220.181 264.031 220.476 263.183 220.057 262.466C219.674 261.819 218.702 261.489 218.042 261.936L218.03 261.942Z" fill="#F68E76"/>
<path d="M257.616 287.785C270.481 296.239 283.518 304.751 298.069 310.051C305.07 312.604 312.638 314.669 320.158 314.146C323.882 313.887 327.542 312.969 330.843 311.193C333.624 309.693 336.094 307.604 338.127 305.198C342.818 299.657 345.523 292.697 347.221 285.714C347.669 283.873 344.828 283.091 344.38 284.932C342.936 290.88 340.773 296.762 337.131 301.739C333.406 306.828 328.014 310.24 321.72 311.057C314.565 311.987 307.304 310.134 300.585 307.834C293.566 305.428 286.871 302.18 280.412 298.551C273.11 294.444 266.097 289.85 259.101 285.25C257.51 284.208 256.037 286.75 257.616 287.791V287.785Z" fill="#F68E76"/>
<path d="M224.719 319.528C225.32 323.17 229.127 324.911 232.239 325.999C234.414 326.758 236.618 327.47 238.928 327.652C241.238 327.835 243.277 327.341 245.252 326.37C247.02 325.505 248.599 324.258 250.049 322.935C251.611 321.511 253.114 319.987 254.481 318.37C257.38 314.94 259.013 310.945 260.598 306.798C262.525 301.763 264.447 296.727 266.374 291.691C266.657 290.95 266.062 290.079 265.343 289.879C264.512 289.65 263.816 290.162 263.527 290.909C261.936 295.074 260.339 299.245 258.748 303.41C257.31 307.181 256.049 311.151 253.756 314.51C252.695 316.069 251.399 317.458 250.078 318.799C248.758 320.14 247.491 321.405 246.006 322.47C244.621 323.464 243.124 324.264 241.444 324.605C239.458 325.005 237.413 324.552 235.51 323.982C233.742 323.452 231.915 322.882 230.288 321.987C228.933 321.24 227.819 320.299 227.559 318.746C227.43 317.964 226.457 317.522 225.744 317.717C224.913 317.946 224.583 318.74 224.713 319.528H224.719Z" fill="#F68E76"/>
<path d="M257.563 307.428C256.85 311.922 257.18 316.534 258.653 320.852C260.074 325.023 262.472 329.206 266.032 331.906C269.403 334.465 274.336 335.171 277.772 332.318C281.231 329.447 280.618 324.546 280.518 320.564C280.382 315.258 281.602 309.963 284.048 305.251C284.92 303.574 282.38 302.086 281.502 303.769C279.416 307.786 278.137 312.134 277.707 316.634C277.506 318.711 277.583 320.77 277.66 322.846C277.725 324.623 277.795 326.499 277.159 328.2C275.921 331.506 271.849 331.876 269.061 330.376C265.737 328.588 263.462 324.946 262.054 321.558C260.315 317.375 259.696 312.687 260.409 308.21C260.533 307.428 260.209 306.628 259.378 306.398C258.677 306.204 257.693 306.633 257.563 307.428Z" fill="#F68E76"/>
<path d="M323.084 197.285C321.481 192.585 323.131 186.967 327.021 183.873C329.013 182.29 331.753 181.349 334.134 182.255C336.751 183.249 338.118 186.044 339.244 188.603C341.218 176.755 351.42 166.748 363.319 164.977C364.344 164.824 365.47 164.748 366.348 165.301C367.12 165.789 367.539 166.678 367.81 167.548C369.071 171.631 367.816 176.161 365.476 179.737C363.136 183.314 359.812 186.126 356.541 188.879C359.034 185.22 362.582 182.284 366.649 180.52C367.562 180.12 368.605 179.778 369.537 180.137C370.798 180.62 371.281 182.143 371.434 183.485C371.758 186.308 371.328 189.214 370.208 191.832C374.222 187.391 380.593 185.932 386.581 185.661C390.246 185.496 393.995 185.702 397.448 186.955C400.902 188.208 404.049 190.609 405.587 193.938C406.501 195.921 406.589 198.709 404.727 199.85C403.872 200.374 402.811 200.409 401.803 200.427C376.285 200.886 350.689 201.339 325.312 198.627" fill="#B0DEDA"/>
<path d="M-11.4104 60.5359C-13.7919 53.5189 -11.3404 45.1318 -5.56183 40.5123C-2.60252 38.1499 1.46872 36.7447 5.00589 38.0972C8.89327 39.5814 10.9245 43.753 12.5968 47.5733C15.5298 29.8857 30.6854 14.9471 48.3625 12.3036C49.8859 12.0753 51.5582 11.9611 52.8627 12.7866C54.0097 13.5156 54.6313 14.8417 55.034 16.1415C56.9077 22.2364 55.0428 28.9987 51.5669 34.3384C48.0911 39.678 43.153 43.8759 38.2938 47.986C41.9973 42.5235 47.268 38.1411 53.3092 35.5064C54.6663 34.9092 56.216 34.3998 57.5994 34.9356C59.473 35.6557 60.191 37.9303 60.4186 39.9327C60.9002 44.1482 60.261 48.4866 58.5975 52.3947C64.5599 45.7641 74.0244 43.5861 82.9199 43.1821C88.3657 42.9362 93.9341 43.2436 99.0648 45.1142C104.195 46.9848 108.871 50.568 111.156 55.5388C112.513 58.4984 112.644 62.6612 109.878 64.365C108.608 65.1466 107.032 65.1993 105.535 65.2256C67.6243 65.9107 29.5997 66.5869 -8.10089 62.5383" fill="#B0DEDA"/>
<path d="M-28.2152 361.809C-31.6228 351.879 -28.115 340.01 -19.8465 333.473C-15.6121 330.13 -9.78652 328.142 -4.7252 330.056C0.837229 332.156 3.74372 338.059 6.13657 343.465C10.3335 318.436 32.0194 297.296 57.3135 293.555C59.4933 293.232 61.8862 293.071 63.7529 294.239C65.394 295.271 66.2835 297.147 66.8598 298.986C69.5408 307.611 66.8723 317.181 61.8987 324.737C56.9251 332.293 49.8593 338.233 42.9062 344.049C48.2056 336.319 55.7474 330.118 64.3918 326.39C66.3336 325.545 68.5511 324.824 70.5305 325.582C73.2115 326.601 74.2388 329.82 74.5645 332.653C75.2535 338.618 74.339 344.758 71.9587 350.288C80.4903 340.905 94.033 337.823 106.761 337.251C114.554 336.903 122.522 337.338 129.863 339.986C137.205 342.633 143.894 347.703 147.164 354.737C149.106 358.925 149.294 364.816 145.335 367.227C143.519 368.333 141.264 368.408 139.121 368.445C84.8751 369.414 30.466 370.371 -23.4796 364.642" fill="#B0DEDA"/>
<path d="M343.696 245.006C348.252 244.882 352.814 244.765 357.369 244.641L364.058 244.465L365.803 244.418C366.133 244.406 366.911 244.241 367.211 244.394C367.677 244.641 367.736 245.876 367.854 246.382C369.775 254.995 371.036 263.742 371.62 272.549C371.908 276.92 372.038 281.302 371.997 285.679C371.961 289.55 371.885 293.456 371.384 297.303C370.965 300.498 370.229 303.763 368.779 306.657C368.095 308.028 367.27 309.322 366.233 310.457C365.72 311.022 365.16 311.557 364.565 312.034C363.97 312.51 363.451 312.981 362.703 312.61C361.736 312.134 360.852 311.428 359.921 310.887C358.99 310.345 357.982 309.804 356.986 309.316C354.953 308.328 352.843 307.475 350.692 306.786C346.337 305.392 341.763 304.674 337.19 304.627C335.292 304.61 335.292 307.551 337.19 307.569C341.345 307.61 345.447 308.251 349.419 309.469C353.391 310.687 357.086 312.528 360.593 314.775C361.489 315.352 362.467 315.805 363.557 315.705C364.771 315.593 365.738 314.857 366.646 314.116C367.977 313.034 369.115 311.716 370.07 310.298C372.032 307.381 373.164 303.933 373.824 300.509C374.549 296.756 374.761 292.932 374.873 289.115C375.003 284.45 374.949 279.779 374.708 275.12C374.225 265.766 372.999 256.442 371.048 247.282C370.6 245.182 370.417 241.994 367.795 241.523C366.498 241.294 365.072 241.494 363.758 241.529L359.685 241.641C354.352 241.782 349.018 241.923 343.685 242.07C341.793 242.123 341.787 245.065 343.685 245.012L343.696 245.006Z" fill="#F68E76"/>
<path d="M336.253 242.264C402.354 242.623 448.836 242.723 452.178 242.276C452.532 242.229 454.317 241.929 455.626 242.935C456.622 243.706 456.916 245.059 457.123 246.3C462.71 279.29 460.388 313.04 458.054 346.413C457.223 358.278 456.392 370.143 455.561 382.009C455.514 382.727 455.437 383.491 454.971 384.038C454.423 384.68 453.498 384.815 452.661 384.897C440.786 386.062 428.816 384.909 416.941 383.75C394.616 381.58 372.286 379.409 349.961 377.238C347.174 376.967 343.72 376.144 343.137 373.408C342.889 372.249 343.137 371.232 343.231 370.949C345.317 364.59 351.187 311.993 350.185 289.291C349.678 277.867 346.891 261.672 336.247 242.259L336.253 242.264Z" fill="#F1F9F9"/>
<path d="M336.253 243.735C346.967 243.794 357.675 243.847 368.39 243.894C377.713 243.935 387.037 243.97 396.36 244C404.057 244.023 411.754 244.041 419.451 244.041C425.286 244.041 431.12 244.041 436.955 244.012C440.691 243.994 444.428 243.976 448.158 243.906C449.166 243.888 450.18 243.865 451.187 243.817C451.459 243.806 451.73 243.794 452.001 243.764C452.042 243.764 452.089 243.759 452.13 243.753C452.213 243.747 452.295 243.729 452.372 243.723C452.973 243.647 452.148 243.723 452.584 243.7C453.315 243.664 454.14 243.612 454.747 244.112C455.425 244.676 455.549 245.782 455.69 246.594C455.926 247.947 456.138 249.312 456.344 250.671C456.751 253.377 457.105 256.095 457.411 258.818C458.024 264.283 458.448 269.766 458.719 275.255C459.267 286.314 459.197 297.392 458.808 308.451C458.413 319.54 457.688 330.617 456.922 341.683C456.144 352.889 455.354 364.096 454.57 375.303C454.47 376.714 454.376 378.12 454.276 379.532C454.228 380.215 454.181 380.891 454.134 381.574C454.105 381.968 454.152 382.579 453.951 382.944C453.586 383.609 452.007 383.491 451.376 383.544C449.973 383.662 448.577 383.75 447.168 383.809C441.599 384.044 436.018 383.85 430.454 383.468C419.209 382.691 407.994 381.415 396.773 380.321C385.51 379.226 374.254 378.132 362.991 377.038C360.163 376.761 357.34 376.491 354.511 376.214C352.206 375.991 349.814 375.95 347.586 375.344C346.071 374.932 344.627 374.25 344.527 372.638C344.48 371.843 344.722 371.249 344.916 370.449C345.847 366.626 346.301 362.661 346.82 358.772C347.657 352.513 348.364 346.23 348.994 339.941C349.725 332.67 350.356 325.388 350.851 318.099C351.316 311.31 351.682 304.51 351.77 297.709C351.847 291.662 351.617 285.644 350.751 279.649C349.56 271.349 347.268 263.23 344.138 255.454C342.217 250.683 340.001 246.035 337.532 241.523C336.624 239.858 334.078 241.347 334.986 243.006C339.689 251.606 343.466 260.701 345.877 270.213C347.586 276.955 348.552 283.655 348.77 290.591C348.965 296.821 348.741 303.062 348.429 309.286C348.057 316.687 347.503 324.076 346.849 331.453C346.23 338.394 345.523 345.324 344.698 352.242C344.521 353.713 344.338 355.184 344.15 356.66C344.061 357.343 343.973 358.025 343.879 358.707C343.838 359.001 343.867 358.79 343.879 358.725C343.867 358.813 343.855 358.907 343.843 358.996C343.82 359.149 343.802 359.307 343.779 359.46C343.731 359.784 343.69 360.113 343.643 360.437C343.342 362.561 343.03 364.678 342.653 366.79C342.435 368.031 342.199 369.279 341.846 370.49C341.292 372.391 341.563 374.491 342.883 376.008C344.203 377.526 346.266 378.156 348.146 378.473C350.768 378.92 353.467 379.056 356.114 379.309C358.943 379.585 361.766 379.856 364.594 380.132C370.299 380.685 376.004 381.238 381.703 381.797C393.113 382.903 404.517 384.015 415.927 385.121C427.336 386.227 438.57 387.38 449.914 386.592C452.325 386.427 455.714 386.615 456.721 383.88C457.152 382.715 457.087 381.326 457.169 380.103C457.27 378.691 457.364 377.285 457.464 375.873C457.865 370.137 458.266 364.396 458.666 358.66C459.456 347.389 460.287 336.123 460.947 324.846C461.607 313.634 462.073 302.404 462.049 291.168C462.026 279.979 461.513 268.778 460.21 257.66C459.886 254.865 459.509 252.083 459.085 249.3C458.878 247.953 458.696 246.6 458.425 245.27C458.201 244.17 457.8 243.082 457.04 242.235C456.215 241.323 455.024 240.882 453.828 240.753C453.433 240.711 453.038 240.7 452.643 240.735C452.466 240.753 452.29 240.776 452.113 240.8C451.565 240.87 452.107 240.8 452.125 240.8C451.889 240.8 451.641 240.841 451.406 240.853C448.901 240.988 446.39 240.982 443.885 241.011C439.094 241.058 434.297 241.076 429.505 241.082C422.669 241.094 415.838 241.082 409.002 241.076C400.374 241.058 391.746 241.035 383.118 241C372.892 240.958 362.667 240.917 352.448 240.864C347.049 240.835 341.651 240.811 336.253 240.782C334.355 240.77 334.355 243.712 336.253 243.723V243.735Z" fill="#B0DEDA"/>
<path d="M109.996 191.996C101.928 196.697 94.1836 201.95 86.8697 207.756C81.3475 212.145 76.0905 216.863 71.1577 221.904C68.3524 224.775 65.6119 227.728 63.1602 230.911C61.5985 232.94 60.0131 235.164 59.2882 237.658C58.7932 239.376 58.8639 241.264 59.907 242.764C61.3745 244.87 63.9912 245.759 66.4252 246.165C71.0929 246.935 75.955 246.529 80.5991 245.782C80.7582 245.759 80.9114 245.729 81.0705 245.706C81.8544 245.565 82.2964 244.612 82.1019 243.894C81.8721 243.07 81.0764 242.729 80.2867 242.864C79.8506 242.941 79.4086 243.011 78.9725 243.07C78.8251 243.094 78.3183 243.159 78.7426 243.106C78.5187 243.135 78.3006 243.164 78.0767 243.188C77.5639 243.253 77.0512 243.306 76.5443 243.353C74.0337 243.594 71.4995 243.706 68.983 243.517C67.7336 243.423 66.8142 243.311 65.4823 242.941C65.223 242.87 64.9636 242.788 64.7102 242.7C64.5865 242.659 64.4627 242.611 64.3448 242.564C64.115 242.476 64.4686 242.635 64.1739 242.488C63.9382 242.37 63.7024 242.253 63.4726 242.117C63.3724 242.058 63.2722 241.994 63.172 241.929C63.1249 241.9 63.0777 241.864 63.0306 241.829C62.8538 241.711 63.2133 241.988 63.0541 241.853C62.8832 241.705 62.7241 241.558 62.565 241.394C62.4648 241.294 62.3116 241.082 62.4825 241.311C62.4059 241.211 62.3351 241.105 62.2703 240.994C62.2173 240.9 62.1701 240.8 62.1171 240.705C61.9697 240.464 62.1583 240.835 62.1465 240.788C62.1053 240.635 62.0346 240.482 61.9933 240.323C61.9697 240.229 61.8931 239.788 61.9285 240.064C61.9639 240.341 61.9167 239.841 61.9167 239.735C61.9167 239.558 61.9344 239.388 61.9403 239.217C61.9403 238.929 61.9108 239.364 61.9285 239.27C61.9521 239.17 61.9638 239.064 61.9815 238.964C62.0699 238.546 62.1937 238.135 62.3469 237.735C62.3882 237.635 62.4294 237.529 62.4707 237.429C62.3705 237.67 62.4471 237.482 62.506 237.358C62.6298 237.093 62.7536 236.835 62.8891 236.582C63.5021 235.423 64.2387 234.329 65.0167 233.27C67.2562 230.222 69.867 227.44 72.4896 224.728C77.0865 219.969 81.9722 215.486 87.0996 211.304C93.7828 205.844 100.884 200.897 108.269 196.42C109.33 195.773 110.402 195.144 111.475 194.514C113.113 193.561 111.628 191.02 109.99 191.973L109.996 191.996Z" fill="url(#paint0_linear_388_6690)"/>
<path d="M219.026 135.175C228.237 130.998 237.702 127.357 247.397 124.451C254.911 122.198 262.555 120.38 270.299 119.127C276.9 118.062 283.866 117.274 290.749 117.333C292.511 117.344 294.474 117.439 296.048 117.697C296.755 117.815 297.456 117.962 298.146 118.174C298.434 118.262 298.723 118.362 299.006 118.468C299.218 118.544 298.865 118.392 299.212 118.562C299.348 118.627 299.489 118.697 299.619 118.768C299.843 118.892 300.049 119.027 300.261 119.168C300.491 119.321 300.085 119.009 300.285 119.186C300.397 119.286 300.509 119.38 300.609 119.486C300.686 119.568 300.762 119.65 300.833 119.733C300.998 119.915 300.686 119.468 300.857 119.774C300.969 119.974 301.098 120.168 301.193 120.38C301.075 120.115 301.193 120.398 301.222 120.515C301.257 120.645 301.287 120.774 301.316 120.909C301.375 121.162 301.316 120.662 301.334 121.039C301.334 121.198 301.352 121.356 301.346 121.515C301.346 121.656 301.334 121.798 301.322 121.939C301.305 122.198 301.369 121.762 301.293 122.104C301.222 122.421 301.151 122.739 301.051 123.051C301.004 123.204 300.951 123.351 300.898 123.504C300.874 123.568 300.715 123.968 300.81 123.739C300.668 124.074 300.503 124.404 300.332 124.727C299.984 125.386 299.59 126.027 299.165 126.645C298.305 127.91 297.433 128.951 296.36 130.133C294.745 131.904 293.012 133.575 291.191 135.134C291.032 135.269 290.867 135.404 290.708 135.54C290.095 136.046 290.184 137.099 290.708 137.622C291.315 138.228 292.176 138.128 292.794 137.622C294.309 136.375 295.747 135.028 297.12 133.628C299.377 131.328 301.611 128.786 303.055 125.886C304.328 123.327 304.982 120.221 303.037 117.815C301.252 115.603 298.11 115.003 295.446 114.674C291.138 114.144 286.724 114.409 282.41 114.744C279.298 114.985 276.198 115.333 273.11 115.762C265.443 116.821 257.864 118.45 250.408 120.527C240.537 123.274 230.901 126.81 221.507 130.886C220.181 131.463 218.855 132.051 217.534 132.651C216.81 132.981 216.633 134.028 217.004 134.663C217.44 135.404 218.295 135.522 219.02 135.193L219.026 135.175Z" fill="url(#paint1_linear_388_6690)"/>
<path d="M105.292 242.235C118.382 237.941 131.312 233.181 144.054 227.952C157.061 222.61 169.879 216.804 182.456 210.515C194.237 204.627 205.812 198.332 217.157 191.643C227.629 185.472 237.902 178.96 247.962 172.136C257.185 165.883 266.226 159.359 275.072 152.588C276.15 151.764 277.223 150.935 278.296 150.105C278.926 149.617 278.808 148.541 278.296 148.023C277.677 147.405 276.84 147.535 276.209 148.023C267.564 154.723 258.729 161.177 249.718 167.383C239.835 174.184 229.745 180.678 219.455 186.849C208.393 193.485 197.107 199.75 185.615 205.621C173.215 211.957 160.585 217.845 147.755 223.246C135.078 228.581 122.201 233.446 109.17 237.847C107.62 238.37 106.064 238.888 104.508 239.4C102.717 239.988 103.483 242.829 105.292 242.235Z" fill="url(#paint2_linear_388_6690)"/>
<path d="M284.596 146.052C286.338 146.052 287.749 144.643 287.749 142.905C287.749 141.167 286.338 139.758 284.596 139.758C282.855 139.758 281.443 141.167 281.443 142.905C281.443 144.643 282.855 146.052 284.596 146.052Z" fill="url(#paint3_linear_388_6690)"/>
<path d="M91.361 246.671C93.1024 246.671 94.514 245.262 94.514 243.523C94.514 241.785 93.1024 240.376 91.361 240.376C89.6197 240.376 88.208 241.785 88.208 243.523C88.208 245.262 89.6197 246.671 91.361 246.671Z" fill="url(#paint4_linear_388_6690)"/>
<defs>
<linearGradient id="paint0_linear_388_6690" x1="60.1545" y1="219.18" x2="110.886" y2="219.18" gradientUnits="userSpaceOnUse">
<stop stop-color="#F47B4A"/>
<stop offset="1" stop-color="#F4C1D8"/>
</linearGradient>
<linearGradient id="paint1_linear_388_6690" x1="218.159" y1="126.192" x2="303.126" y2="126.192" gradientUnits="userSpaceOnUse">
<stop stop-color="#F47B4A"/>
<stop offset="1" stop-color="#F4C1D8"/>
</linearGradient>
<linearGradient id="paint2_linear_388_6690" x1="104.809" y1="194.961" x2="277.435" y2="194.961" gradientUnits="userSpaceOnUse">
<stop stop-color="#F47B4A"/>
<stop offset="1" stop-color="#F4C1D8"/>
</linearGradient>
<linearGradient id="paint3_linear_388_6690" x1="281.5" y1="143.595" x2="287.671" y2="142.268" gradientUnits="userSpaceOnUse">
<stop stop-color="#F47B4A"/>
<stop offset="1" stop-color="#F4C1D8"/>
</linearGradient>
<linearGradient id="paint4_linear_388_6690" x1="88.2547" y1="244.204" x2="94.4251" y2="242.878" gradientUnits="userSpaceOnUse">
<stop stop-color="#F47B4A"/>
<stop offset="1" stop-color="#F4C1D8"/>
</linearGradient>
</defs>
</svg>
